<svg xmlns="http://www.w3.org/2000/svg" viewBox="0 0 375.1 90.4">
  <path d="M90.4 45.2C90.4 20.3 70.1 0 45.2 0 20.3 0 0 20.3 0 45.2c0 25 20.3 45.2 45.2 45.2 25 0 45.2-20.2 45.2-45.2zm-2.1 0c0 23.8-19.2 43-43 43S2.2 68.9 2.2 45.2c0-23.8 19.3-43.1 43.1-43.1 23.7 0 43 19.4 43 43.1zm-2.7 0c0-14.3-7.3-29.1-22.9-33.8-3.3-1-6-1.6-9.1-1.6-7.2 0-7.5 4.1-10.9 4.1-1.9 0-3.1-1.4-3.1-3 0-2.9 3.4-5.1 8.8-5.1 5 0 8.9 1.3 9.6 1.6l.1-.4c-1.3-.5-6.1-2.2-12.7-2.2-14.4 0-29.1 7.4-33.8 22.9-1 3.2-1.6 6-1.6 9.1 0 7.3 4.1 7.6 4.1 11 0 1.8-1.4 3-3 3C8.2 50.8 6 47.5 6 42c0-5 1.3-8.9 1.5-9.6l-.4-.1c-.4 1.5-2 6.1-2 12.8C5.1 59.6 12.5 74.3 28 79c3.3 1 6 1.6 9.1 1.6 7.3 0 7.5-4.2 10.9-4.2 1.8 0 3.2 1.4 3.2 3.1 0 2.8-3.3 5-8.8 5-5 0-9-1.3-9.6-1.5l-.1.4c1.4.6 6.1 2 12.8 2 14.4 0 29.2-7.3 33.8-22.9 1-3.1 1.6-6 1.6-9 0-7.4-4.1-7.6-4.1-11 0-1.9 1.3-3.1 3-3.1 2.9 0 5.1 3.4 5.1 8.9 0 4.9-1.3 8.8-1.5 9.6l.4.1c.2-1.4 1.8-6 1.8-12.8zm-15.2 12c0 5.6-4.9 11.5-12 11.5-8.6 0-13-7.3-13-13.8 0-9.1 6.2-13 8.9-14.4-.5-.4-.9-.9-1.3-1.5-3 2.1-5.8 4-11.5 7.3-.3 4-.6 8.4-1.6 11.4-2.1 6.4-6.5 11-12.3 11-4.9 0-7.2-3.5-7.2-7.3 0-2.7 1.6-6.2 4.5-8.9 3.6-3.3 7.6-5.2 13.1-8.1.1-.7.3-1.5.4-2.4-1.4 1.3-3.4 1.8-5 1.8-2.6 0-4.8-2.3-5.2-4.6-3.5-.3-6.1-2.8-6.3-6.8 0-2.9 1.1-5.4 3-5.4.7 0 1 .6 1 1.1s-.6 2.1-.6 3.7.8 3.8 2.8 3.8c0-6.5 4.8-14.9 10.4-14.9 3.7 0 4.2 2.8 4.2 4 0 5.9-5.9 12.4-10.7 14 .1.5.6 1.9 2.2 1.9 1.9 0 4.1-1.8 5.3-3.2.5-2.6 2.4-6.4 4.9-6.4 1 0 1.5.7 1.5 1.6 0 1.9-2 4.2-3.5 5.9-.2 1.3-.4 2.6-.4 3.8 4.4-2.6 6.6-4 9.9-6.4-.3-.9-.3-1.9-.3-2.9 0-5.9 3.9-12.4 9-12.4 2.9 0 4.4 2 4.4 4.3 0 4.2-3.6 8-8.7 11.9.4 1 1 1.9 2 2.4.1-.3 1.8-.5 3.1-.5 1.5 0 3.6.4 3.6 1.9 0 1.7-2.4 2.1-4.2 2.1-1 .1-2.6-.3-2.6-.3-2.7.7-8 3.9-8 11.9 0 5.4 3.4 10.4 8.7 10.4 4 0 7.2-3 7.4-7.6 0-3-1.3-6.1-4.2-6.1-1.5 0-2.9 1.1-2.9 2.8-.1 2.5 1.7 2.8 1.7 4.4 0 1.1-.9 1.6-1.7 1.6-2.5 0-4.4-2.5-4.4-5.6 0-3.8 3.3-6.9 7.5-6.9 5.2 0 8.1 4.8 8.1 9.9zm-9.2-31.5c0-.6-.1-1.4-.9-1.4-1.9 0-4.9 4-4.9 9.1 3.7-3.2 5.8-6 5.8-7.7zM39 25.1c0-.6-.4-.9-.9-.9-2.6 0-6.4 6.9-6.4 11C35.9 33 39 27.9 39 25.1zm-1.5 23.5c-5.6 2.7-12.8 7.6-12.8 13 0 2 1 3.2 2.9 3.2 5.5 0 8.9-8.7 9.9-16.2zm91.6 7.7c0 1.8-1 3.2-3 4.2s-4.4 1.4-7.3 1.4c-4.1 0-7.4-1.4-9.8-4.1-2.5-2.7-3.7-6.4-3.7-11.1 0-4.8 1.3-8.6 4-11.4s6-4.2 9.9-4.2c2.4 0 4.5.4 6.5 1.3s2.9 1.7 2.9 2.7c0 .5-.2 1-.6 1.4-.4.5-.8.7-1.3.7-.3 0-.8-.1-1.3-.4-1.3-.7-2.4-1.2-3.3-1.5s-1.8-.4-2.9-.4c-2.9 0-5.2 1.1-7.1 3.2-1.8 2.1-2.8 5-2.8 8.6s.9 6.4 2.6 8.4 4.1 3.1 7.2 3.1c1.7 0 3.1-.2 4.1-.6 1.1-.4 1.6-1 1.6-1.8v-6.6h-5.6c-1.2 0-1.9-.6-1.9-1.9s.6-1.9 1.9-1.9h7.7c.7 0 1.2.2 1.5.5s.5.8.5 1.4v9h.2zm11-12.3h9.6c1.4 0 2.2.6 2.2 1.9 0 .7-.2 1.2-.5 1.5s-.9.5-1.7.5h-9.6V57c0 .4.2.7.6.7h10.4c1.5 0 2.2.6 2.2 1.9s-.7 2-2.2 2h-11.5c-1.1 0-2-.3-2.6-.9s-1-1.4-1-2.5V35.4c0-1.3.3-2.2 1-2.8.6-.6 1.6-.9 2.9-.9h11.3c.8 0 1.4.1 1.7.4.3.3.5.8.5 1.5 0 1.3-.7 2-2.2 2h-10.3c-.5 0-.7.3-.7.8l-.1 7.6zm50.8 15.9c0 1.2-.7 1.9-2.1 1.9s-2-.6-2-1.9V48h-13.5v11.9c0 1.2-.7 1.9-2.1 1.9s-2-.6-2-1.9V33c0-1.2.7-1.8 2-1.8 1.4 0 2.1.6 2.1 1.8v11.2h13.5V33c0-1.2.7-1.8 2-1.8 1.4 0 2.1.6 2.1 1.8v26.9zm9.7-8.2c.2 2 .8 3.6 2 4.8 1.1 1.2 2.6 1.7 4.4 1.7 1.7 0 3.2-.4 4.4-1.3.7-.5 1.3-.7 1.7-.7.5 0 .9.2 1.3.6.4.4.5.8.5 1.3 0 1-.9 1.8-2.6 2.6-1.7.8-3.5 1.2-5.4 1.2-3.2 0-5.8-1-7.6-3.1-1.9-2.1-2.8-4.9-2.8-8.4s.9-6.4 2.7-8.6c1.8-2.2 4.3-3.3 7.5-3.3 2.8 0 5 .9 6.7 2.8 1.7 1.8 2.5 4.3 2.5 7.4 0 2-.8 3-2.5 3h-12.8zm.1-3.5h11.1c-.1-1.8-.6-3.2-1.5-4.3-.9-1-2.1-1.6-3.7-1.6s-2.9.5-4 1.6c-1.1 1-1.7 2.4-1.9 4.3zM238.5 60c0 1.2-.7 1.8-2 1.8s-2-.6-2-1.7v-1.6c-.6 1.2-1.5 2-2.6 2.6s-2.3.9-3.8.9c-2.8 0-5-1.1-6.6-3.2s-2.5-5-2.5-8.5.9-6.3 2.6-8.5c1.7-2.1 4-3.2 6.9-3.2 1.3 0 2.5.3 3.5.8s1.8 1.3 2.5 2.3v-1.2c0-1.2.7-1.8 2-1.8s2 .6 2 1.8V60zm-4-11.7c0-1.7-.5-3.2-1.5-4.3-1-1.1-2.3-1.7-4-1.7-1.9 0-3.3.7-4.4 2.2-1 1.5-1.6 3.4-1.6 5.8 0 2.5.5 4.4 1.5 5.9 1 1.4 2.5 2.2 4.4 2.2 1.7 0 3-.6 4-1.7s1.5-2.6 1.5-4.3l.1-4.1zM248.9 60c0 1.2-.7 1.8-2 1.8s-2-.6-2-1.8V30.1c0-1.1.7-1.7 2-1.7 1.4 0 2 .6 2 1.7V60zm11.6-17.5v12.7c0 1 .2 1.8.5 2.3.4.5.9.7 1.7.7.4 0 .8-.1 1.1-.2.8-.3 1.3-.5 1.6-.5.4 0 .8.2 1.1.6s.5.8.5 1.3c0 .7-.5 1.3-1.4 1.8-1 .5-2.1.7-3.3.7-1.9 0-3.4-.5-4.4-1.6s-1.5-2.8-1.5-5V42.5h-1.3c-1.2 0-1.9-.1-2.1-.4-.2-.3-.3-.7-.3-1.4 0-.6.1-1.1.4-1.3.2-.2.7-.4 1.4-.4h1.9v-4.8c0-1.2.7-1.8 2-1.8 1.4 0 2 .6 2 1.8V39h3.9c.7 0 1.1.1 1.4.4.2.3.4.7.4 1.3 0 .7-.1 1.1-.4 1.4s-.7.4-1.3.4h-3.9zM288.8 60c0 1.2-.7 1.8-2 1.8-1.4 0-2.1-.6-2.1-1.8V47.5c0-1.6-.4-2.8-1.1-3.7-.8-.9-1.9-1.4-3.4-1.4-1.8 0-3.2.6-4.2 1.9-1 1.2-1.5 2.9-1.5 5V60c0 1.2-.7 1.8-2 1.8s-2-.6-2-1.8V30.2c0-1.2.7-1.8 2-1.8s2 .6 2 1.8v12.1c1.6-2.4 3.8-3.7 6.7-3.7 2.4 0 4.3.7 5.6 2.2s2 3.5 2 5.9V60zm23-17.4c0 .5-.2.9-.6 1.4-.4.4-.8.6-1.3.6-.4 0-1-.3-1.6-.8-1.4-1-2.9-1.6-4.4-1.6-1.9 0-3.4.7-4.5 2.1s-1.7 3.3-1.7 5.9c0 2.4.6 4.4 1.7 5.8 1.2 1.5 2.7 2.2 4.5 2.2 1.6 0 3.1-.5 4.5-1.6.6-.4 1.1-.7 1.6-.7s1 .2 1.3.6c.4.4.6.8.6 1.3 0 .8-.8 1.7-2.3 2.7-1.6.9-3.5 1.4-5.7 1.4-3 0-5.5-1.1-7.4-3.2s-2.8-5-2.8-8.5 1-6.4 2.9-8.5 4.5-3.2 7.5-3.2c2.1 0 3.9.4 5.5 1.3 1.4 1 2.2 1.9 2.2 2.8zM334.3 60c0 1.2-.7 1.8-2 1.8s-2-.6-2-1.7v-1.6c-.6 1.2-1.5 2-2.6 2.6s-2.3.9-3.8.9c-2.8 0-5-1.1-6.6-3.2s-2.5-5-2.5-8.5.9-6.3 2.6-8.5c1.7-2.1 4-3.2 6.9-3.2 1.3 0 2.5.3 3.5.8s1.8 1.3 2.5 2.3v-1.2c0-1.2.7-1.8 2-1.8s2 .6 2 1.8V60zm-4-11.7c0-1.7-.5-3.2-1.5-4.3-1-1.1-2.3-1.7-4-1.7-1.9 0-3.3.7-4.4 2.2-1 1.5-1.6 3.4-1.6 5.8 0 2.5.5 4.4 1.5 5.9 1 1.4 2.5 2.2 4.4 2.2 1.7 0 3-.6 4-1.7s1.5-2.6 1.5-4.3l.1-4.1zm14.4-6.4c1.1-2.2 2.9-3.3 5.4-3.3 2.3 0 3.4.7 3.4 2 0 .7-.2 1.2-.5 1.6s-.7.6-1 .6-.6-.1-.9-.2c-.5-.2-1-.3-1.5-.3-1.5 0-2.7.6-3.6 1.7-.9 1.2-1.3 2.7-1.3 4.7v11.2c0 1.2-.7 1.8-2 1.8s-2-.6-2-1.8V40.4c0-1.1.7-1.7 2-1.7s2 .6 2 1.7v1.5zm15.1 9.8c.2 2 .8 3.6 2 4.8 1.1 1.2 2.6 1.7 4.4 1.7 1.7 0 3.2-.4 4.4-1.3.7-.5 1.3-.7 1.7-.7.5 0 .9.2 1.3.6.4.4.5.8.5 1.3 0 1-.9 1.8-2.6 2.6-1.7.8-3.5 1.2-5.4 1.2-3.2 0-5.8-1-7.6-3.1-1.9-2.1-2.8-4.9-2.8-8.4s.9-6.4 2.7-8.6 4.3-3.3 7.5-3.3c2.8 0 5 .9 6.7 2.8 1.7 1.8 2.5 4.3 2.5 7.4 0 2-.8 3-2.5 3h-12.8zm.1-3.5H371c-.1-1.8-.6-3.2-1.5-4.3-.9-1-2.1-1.6-3.7-1.6s-2.9.5-4 1.6c-1 1-1.6 2.4-1.9 4.3z" fill="#1F60AA"/>
</svg>
