<svg xmlns="http://www.w3.org/2000/svg" width="226.5" height="52.8" viewBox="0 0 59.928 13.97">
  <path d="M.556 5.212h1.56v8.282H.557z" fill="#ffb441"/>
  <path d="M4.736.265h1.588v13.229H4.763zM9.022.265h1.588v13.229H9.049zM20.188 13.494h-1.561v-1.27H18.6c-.397.873-1.455 1.481-2.725 1.481-1.614 0-3.016-.952-3.016-3.175V5.186h1.587v4.895c0 1.56.9 2.143 1.879 2.143 1.323 0 2.302-.847 2.302-2.752v-4.26h1.587v8.282zM22.199 5.212h1.481V6.51h.027C23.865 6.006 24.87 5 26.353 5c1.217 0 2.063.529 2.592 1.534.556-1.005 1.64-1.534 2.62-1.534 2.54 0 3.148 1.825 3.148 3.677v4.816h-1.56V8.89c0-1.27-.265-2.408-1.8-2.408-1.534 0-2.117 1.032-2.117 2.514v4.524H27.65V9.181c0-1.561-.238-2.699-1.746-2.699-1.138 0-2.143.847-2.143 2.726v4.312h-1.535zM36.883 5.212h1.587v8.282h-1.587zM40.772 5.212h1.561v1.27h.027c.397-.873 1.455-1.481 2.725-1.481 1.614 0 3.016.952 3.016 3.175v5.344h-1.587V8.625c0-1.56-.9-2.143-1.879-2.143-1.323 0-2.302.847-2.302 2.752v4.26h-1.587V5.212zM55.483 9.499v.529c0 1.111-.608 2.407-2.355 2.407-1.084 0-1.772-.396-1.772-1.349 0-1.323 1.825-1.587 3.307-1.587zm-4.365-2.302c.582-.45 1.164-.953 2.354-.953 1.35 0 1.985.9 1.985 1.746v.344h-1.164c-2.514 0-4.551.741-4.551 2.858 0 1.614 1.323 2.487 2.857 2.487 1.27 0 2.196-.397 2.91-1.482h.027c0 .424.027.847.053 1.27h1.402c-.053-.45-.08-.926-.08-1.508V7.726c0-1.429-1.005-2.752-3.465-2.752-1.164 0-2.408.397-3.281 1.217z" fill="#616161"/>
  <path d="M1.323 1.244C.74 1.244.265 1.72.265 2.302c0 .582.476 1.058 1.058 1.058.582 0 1.058-.476 1.058-1.058 0-.582-.476-1.058-1.058-1.058z" fill="#ffb441"/>
  <path d="M58.076 5.477h.238v-.53h.185l.318.53h.238l-.344-.556c.185-.026.318-.132.318-.344 0-.238-.16-.397-.45-.397h-.503zm.238-1.111h.185c.16 0 .318 0 .318.185 0 .159-.159.185-.318.185h-.185zm-.926.476a1.13 1.13 0 0 0 1.138 1.138 1.13 1.13 0 0 0 1.138-1.138 1.13 1.13 0 0 0-1.138-1.138 1.13 1.13 0 0 0-1.138 1.138zm.185 0c0-.503.424-.926.926-.926.503 0 .926.423.926.926a.937.937 0 0 1-.926.926.937.937 0 0 1-.926-.926z" fill="#616161"/>
</svg>
