<svg xmlns="http://www.w3.org/2000/svg" width="20" height="20" viewBox="0 0 426.367 437.549">
  <path
    d="M28.564 251.514l-21.68-21.68c-9.18-9.18-9.18-24.023 0-33.105L196.631 6.885c9.18-9.18 24.023-9.18 33.105 0l189.746 189.746c9.18 9.18 9.18 24.023 0 33.105l-21.68 21.68c-9.277 9.277-24.414 9.082-33.496-.391L252.295 133.447v280.664a23.382 23.382 0 0 1-23.438 23.438h-31.25a23.382 23.382 0 0 1-23.438-23.438V133.447L62.061 251.123c-9.082 9.57-24.219 9.766-33.497.391z"
    fill="#f2f3f4"
  />
</svg>
