<?xml version="1.0" encoding="utf-8"?>
<!-- Generator: Adobe Illustrator 16.0.4, SVG Export Plug-In . SVG Version: 6.00 Build 0)  -->
<!DOCTYPE svg PUBLIC "-//W3C//DTD SVG 1.1//EN" "http://www.w3.org/Graphics/SVG/1.1/DTD/svg11.dtd">
<svg version="1.1" id="Layer_1" xmlns="http://www.w3.org/2000/svg" xmlns:xlink="http://www.w3.org/1999/xlink" x="0px" y="0px"
	 width="500.001px" height="500.002px" viewBox="0 0 500.001 500.002" style="enable-background:new 0 0 500.001 500.002;"
	 xml:space="preserve">
<path d="M495.832,106.542c-2.188-8.818-13.223-11.807-19.648-5.381l-72.617,72.617l-66.289-11.045l-11.045-66.289l72.617-72.617
	c6.465-6.465,3.35-17.48-5.527-19.688c-46.27-11.465-97.217,0.889-133.379,37.041c-38.71,38.711-49.365,94.824-33.251,143.75
	L18.303,393.319c-24.404,24.404-24.404,63.975,0,88.379s63.975,24.404,88.379,0l208.212-208.213
	c48.945,16.318,104.951,5.547,143.916-33.418C495.012,203.866,507.346,152.84,495.832,106.542z M62.502,460.937
	c-12.939,0-23.438-10.498-23.438-23.438c0-12.949,10.498-23.438,23.438-23.438S85.94,424.55,85.94,437.499
	C85.94,450.438,75.442,460.937,62.502,460.937z"/>
</svg>
