<svg id="Layer_1" xmlns="http://www.w3.org/2000/svg" width="295.104" height="283.074" viewBox="0 0 295.104 283.074">
  <style>
    .st1{enable-background:new}.st7{fill:#373d3f}
  </style>
  <path d="M163.011 18.95c51.703 0 98.649 30.171 120.126 77.201l-120.126 54.86V18.95z" fill="#4472c4"/>
  <path d="M283.139 96.151c30.3 66.345 1.077 144.688-65.268 174.986a132.062 132.062 0 0 1-116.686-3.431l61.825-116.697 120.129-54.858z" fill="#ed7d31"/>
  <path d="M101.187 267.708C58.326 245 31.362 200.625 30.955 152.121l132.057-1.108-61.825 116.695z" fill="#a5a5a5"/>
  <path d="M30.955 152.121c-.025-2.957.05-5.916.224-8.869l131.833 7.76-132.057 1.109z" fill="#ffc000"/>
  <path d="M31.178 143.251a132.183 132.183 0 0 1 3.153-21.936l128.68 29.695-131.833-7.759z" fill="#5b9bd5"/>
  <path d="M34.332 121.316a132.006 132.006 0 0 1 14.683-36.975l113.997 66.67-128.68-29.695z" fill="#70ad47"/>
  <path d="M49.014 84.341a132.062 132.062 0 0 1 62.181-54.801l51.816 121.471-113.997-66.67z" fill="#264478"/>
  <path d="M111.195 29.54a132.079 132.079 0 0 1 51.816-10.59v132.061L111.195 29.54z" fill="#9e480e"/>
  <g class="st1">
    <path class="st7" d="M241.143 24.967v-1.516c.701-.031 1.192-.078 1.473-.141.446-.099.811-.297 1.091-.594.192-.203.338-.474.437-.812a1.83 1.83 0 0 0 .086-.453h1.859v11.328h-2.281v-7.812h-2.665z"/>
  </g>
  <g class="st1">
    <path class="st7" d="M249.88 27.912a2.735 2.735 0 0 1 1.262-1.164c-.549-.364-.906-.759-1.07-1.184a3.298 3.298 0 0 1-.247-1.191c0-.823.311-1.524.932-2.105s1.498-.871 2.631-.871 2.01.29 2.631.871.932 1.282.932 2.105c0 .37-.082.767-.246 1.191s-.52.793-1.066 1.105c.56.312.981.727 1.264 1.242s.424 1.091.424 1.727c0 .953-.354 1.765-1.06 2.434-.707.669-1.693 1.004-2.96 1.004s-2.227-.335-2.878-1.004c-.652-.669-.978-1.48-.978-2.434a3.467 3.467 0 0 1 .429-1.726zm2.316 2.875c.289.308.688.461 1.199.461s.91-.153 1.199-.461.434-.739.434-1.297c0-.578-.147-1.017-.441-1.316s-.691-.449-1.191-.449-.897.149-1.191.449-.441.738-.441 1.316c-.002.558.142.989.432 1.297zm.141-5.156c.254.261.604.391 1.054.391.454 0 .806-.13 1.054-.391s.372-.597.372-1.008c0-.448-.124-.798-.372-1.051s-.6-.379-1.054-.379c-.449 0-.8.126-1.054.379s-.38.603-.38 1.051c0 .411.126.747.38 1.008zM263.258 26.467a2.799 2.799 0 0 1-2.059.852c-.802 0-1.487-.284-2.055-.852s-.852-1.253-.852-2.055.284-1.487.852-2.055 1.253-.852 2.055-.852 1.487.284 2.055.852.852 1.253.852 2.055-.283 1.487-.848 2.055zm-1.18-1.176c.242-.242.363-.535.363-.879s-.121-.637-.363-.879-.535-.363-.879-.363-.637.121-.879.363-.363.535-.363.879.121.637.363.879.535.363.879.363.637-.121.879-.363zm5.473-3.84h1.183l-6.31 11.625h-1.209l6.336-11.625zm3.297 10.703c-.567.567-1.253.852-2.055.852s-1.487-.284-2.055-.852-.852-1.253-.852-2.055c0-.808.284-1.493.852-2.059s1.253-.848 2.055-.848 1.487.284 2.055.852.852 1.253.852 2.055-.285 1.488-.852 2.055zm-1.176-2.933c-.242-.242-.535-.363-.879-.363s-.637.121-.879.363-.363.535-.363.879.121.637.363.879.535.363.879.363.637-.121.879-.363.363-.535.363-.879-.121-.637-.363-.879z"/>
  </g>
  <text transform="translate(258.318 32.78)" class="st7" font-size="16" font-family="Helvetica-Bold">
    
  </text>
  <g class="st1">
    <path class="st7" d="M268.574 258.501h-1.281v2.438h-2.18v-2.438h-4.484v-1.945l4.164-6.875h2.5v7.078h1.281v1.742zm-3.46-1.742v-4.879l-2.827 4.879h2.827z"/>
  </g>
  <g class="st1">
    <path class="st7" d="M276.643 251.056c.581 1.016.871 2.459.871 4.328 0 1.871-.29 3.311-.871 4.32-.581 1.012-1.593 1.516-3.035 1.516s-2.454-.504-3.035-1.516c-.581-1.01-.871-2.449-.871-4.32 0-1.869.29-3.312.871-4.328s1.593-1.523 3.035-1.523 2.454.508 3.035 1.523zm-4.348 7.317c.214.691.651 1.035 1.312 1.035s1.095-.344 1.301-1.035c.206-.689.309-1.686.309-2.988 0-1.363-.103-2.375-.309-3.031s-.64-.984-1.301-.984-1.099.328-1.312.984-.32 1.668-.32 3.031c0 1.302.106 2.298.32 2.988zM283.432 254.626a2.795 2.795 0 0 1-2.059.852 2.797 2.797 0 0 1-2.055-.852 2.8 2.8 0 0 1-.852-2.055c0-.801.284-1.486.852-2.055.567-.566 1.253-.852 2.055-.852s1.487.285 2.055.852c.567.568.852 1.254.852 2.055 0 .804-.283 1.489-.848 2.055zm-1.18-1.175c.242-.242.363-.535.363-.879s-.121-.637-.363-.879-.535-.363-.879-.363-.637.121-.879.363-.363.535-.363.879.121.637.363.879.535.363.879.363.637-.121.879-.363zm5.473-3.84h1.183l-6.31 11.625h-1.209l6.336-11.625zm3.297 10.703c-.567.568-1.253.852-2.055.852s-1.487-.283-2.055-.852a2.8 2.8 0 0 1-.852-2.055 2.8 2.8 0 0 1 .852-2.059c.567-.564 1.253-.848 2.055-.848s1.487.285 2.055.852c.567.568.852 1.254.852 2.055a2.803 2.803 0 0 1-.852 2.055zm-1.176-2.934c-.242-.242-.535-.363-.879-.363s-.637.121-.879.363-.363.535-.363.879.121.637.363.879.535.363.879.363.637-.121.879-.363.363-.535.363-.879-.121-.636-.363-.879z"/>
  </g>
  <g class="st1">
    <path class="st7" d="M14.363 225.027v-1.516c.701-.031 1.192-.078 1.473-.141.447-.1.811-.297 1.091-.594.192-.203.337-.475.436-.812.058-.203.086-.355.086-.453h1.859v11.328h-2.281v-7.812h-2.664z"/>
  </g>
  <g class="st1">
    <path class="st7" d="M30.686 223.402c-.334.328-.798.912-1.394 1.754a15.434 15.434 0 0 0-1.495 2.605c-.318.703-.605 1.562-.861 2.578-.256 1.016-.384 1.848-.384 2.5H24.24c.068-2.031.735-4.145 2.001-6.336.818-1.359 1.504-2.309 2.057-2.844h-5.644l.031-2h8v1.743zM36.479 226.527a2.803 2.803 0 0 1-2.059.852 2.804 2.804 0 0 1-2.055-.852 2.802 2.802 0 0 1-.852-2.055c0-.803.284-1.488.852-2.055a2.797 2.797 0 0 1 2.055-.852c.802 0 1.487.283 2.055.852a2.8 2.8 0 0 1 .852 2.055 2.816 2.816 0 0 1-.848 2.055zm-1.18-1.176c.242-.242.363-.535.363-.879s-.121-.637-.363-.879-.535-.363-.879-.363-.637.121-.879.363-.363.535-.363.879.121.637.363.879.535.363.879.363.637-.121.879-.363zm5.473-3.84h1.183l-6.31 11.625h-1.209l6.336-11.625zm3.297 10.703a2.808 2.808 0 0 1-2.055.852 2.804 2.804 0 0 1-2.055-.852 2.802 2.802 0 0 1-.852-2.055c0-.809.284-1.494.852-2.059a2.801 2.801 0 0 1 2.055-.848c.802 0 1.487.283 2.055.852a2.8 2.8 0 0 1 .852 2.055 2.81 2.81 0 0 1-.852 2.055zm-1.176-2.933c-.242-.242-.535-.363-.879-.363s-.637.121-.879.363-.363.535-.363.879.121.637.363.879.535.363.879.363.637-.121.879-.363.363-.535.363-.879-.121-.637-.363-.879z"/>
  </g>
  <g class="st1">
    <path class="st7" d="M1.11 145.232v-1.516c.701-.031 1.192-.078 1.473-.141.447-.1.811-.297 1.091-.594.192-.203.337-.475.436-.812.058-.204.086-.355.086-.454h1.859v11.329H3.774v-7.812H1.11zM14.231 146.732a2.803 2.803 0 0 1-2.059.852 2.804 2.804 0 0 1-2.055-.852 2.802 2.802 0 0 1-.852-2.055c0-.803.284-1.488.852-2.055a2.797 2.797 0 0 1 2.055-.852 2.8 2.8 0 0 1 2.055.852 2.8 2.8 0 0 1 .852 2.055 2.814 2.814 0 0 1-.848 2.055zm-1.18-1.176c.242-.242.363-.535.363-.879s-.121-.637-.363-.879-.535-.363-.879-.363-.637.121-.879.363-.363.535-.363.879.121.637.363.879.535.363.879.363.637-.121.879-.363zm5.473-3.84h1.183l-6.31 11.625h-1.209l6.336-11.625zm3.297 10.703a2.808 2.808 0 0 1-2.055.852 2.804 2.804 0 0 1-2.055-.852 2.802 2.802 0 0 1-.852-2.055c0-.809.284-1.494.852-2.059a2.801 2.801 0 0 1 2.055-.848c.802 0 1.487.283 2.055.852a2.8 2.8 0 0 1 .852 2.055 2.808 2.808 0 0 1-.852 2.055zm-1.176-2.933c-.242-.242-.535-.363-.879-.363s-.637.121-.879.363-.363.535-.363.879.121.637.363.879.535.363.879.363.637-.121.879-.363.363-.535.363-.879-.121-.637-.363-.879z"/>
  </g>
  <g class="st1">
    <path class="st7" d="M4.61 128.729c0 .453.073.828.218 1.125.27.547.761.82 1.473.82.437 0 .817-.149 1.142-.449s.487-.73.487-1.293c0-.745-.301-1.242-.903-1.492-.343-.141-.883-.211-1.62-.211v-1.594c.722-.011 1.225-.081 1.51-.211.493-.219.74-.661.74-1.328 0-.433-.126-.784-.378-1.055s-.606-.406-1.063-.406c-.525 0-.911.167-1.157.5-.247.333-.365.778-.354 1.336h-2.08a5.594 5.594 0 0 1 .289-1.602c.182-.442.468-.852.859-1.227.291-.266.637-.469 1.038-.609s.892-.211 1.475-.211c1.082 0 1.955.28 2.618.84.664.56.995 1.312.995 2.254 0 .667-.198 1.229-.594 1.688-.25.286-.511.481-.781.586.203 0 .495.175.875.523.567.526.852 1.245.852 2.156 0 .958-.332 1.801-.995 2.527-.664.727-1.646 1.09-2.946 1.09-1.603 0-2.716-.523-3.34-1.57-.328-.558-.51-1.286-.546-2.188H4.61zM16.231 125.894a2.799 2.799 0 0 1-2.059.852 2.8 2.8 0 0 1-2.055-.852c-.568-.567-.852-1.253-.852-2.055s.284-1.487.852-2.055a2.801 2.801 0 0 1 2.055-.852 2.8 2.8 0 0 1 2.055.852c.567.567.852 1.253.852 2.055s-.283 1.487-.848 2.055zm-1.18-1.176c.242-.242.363-.535.363-.879s-.121-.637-.363-.879-.535-.363-.879-.363-.637.121-.879.363-.363.535-.363.879.121.637.363.879.535.363.879.363.637-.121.879-.363zm5.473-3.84h1.183l-6.31 11.625h-1.209l6.336-11.625zm3.297 10.703a2.804 2.804 0 0 1-2.055.852 2.8 2.8 0 0 1-2.055-.852 2.799 2.799 0 0 1-.852-2.055c0-.808.284-1.493.852-2.059a2.805 2.805 0 0 1 2.055-.848 2.8 2.8 0 0 1 2.055.852c.567.567.852 1.253.852 2.055s-.285 1.488-.852 2.055zm-1.176-2.934c-.242-.242-.535-.363-.879-.363s-.637.121-.879.363-.363.535-.363.879.121.637.363.879.535.363.879.363.637-.121.879-.363.363-.535.363-.879-.121-.636-.363-.879z"/>
  </g>
  <g class="st1">
    <path class="st7" d="M14.393 98.426c.088.484.257.858.507 1.121.249.263.613.395 1.091.395.551 0 .971-.194 1.259-.582s.433-.876.433-1.465c0-.578-.135-1.066-.405-1.465-.271-.398-.691-.598-1.263-.598-.271 0-.504.034-.701.102a1.393 1.393 0 0 0-.788.695l-1.996-.094.795-6.258h6.232v1.891h-4.626l-.406 2.477c.343-.224.611-.372.804-.445.323-.12.715-.18 1.178-.18a3.54 3.54 0 0 1 2.45.945c.697.63 1.045 1.547 1.045 2.75a4.32 4.32 0 0 1-1.007 2.805c-.671.823-1.675 1.234-3.013 1.234-1.077 0-1.961-.289-2.653-.867-.692-.578-1.077-1.398-1.155-2.461h2.219zM25.983 95.145a2.799 2.799 0 0 1-2.059.852 2.8 2.8 0 0 1-2.055-.852c-.568-.567-.852-1.253-.852-2.055s.284-1.487.852-2.055a2.801 2.801 0 0 1 2.055-.852 2.8 2.8 0 0 1 2.055.852c.567.567.852 1.253.852 2.055s-.283 1.487-.848 2.055zm-1.18-1.176c.242-.242.363-.535.363-.879s-.121-.637-.363-.879-.535-.363-.879-.363-.637.121-.879.363-.363.535-.363.879.121.637.363.879.535.363.879.363.637-.121.879-.363zm5.473-3.84h1.183l-6.31 11.625H23.94l6.336-11.625zm3.297 10.703a2.804 2.804 0 0 1-2.055.852 2.8 2.8 0 0 1-2.055-.852 2.799 2.799 0 0 1-.852-2.055c0-.808.284-1.493.852-2.059a2.805 2.805 0 0 1 2.055-.848 2.8 2.8 0 0 1 2.055.852c.567.567.852 1.253.852 2.055s-.285 1.488-.852 2.055zm-1.176-2.934c-.242-.242-.535-.363-.879-.363s-.637.121-.879.363-.363.535-.363.879.121.637.363.879.535.363.879.363.637-.121.879-.363.363-.535.363-.879-.121-.636-.363-.879z"/>
  </g>
  <g class="st1">
    <path class="st7" d="M45.204 35.469v-1.516c.701-.031 1.192-.078 1.473-.141.447-.099.811-.297 1.091-.594.192-.203.337-.474.436-.812a1.83 1.83 0 0 0 .086-.453h1.859v11.328h-2.281v-7.812h-2.664z"/>
  </g>
  <g class="st1">
    <path class="st7" d="M60.531 33.398c.581 1.016.871 2.458.871 4.328s-.291 3.31-.871 4.32c-.581 1.011-1.593 1.516-3.035 1.516-1.443 0-2.455-.505-3.035-1.516-.581-1.011-.871-2.45-.871-4.32s.29-3.312.871-4.328c.581-1.016 1.592-1.523 3.035-1.523 1.442 0 2.454.508 3.035 1.523zm-4.348 7.317c.213.69.651 1.035 1.312 1.035s1.095-.345 1.301-1.035c.206-.69.309-1.687.309-2.988 0-1.364-.103-2.375-.309-3.031-.206-.656-.64-.984-1.301-.984-.662 0-1.099.328-1.312.984-.214.656-.32 1.667-.32 3.031 0 1.301.106 2.297.32 2.988zM67.32 36.969a2.799 2.799 0 0 1-2.059.852 2.8 2.8 0 0 1-2.055-.852c-.568-.567-.852-1.253-.852-2.055s.284-1.487.852-2.055a2.801 2.801 0 0 1 2.055-.852 2.8 2.8 0 0 1 2.055.852c.567.567.852 1.253.852 2.055s-.283 1.487-.848 2.055zm-1.18-1.176c.242-.242.363-.535.363-.879s-.121-.637-.363-.879-.535-.363-.879-.363-.637.121-.879.363-.363.535-.363.879.121.637.363.879.535.363.879.363.637-.121.879-.363zm5.473-3.84h1.183l-6.31 11.625h-1.209l6.336-11.625zm3.297 10.703a2.804 2.804 0 0 1-2.055.852 2.8 2.8 0 0 1-2.055-.852 2.799 2.799 0 0 1-.852-2.055c0-.808.284-1.493.852-2.059a2.805 2.805 0 0 1 2.055-.848 2.8 2.8 0 0 1 2.055.852c.567.567.852 1.253.852 2.055s-.285 1.488-.852 2.055zm-1.176-2.933c-.242-.242-.535-.363-.879-.363s-.637.121-.879.363-.363.535-.363.879.121.637.363.879.535.363.879.363.637-.121.879-.363.363-.535.363-.879-.121-.637-.363-.879z"/>
  </g>
  <g class="st1">
    <path class="st7" d="M129.09 5.281c0-.183-.07-.383-.211-.602-.24-.354-.602-.531-1.086-.531-.724 0-1.24.406-1.547 1.219-.167.448-.281 1.109-.344 1.984.276-.328.596-.567.961-.719a3.24 3.24 0 0 1 1.25-.227c1.005 0 1.829.341 2.473 1.023.643.683.965 1.555.965 2.617 0 1.058-.315 1.989-.945 2.797-.63.808-1.609 1.211-2.938 1.211-1.427 0-2.479-.597-3.156-1.789-.526-.933-.789-2.136-.789-3.609 0-.864.036-1.567.109-2.109.13-.964.383-1.766.758-2.406.323-.547.746-.987 1.27-1.32s1.149-.5 1.879-.5c1.052 0 1.891.27 2.516.809s.977 1.257 1.055 2.152h-2.22zm-2.641 6.383c.328.386.745.578 1.25.578.495 0 .884-.187 1.168-.559.284-.372.426-.855.426-1.449 0-.661-.162-1.168-.484-1.52a1.55 1.55 0 0 0-1.188-.527c-.38 0-.716.114-1.008.344-.438.339-.656.886-.656 1.641 0 .609.164 1.106.492 1.492zM137.453 7.445a2.799 2.799 0 0 1-2.059.852 2.8 2.8 0 0 1-2.055-.852c-.568-.567-.852-1.253-.852-2.055s.284-1.487.852-2.055a2.801 2.801 0 0 1 2.055-.852 2.8 2.8 0 0 1 2.055.852c.567.567.852 1.253.852 2.055s-.283 1.488-.848 2.055zm-1.179-1.175c.242-.242.363-.535.363-.879s-.121-.637-.363-.879-.535-.363-.879-.363-.637.121-.879.363-.363.535-.363.879.121.637.363.879.535.363.879.363.636-.121.879-.363zm5.472-3.84h1.183l-6.31 11.625h-1.209l6.336-11.625zm3.297 10.703a2.804 2.804 0 0 1-2.055.852 2.8 2.8 0 0 1-2.055-.852 2.799 2.799 0 0 1-.852-2.055c0-.808.284-1.493.852-2.059a2.805 2.805 0 0 1 2.055-.848 2.8 2.8 0 0 1 2.055.852c.567.567.852 1.253.852 2.055s-.284 1.487-.852 2.055zm-1.176-2.934c-.242-.242-.535-.363-.879-.363s-.637.121-.879.363-.363.535-.363.879.121.637.363.879.535.363.879.363.637-.121.879-.363.363-.535.363-.879-.12-.637-.363-.879z"/>
  </g>
</svg>
