<svg xmlns="http://www.w3.org/2000/svg" width="40" height="40" viewBox="0 0 75 75">
  <style>
    .st1{fill:none;stroke:#929497;stroke-width:2;stroke-miterlimit:10}.st5{fill:#fbb34b}.st7{fill:#32b285}.st10{fill:#3c77ae}
  </style>
  <g id="Layer_1">
    <circle cx="37.5" cy="37.5" r="37.5" fill="#f2f3f4"/>
    <path class="st1" d="M34.757 48.994l1.603-4.24M25.597 35.7l5.635 1.293M42.673 54.448l-2.202-9.05M43.04 32.522l5.959-5.624M52.844 37.479l-7.382 1.4M31.318 20.972l5.278 11.405M30.727 62.362l9.786-6.297M48.092 49.836l-4.146 4.09M51.13 26.036l-8.614-13.204M52.718 10.35l-7.652 1.861M30.419 20.334l9.748-9.026M23.739 34.773l-8.083-7.758M15.43 23.374l2.841-6.74M13.147 45.95l6.616 2.278M21.667 49.016l3.509 9.688M21.924 47.702l10.298 1.909M27.692 62.408l6.241-11.828M13.883 42.476l6.743-6.946M55.624 36.92l8.163 4.309M55.63 36.406l7.241-6.522M54.101 32.693l-1.33-4.25M49.513 49.412l6.04 3.698"/>
    <circle class="st5" cx="14.148" cy="25.148" r="4.354"/>
    <ellipse transform="rotate(-13.674 19.53 16.329)" class="st5" cx="19.529" cy="16.328" rx="3.032" ry="2.932"/>
    <ellipse transform="rotate(-13.68 30.413 20.33)" class="st5" cx="30.42" cy="20.333" rx="2.561" ry="2.497"/>
    <linearGradient id="SVGID_1_" gradientUnits="userSpaceOnUse" x1="22.853" y1="36.755" x2="22.853" y2="26.769" gradientTransform="rotate(10.929 6.968 31.612)">
      <stop offset="0" stop-color="#34b386"/>
      <stop offset="1" stop-color="#ffb54a"/>
    </linearGradient>
    <circle cx="22.538" cy="34.772" r="4.993" fill="url(#SVGID_1_)"/>
    <path class="st5" d="M56.224 10.135c.377 1.546-.631 3.118-2.256 3.514-1.623.395-3.243-.538-3.619-2.084-.377-1.546.635-3.119 2.257-3.514 1.625-.396 3.242.538 3.618 2.084z"/>
    <linearGradient id="SVGID_2_" gradientUnits="userSpaceOnUse" x1="51.02" y1="33.011" x2="57.422" y2="33.011" gradientTransform="matrix(.9989 1.0412 -1.0518 1.0092 33.185 -64.712)">
      <stop offset="0" stop-color="#ffb54a"/>
      <stop offset="1" stop-color="#3c76ae"/>
    </linearGradient>
    <path d="M55.823 28.392c-1.859 1.785-4.798 1.739-6.565-.102-1.767-1.841-1.69-4.779.17-6.563 1.859-1.784 4.797-1.739 6.565.101 1.764 1.84 1.689 4.779-.17 6.564z" fill="url(#SVGID_2_)"/>
    <ellipse transform="rotate(-13.663 41.112 11.721)" class="st5" cx="41.109" cy="11.725" rx="5.315" ry="5.249"/>
    <path d="M38.662 37.729l5.101-5.977a7.862 7.862 0 0 1 .879 11.079c-.94 1.099-1.989 1.82-3.353 2.305l-2.627-7.407z" fill="#3c76ae"/>
    <path d="M38.662 37.729l-7.729-1.427a7.858 7.858 0 0 1 9.156-6.299c1.424.262 2.573.811 3.673 1.75l-5.1 5.976z" fill="#ffb54a"/>
    <path d="M38.662 37.729l2.627 7.407a7.86 7.86 0 0 1-10.035-4.778c-.482-1.362-.582-2.635-.32-4.056l7.728 1.427z" fill="#34b386"/>
    <circle class="st7" cx="11.001" cy="45.256" r="5.506"/>
    <linearGradient id="SVGID_3_" gradientUnits="userSpaceOnUse" x1="34.977" y1="56.051" x2="43.724" y2="56.051" gradientTransform="rotate(-16.137 41.243 43.047)">
      <stop offset=".001" stop-color="#34b386"/>
      <stop offset="1" stop-color="#3c76ae"/>
    </linearGradient>
    <path d="M47.24 54.85c.688 2.376-.635 4.849-2.954 5.52-2.32.672-4.759-.713-5.448-3.09-.688-2.376.635-4.849 2.956-5.52 2.32-.672 4.759.713 5.446 3.09z" fill="url(#SVGID_3_)"/>
    <ellipse transform="rotate(-13.663 26.09 63.506)" class="st7" cx="26.08" cy="63.499" rx="5.089" ry="5.026"/>
    <circle class="st7" cx="21.38" cy="47.834" r="3.009"/>
    <circle class="st7" cx="33.932" cy="50.579" r="2.625"/>
    <ellipse transform="rotate(-13.674 65.527 40.805)" class="st10" cx="65.528" cy="40.806" rx="3.969" ry="4.098"/>
    <circle class="st10" cx="54.578" cy="35.87" r="3.857"/>
    <circle class="st10" cx="59.519" cy="53.4" r="5.506"/>
    <circle class="st10" cx="48.5" cy="49.738" r="2.433"/>
    <circle class="st10" cx="65.173" cy="29.324" r="3.009"/>
  </g>
</svg>
