<svg id="Layer_1" xmlns="http://www.w3.org/2000/svg" width="165.955" height="25.053" viewBox="0 0 165.955 25.053">
  <style>
    .st0{fill:#099f02}
  </style>
  <path class="st0" d="M18.394 23.865c-1.152.576-3.456 1.152-6.407 1.152C5.147 25.017 0 20.697 0 12.742 0 5.147 5.147 0 12.67 0c3.023 0 4.931.648 5.759 1.08l-.756 2.556c-1.188-.576-2.88-1.008-4.896-1.008-5.688 0-9.467 3.636-9.467 10.007 0 5.939 3.419 9.755 9.323 9.755 1.908 0 3.852-.396 5.111-1.008l.65 2.483zM22.319 24.657V.396h3.419l7.775 12.274c1.8 2.843 3.204 5.399 4.355 7.883l.072-.036c-.288-3.239-.36-6.191-.36-9.971V.396h2.952v24.261h-3.167l-7.703-12.311c-1.692-2.7-3.312-5.471-4.535-8.099l-.108.036c.18 3.06.252 5.976.252 10.007v10.367h-2.952zM46.007.684c1.512-.252 3.491-.468 6.011-.468 3.095 0 5.363.72 6.803 2.016 1.332 1.152 2.124 2.916 2.124 5.076 0 2.195-.648 3.923-1.872 5.183-1.656 1.764-4.355 2.664-7.416 2.664-.936 0-1.799-.036-2.52-.216v9.719h-3.131V.684zm3.132 11.698c.684.18 1.548.252 2.592.252 3.779 0 6.083-1.836 6.083-5.184 0-3.204-2.268-4.751-5.723-4.751-1.368 0-2.412.108-2.952.252v9.431zM65.159 24.657V.396h3.419l7.775 12.274c1.8 2.843 3.204 5.399 4.355 7.883l.072-.036c-.288-3.239-.36-6.191-.36-9.971V.396h2.952v24.261h-3.167l-7.703-12.311c-1.692-2.7-3.312-5.471-4.535-8.099l-.108.036c.18 3.06.252 5.976.252 10.007v10.367h-2.952zM95.362 24.657v-1.944l2.484-2.412c5.975-5.688 8.675-8.711 8.711-12.238 0-2.376-1.152-4.572-4.644-4.572-2.124 0-3.887 1.08-4.967 1.98l-1.008-2.232c1.62-1.368 3.923-2.375 6.623-2.375 5.04 0 7.163 3.456 7.163 6.803 0 4.319-3.131 7.811-8.063 12.562l-1.872 1.728v.072H110.3v2.627H95.362zM129.38 12.706c0 7.955-2.952 12.347-8.135 12.347-4.571 0-7.667-4.284-7.739-12.022 0-7.847 3.383-12.167 8.135-12.167 4.931 0 7.739 4.391 7.739 11.842zm-12.707.36c0 6.083 1.872 9.539 4.751 9.539 3.24 0 4.788-3.779 4.788-9.755 0-5.759-1.476-9.539-4.751-9.539-2.772.001-4.788 3.384-4.788 9.755zM139.172 4.211h-.072l-4.067 2.196-.612-2.412 5.111-2.735h2.7v23.397h-3.06V4.211zM165.955 1.26v2.088l-10.187 21.309h-3.275L162.644 3.96v-.073h-11.447V1.26h14.758z"/>
</svg>
