<svg id="svg2" xmlns="http://www.w3.org/2000/svg" viewBox="0 0 197.73 42.355">
  <style>
    .st0{fill:#ef4135}
  </style>
  <g id="layer1" transform="translate(-149.467 -308.885)">
    <g id="g2416" transform="matrix(1.75769 0 0 1.75769 -1372.641 -893.15)">
      <path id="path2384" class="st0" d="M876.795 686.283v-2.407h-10.822v2.407h3.709v10.466h3.352v-10.466h3.761zm41.713 10.466c-.089-.855-.144-1.515-.144-1.961v-4.333c0-1.8-1.318-2.923-3.066-2.923-1.267.017-2.371.588-2.978 1.586-.374-.998-1.479-1.533-2.514-1.533-1.248 0-2.3.41-2.89 1.533l-.07-1.337h-3.066v8.968h3.173v-5.401c0-.285-.125-1.819 1.338-1.819.98 0 1.213.874 1.213 1.729v5.491h3.155v-5.401c0-.285-.125-1.819 1.337-1.819.981 0 1.212.874 1.212 1.729v5.491h3.3zm-15.456-6.329v-2.728c-1.373-.019-2.426.428-2.835 1.801l-.071-1.712h-3.174c.071.731.071 1.712.071 2.3v6.668h3.174v-3.922c0-1.479.428-2.39 2.176-2.425.213 0 .427 0 .659.018m20.925-2.888c-2.924 0-4.832 1.622-4.832 4.706 0 3.174 1.926 4.761 4.832 4.761 2.906 0 4.831-1.587 4.831-4.761 0-3.084-1.908-4.706-4.831-4.706m0 1.89c1.337 0 1.587 1.372 1.587 2.781 0 1.641-.286 2.924-1.587 2.924-1.302 0-1.587-1.283-1.587-2.924 0-1.427.25-2.799 1.587-2.799v.018zm-37.407 7.327a19.093 19.093 0 0 1-.125-1.961v-4.333c0-1.8-1.337-2.923-3.084-2.923-.535 0-1.053.089-1.498.285-.41.196-.802.48-1.141.909v-4.851h-3.174v12.873h3.174v-5.401c0-.285-.125-1.819 1.337-1.819.998 0 1.213.874 1.213 1.729v5.491h3.298v.001zm9.7-3.869c.018-3.227-.945-5.348-4.529-5.348-2.835 0-4.527 1.747-4.527 4.475 0 3.353 1.193 4.992 4.688 4.992 1.087 0 2.05-.25 2.781-.749.785-.517 1.427-1.337 1.516-2.461h-2.996c-.089.821-.569 1.373-1.515 1.373-1.213 0-1.462-1.159-1.444-2.282h6.026zm-3.031-1.728h-2.941c.07-.945.284-1.908 1.462-1.961.534-.019.892.231 1.123.624.25.374.356.873.356 1.354v-.017z"/>
      <path id="path2386" class="st0" d="M978.468 690.26v-2.729c-1.373-.018-2.425.429-2.835 1.802l-.071-1.552h-3.175c.071.731.071 1.711.071 2.301v6.668h3.175v-3.924c0-1.479.428-2.549 2.175-2.585.214 0 .428 0 .66.019m-16.509 6.49c-.089-.857-.126-1.463-.126-1.962v-4.333c0-1.801-1.337-2.924-3.084-2.924-.534 0-1.018.089-1.462.285-.41.196-.838.482-1.177.91v-4.85h-3.175v12.873h3.175v-5.402c0-.286-.124-1.819 1.337-1.819.999 0 1.213.874 1.213 1.73v5.491h3.298v.001zm-9.8-2.675c0-1.391-.732-2.068-1.748-2.442-1.908-.679-3.335-.713-3.335-1.428 0-.533.303-.837.819-.837.41 0 .679.106.857.285.16.179.23.463.23.856h3.015c-.071-2.354-1.926-2.979-3.958-2.979-1.73 0-3.977.606-3.977 2.765 0 3.138 5.08 2.317 5.08 3.994 0 .588-.48.854-1.103.854a.991.991 0 0 1-.82-.428 1.143 1.143 0 0 1-.196-.873h-3.03c-.056 2.674 1.925 3.156 4.119 3.156 2.049.002 4.047-.747 4.047-2.923m19.517-1.194c.019-3.228-.946-5.35-4.529-5.35-2.835 0-4.528 1.747-4.528 4.476 0 3.352 1.193 4.993 4.689 4.993 1.087 0 2.05-.249 2.78-.749.784-.518 1.427-1.338 1.516-2.461h-2.995c-.09.819-.57 1.372-1.516 1.372-1.212 0-1.462-1.158-1.445-2.281h6.028zm-3.031-1.729h-2.941c.07-.946.286-1.908 1.462-1.962.534-.018.891.232 1.123.624.25.375.356.874.356 1.355v-.017zm-25.462-3.371h-3.175v8.97h3.175v-8.97zm-4.162-1.533l.749-2.371h-8.527v12.873h3.351v-5.064h2.708l.747-2.371h-3.455v-3.066h4.427v-.001zm4.16-.007l.754-2.367h-3.137l-.752 2.367h3.135z"/>
      <path id="rect2388" d="M895.094 700.521h1.164v7.298h-1.164z"/>
      <path id="path2390" d="M973.456 707.944c-2.431 0-4.25-1.348-4.25-3.718 0-2.399 2.041-3.857 4.326-3.857.817 0 1.716.268 2.29.64l-.597.71c-.516-.284-1.071-.473-1.679-.478-.873-.007-1.732.256-2.313.892-.474.52-.738 1.192-.738 2.135 0 1.024.316 1.586.866 2.13.557.551 1.41.702 2.247.702.668 0 1.329-.248 1.847-.521l.567.683c-.592.396-1.598.682-2.566.682"/>
      <path id="rect2392" d="M961.216 700.521h1.166v7.298h-1.166z"/>
      <path id="polygon2394" d="M934.9 701.394h-2.719v6.425h-1.137v-6.425h-2.698v-.873h6.681z"/>
      <path id="path2396" d="M874.266 707.56c-.556.276-1.252.411-2.057.411-1.033 0-2.081-.229-2.953-.658l.483-.827a5.503 5.503 0 0 0 2.546.612c.583 0 .969-.101 1.327-.296.417-.228.642-.54.642-.943 0-.609-.468-.99-1.596-1.253l-1.188-.276c-1.181-.276-1.924-1.014-1.924-1.878 0-1.245 1.223-2.126 2.967-2.126 1.017 0 2.104.254 2.8.695l-.525.762a4.526 4.526 0 0 0-2.214-.585c-1.037 0-1.756.403-1.756 1.087 0 .527.438.841 1.459 1.086l1.097.263c.623.15 1.255.413 1.615.74.343.313.567.815.567 1.304 0 .747-.476 1.474-1.29 1.882"/>
      <path id="path2398" d="M921.015 707.819l-2.899-3.893c-.544-.729-1.462-2.152-1.462-2.152s.103 1.232.111 2.312l.027 3.733h-1.159v-7.299h1.381l2.93 3.974c.57.775 1.364 2.002 1.364 2.002s-.173-1.346-.182-2.313l-.026-3.663h1.148v7.299h-1.233z"/>
      <path id="rect2400" d="M941.009 700.521h1.165v7.298h-1.165z"/>
      <path id="polygon2402" d="M954.865 701.379h-4.003v2.16h3.386v.86h-3.386v3.42h-1.164v-7.298h5.321z"/>
      <path id="polygon2404" d="M903.781 707.819v-7.298h5.381l-.155.873h-4.061v2.174h3.462v.872h-3.448v2.464h4.347v.915z"/>
      <path id="path2406" d="M886.097 707.944c-2.432 0-4.25-1.348-4.25-3.718 0-2.399 2.041-3.857 4.325-3.857.817 0 1.717.268 2.29.64l-.596.71c-.515-.284-1.072-.473-1.679-.478-.873-.007-1.733.256-2.314.892-.474.52-.738 1.192-.738 2.135 0 1.024.316 1.586.866 2.13.558.551 1.41.702 2.247.702.668 0 1.329-.248 1.847-.521l.566.683c-.591.396-1.596.682-2.564.682"/>
    </g>
  </g>
</svg>
