<svg xmlns="http://www.w3.org/2000/svg" width="568.905" height="265.204" viewBox="59.816 237.682 568.905 265.204"><g fill="none" stroke-width="7.5" stroke-linecap="round" stroke-linejoin="round" stroke-miterlimit="10" stroke-opacity=".8"><path stroke="#101010" d="M63.566 426.579l1.613-1.985 1.616-1.969 1.609-1.953 1.613-1.938 1.614-1.923 1.615-1.895 1.609-1.88 1.615-1.854 1.615-1.828 1.615-1.803 1.609-1.765 1.614-1.74 1.615-1.708 1.609-1.672 1.615-1.637 1.615-1.593 1.615-1.558 1.609-1.516 1.613-1.468 1.616-1.428 1.609-1.381 1.613-1.333 1.616-1.28 1.613-1.234 1.611-1.184 1.613-1.13 1.616-1.077 1.613-1.021 1.611-.964 1.613-.907 1.615-.848 1.609-.792 1.615-.733 1.615-.666 1.614-.611 1.609-.552 1.615-.484 1.615-.421 1.615-.36 1.609-.296 1.615-.234 1.614-.167 1.609-.104 1.615-.042 1.615.026 1.613.088 1.611.158 1.613.213 1.616.285 1.614.344 1.61.406 1.613.475 1.616.531 1.609.6 1.613.655 1.616.72 1.614.775 1.61.833 1.613.896 1.615.953 1.615 1.006 1.609 1.062 1.615 1.12 1.615 1.172 1.609 1.219 1.615 1.276 1.615 1.316 1.615 1.37 1.609 1.417 1.615 1.465 1.615 1.504 1.609 1.546 1.615 1.584 1.613 1.631 1.616 1.661 1.609 1.697 1.613 1.729 1.616 1.766 1.613 1.792 1.61 1.822 1.613 1.85 1.616 1.875 1.609 1.891 1.613 1.917 1.616 1.938 1.613 1.946 1.609 1.964 1.615 1.98 1.614 1.989 1.615 1.994 1.609 2.006 3.229 4.021 1.609 2.009 3.229 4.011 1.615 2 1.609 1.989 1.615 1.985 1.613 1.969 1.616 1.953 1.609 1.938 1.613 1.922 1.616 1.9 1.609 1.88 1.613 1.854 1.616 1.828 1.613 1.803 1.611 1.771 1.613 1.74 1.616 1.708 1.609 1.672 1.613 1.635 1.615 1.6 1.615 1.558 1.609 1.515 1.615 1.475 1.615 1.427 1.615 1.38 1.609 1.334 1.615 1.286 1.615 1.234 1.609 1.188 1.615 1.13 1.615 1.079 1.615 1.02 1.609.97 1.614.906 1.616.854 1.613.792 1.611.733 1.613.674 1.616.609 1.609.552 1.613.489 1.616.421 1.613.365 1.611.298 1.613.233 1.615.173 1.615.103 1.609.043 1.614-.021 1.615-.088 1.609-.151 1.615-.214 1.615-.28 1.615-.345 1.609-.405 1.614-.47 1.615-.53 1.615-.595 1.609-.656 1.615-.713 1.613-.776 1.611-.833 1.613-.896 1.616-.946 1.613-1.007 1.61-1.062 1.613-1.115 1.616-1.17 1.609-1.221 1.613-1.271 1.616-1.317 1.613-1.369 1.61-1.417 1.613-1.459 1.615-1.504 1.614-1.543 1.609-1.588 1.614-1.625 1.615-1.662 1.609-1.693 1.614-1.732 1.615-1.761 1.614-1.792 1.609-1.823 1.614-1.849 1.615-1.87 1.613-1.896 1.61-1.911 1.613-1.938 1.616-1.948 1.609-1.964 1.613-1.979 1.616-1.989 1.613-1.995 1.61-2.005 1.613-2.006 3.23-4.021 1.609-2.011 1.613-2.005 1.615-2 1.609-1.989 1.614-1.984 1.615-1.969 1.614-1.952 1.609-1.942 1.614-1.918 1.615-1.906 1.609-1.875 1.614-1.858 1.615-1.829 1.614-1.802 1.609-1.771 1.614-1.745 1.613-1.708 1.616-1.672 1.609-1.637 1.613-1.599 1.616-1.557 1.609-1.521 1.613-1.475 1.616-1.427 1.613-1.387 1.61-1.333 1.613-1.291 1.616-1.234 1.613-1.187 1.609-1.131 1.614-1.084 1.615-1.02 1.609-.97 1.614-.911 1.615-.854 1.614-.799 1.609-.732 1.614-.672 1.615-.615 1.614-.552 1.609-.489 1.615-.427 1.614-.365 1.609-.303 1.613-.235 1.616-.17 1.613-.109 1.61-.048 1.613.021 1.616.088 1.613.147 1.61.214 1.613.279 1.616.34 1.609.405 1.613.47 1.615.526 1.614.593 1.609.651 1.615.714 1.614.775 1.609.828 1.614.891 1.615.948 1.614 1.005 1.609 1.062 1.614 1.115 1.615 1.166 1.614 1.219 1.609 1.268 1.615 1.316 1.613 1.369 1.61 1.412 1.613 1.458 1.616 1.507 1.613 1.54 1.61 1.584 1.613 1.625 1.616 1.661 1.613 1.693 1.61 1.729 1.614 1.765 1.615 1.792 1.609 1.817 1.613 1.85 1.615 1.87 1.614 1.892 1.609 1.916 1.615 1.933 1.614 1.947 1.614 1.969 1.609 1.974 1.615 1.989 1.614 1.995 1.609 2.005 1.615 2.006 3.229 4.021 1.609 2.011 1.613 2.006 1.616 2 1.609 1.989 1.613 1.983 1.616 1.97 1.613 1.957 1.61 1.938 1.613 1.921"/><path stroke="#EB0000" d="M103.102 426.579l1.613-1.985 1.616-1.969 1.609-1.953 1.613-1.938 1.616-1.923 1.609-1.895 1.613-1.88 1.616-1.854 1.613-1.828 1.61-1.803 1.613-1.765 1.616-1.74 1.609-1.708 1.613-1.672 1.615-1.637 1.615-1.593 1.609-1.558 1.614-1.516 1.615-1.468 1.615-1.428 1.609-1.381 1.615-1.333 1.615-1.28 1.609-1.234 1.614-1.184 1.615-1.13 1.615-1.077 1.609-1.021 1.613-.964 1.616-.907 1.613-.848 1.61-.792 1.613-.733 1.616-.666 1.609-.611 1.613-.552 1.616-.484 1.613-.421 1.61-.36 1.613-.296 1.615-.234 1.615-.167 1.609-.104 1.615-.042 1.615.026 1.609.088 1.614.158 1.615.213 1.615.285 1.609.344 1.615.406 1.615.475 1.615.531 1.609.6 1.615.655 1.613.72 1.611.775 1.613.833 1.616.896 1.613.953 1.61 1.006 1.614 1.062 1.616 1.12 1.609 1.172 1.613 1.219 1.616 1.276 1.613 1.316 1.611 1.37 1.613 1.417 1.615 1.465 1.614 1.504 1.609 1.546 1.615 1.584 1.615 1.631 1.609 1.661 1.615 1.697 1.615 1.729 1.614 1.766 1.609 1.792 1.615 1.822 1.615 1.85 1.613 1.875 1.611 1.891 1.613 1.917 1.616 1.938 1.609 1.946 1.613 1.964 1.616 1.98 1.613 1.989 1.611 1.994 1.613 2.006 3.23 4.021 1.609 2.009 3.228 4.011 1.609 2 1.615 1.989 1.615 1.985 1.615 1.969 1.609 1.953 1.614 1.938 1.615 1.922 1.609 1.9 1.615 1.88 1.615 1.854 1.615 1.828 1.609 1.803 1.614 1.771 1.614 1.74 1.616 1.708 1.609 1.672 1.613 1.635 1.616 1.6 1.609 1.558 1.613 1.515 1.616 1.475 1.613 1.427 1.611 1.38 1.613 1.334 1.616 1.286 1.613 1.234 1.611 1.188 1.613 1.13 1.614 1.079 1.609 1.02 1.615.97 1.615.906 1.615.854 1.609.792 1.615.733 1.614.674 1.615.609 1.609.552 1.614.489 1.614.421 1.609.365 1.614.298 1.615.233 1.613.173 1.611.103 1.613.043 1.615-.021 1.614-.088 1.61-.151 1.613-.214 1.616-.28 1.609-.345 1.613-.405 1.614-.47 1.615-.53 1.609-.595 1.614-.656 1.614-.713 1.609-.776 1.615-.833 1.614-.896 1.615-.946 1.609-1.007 1.614-1.062 1.614-1.115 1.615-1.17 1.609-1.221 1.614-1.271 1.613-1.317 1.611-1.369 1.613-1.417 1.615-1.459 1.613-1.504 1.611-1.543 1.613-1.588 1.616-1.625 1.613-1.662 1.61-1.693 1.613-1.732 1.616-1.761 1.609-1.792 1.613-1.823 1.614-1.849 1.615-1.87 1.609-1.896 1.614-1.911 1.614-1.938 1.615-1.948 1.609-1.964 1.614-1.979 1.615-1.989 1.609-1.995 3.229-4.012 1.613-2.011 1.611-2.011 1.613-2.011 1.616-2.005 1.613-2 1.61-1.989 1.613-1.984 1.616-1.97 1.609-1.951 1.613-1.943 1.616-1.917 1.613-1.906 1.61-1.875 1.613-1.858 1.614-1.83 1.609-1.801 1.615-1.771 1.614-1.746 1.615-1.708 1.609-1.672 1.614-1.636 1.614-1.599 1.615-1.558 1.609-1.52 1.614-1.475 1.615-1.427 1.609-1.387 1.614-1.333 1.613-1.291 1.616-1.234 1.609-1.188 1.613-1.131 1.616-1.084 1.613-1.02 1.61-.969 1.613-.911 1.616-.854 1.609-.798 1.613-.734 1.616-.672 1.613-.614 1.609-.552 1.614-.49 1.614-.426 1.615-.365 1.609-.303 1.614-.234 1.615-.172 1.609-.109 1.614-.047 1.614.021 1.615.088 1.609.146 1.614.213 1.615.28 1.609.34 1.613.405 1.615.469 1.613.527 1.611.594 1.613.65 1.616.713 1.613.776 1.61.827 1.613.891 1.616.949 1.609 1.005 1.613 1.062 1.614 1.114 1.615 1.167 1.609 1.219 1.614 1.267 1.615 1.317 1.614 1.37 1.609 1.411 1.614 1.458 1.615 1.506 1.609 1.54 1.614 1.584 1.614 1.626 1.615 1.661 1.609 1.693 1.614 1.728 1.613 1.766 1.616 1.792 1.609 1.817 1.613 1.85 1.616 1.87 1.609 1.891 1.613 1.916 1.616 1.934 1.613 1.946 1.61 1.97 1.613 1.974 1.616 1.989 1.613 1.994 1.609 2.006 1.614 2.005 1.615 2.011 1.609 2.011 1.614 2.011 1.615 2.005 1.614 2 1.609 1.99 1.614 1.983 1.615 1.97 1.609 1.957 1.614 1.938 1.614 1.92"/><path stroke="#EBAB48" d="M142.638 426.579l1.615-1.985 1.609-1.969 1.615-1.953 1.615-1.938 1.615-1.923 1.609-1.895 1.614-1.88 1.615-1.854 1.609-1.828 1.615-1.803 1.613-1.765 1.616-1.74 1.609-1.708 1.613-1.672 1.616-1.637 1.609-1.593 1.613-1.558 1.616-1.516 1.613-1.468 1.611-1.428 1.613-1.381 1.616-1.333 1.613-1.28 1.611-1.234 1.613-1.184 1.615-1.13 1.609-1.077 1.615-1.021 1.614-.964 1.615-.907 1.609-.848 1.615-.792 1.615-.733 1.615-.666 1.609-.611 1.614-.552 1.615-.484 1.609-.421 1.613-.36 1.616-.296 1.613-.234 1.611-.167 1.613-.104 1.616-.042 1.614.026 1.61.088 1.613.158 1.616.213 1.609.285 1.613.344 1.615.406 1.615.475 1.609.531 1.614.6 1.615.655 1.609.72 1.615.775 1.615.833 1.615.896 1.609.953 1.614 1.006 1.615 1.062 1.615 1.12 1.609 1.172 1.615 1.219 1.613 1.276 1.611 1.316 1.613 1.37 1.616 1.417 1.613 1.465 1.611 1.504 1.613 1.546 1.616 1.584 1.613 1.631 1.61 1.661 1.614 1.697 1.616 1.729 1.609 1.766 1.613 1.792 1.615 1.822 1.615 1.85 1.609 1.875 1.615 1.891 1.614 1.917 1.615 1.938 1.609 1.946 1.615 1.964 1.615 1.98 1.609 1.989 1.615 1.994 1.614 2.006 1.614 2.011 1.61 2.011 1.613 2.009 3.231 4.011 1.609 2 1.613 1.989 1.616 1.985 1.609 1.969 1.613 1.953 1.616 1.938 1.613 1.922 1.611 1.9 1.613 1.88 1.615 1.854 1.609 1.828 1.614 1.803 1.615 1.771 1.614 1.74 1.609 1.708 1.614 1.672 1.615 1.635 1.614 1.6 1.609 1.558 1.615 1.515 1.614 1.475 1.609 1.427 1.614 1.38 1.614 1.334 1.615 1.286 1.609 1.234 1.613 1.188 1.616 1.13 1.613 1.079 1.61 1.02 1.614.97 1.615.906 1.609.854 1.613.792 1.616.733 1.613.674 1.609.609 1.615.552 1.614.489 1.614.421 1.609.365 1.615.298 1.614.233 1.609.173 1.614.103 1.615.043 1.614-.021 1.609-.088 1.615-.151 1.614-.214 1.609-.28 1.613-.345 1.616-.405 1.613-.47 1.61-.53 1.613-.595 1.616-.656 1.613-.713 1.61-.776 1.614-.833 1.615-.896 1.609-.946 1.613-1.007 1.615-1.062 1.614-1.115 1.609-1.17 1.615-1.221 1.614-1.271 1.614-1.317 1.609-1.369 1.615-1.417 1.614-1.459 1.609-1.504 1.615-1.543 1.614-1.588 1.614-1.625 1.609-1.662 1.615-1.693 1.613-1.732 1.616-1.761 1.609-1.792 1.613-1.823 1.615-1.849 1.609-1.87 1.613-1.896 1.616-1.911 1.613-1.938 1.611-1.948 1.613-1.964 1.615-1.979 1.613-1.989 1.609-1.995 3.229-4.011 1.609-2.011 3.229-4.021 1.614-2.005 1.609-2 1.615-1.989 1.614-1.984 1.609-1.969 1.615-1.952 1.614-1.942 1.613-1.918 1.61-1.906 1.613-1.875 1.616-1.858 1.613-1.829 1.611-1.802 1.613-1.771 1.615-1.745 1.609-1.708 1.613-1.672 1.616-1.637 1.613-1.599 1.611-1.557 1.613-1.521 1.614-1.475 1.614-1.427 1.609-1.387 1.615-1.333 1.614-1.291 1.609-1.234 1.615-1.187 1.614-1.131 1.614-1.084 1.609-1.02 1.615-.97 1.614-.911 1.615-.854 1.609-.799 1.613-.732 1.615-.672 1.609-.615 1.613-.552 1.616-.489 1.613-.427 1.611-.365 1.613-.303 1.615-.235 1.609-.17 1.613-.109 1.616-.048 1.613.021 1.609.088 1.615.147 1.614.214 1.615.279 1.609.34 1.614.405 1.614.47 1.609.526 1.615.593 1.614.651 1.614.714 1.609.775 1.615.828 1.614.891 1.613.948 1.611 1.005 1.613 1.062 1.616 1.115 1.609 1.166 1.613 1.219 1.615 1.268 1.613 1.316 1.611 1.369 1.613 1.412 1.615 1.458 1.614 1.507 1.61 1.54 1.613 1.584 1.614 1.625 1.609 1.661 1.615 1.693 1.614 1.729 1.615 1.765 1.609 1.792 1.614 1.817 1.614 1.85 1.615 1.87 1.609 1.892 1.614 1.916 1.615 1.933 1.608 1.947 1.615 1.969 1.613 1.974 1.616 1.989 1.609 1.995 3.229 4.011 1.609 2.01 3.229 4.021 1.613 2.006 1.611 2 1.613 1.989 1.616 1.983 1.613 1.97 1.609 1.957 1.614 1.938 1.614 1.921"/></g><text transform="translate(190.231 299.504)" font-family="'Helvetica'" font-size="72">CoreFlow</text></svg>