<svg id="Layer_1" xmlns="http://www.w3.org/2000/svg" width="82.824" height="50" viewBox="0 -0.001 82.824 50">
  <style>
    .st0{fill:#ed1c24}.st1{fill:#00377b}
  </style>
  <path class="st1" d="M16.367 47.843c0 .52.021 1.043.035 1.565l-.058.091c-.794.261-1.51.499-2.677.499a5.638 5.638 0 0 1-1.521-.192c-.443-.126-1.272-.397-1.942-1.26-.511-.656-.795-1.555-.795-2.621 0-.758.172-1.681.578-2.394.9-1.521 2.317-1.884 3.611-1.884 1.179 0 1.938.317 2.415.521l.057.067c-.091.683-.112.861-.169 1.566l-.091.035c-.534-.354-1.045-.695-1.906-.695-1.43 0-2.394.978-2.394 2.771 0 .853.318 2.53 2.073 2.53.319 0 .545-.059.852-.124.023-1.032.013-1.304-.089-2.418l.058-.068 1.926-.032.057.068c-.01.58-.021 1.147-.021 1.715l.001.26M28.463 49.824c-.865 0-1.048.012-1.763.032l-.066-.064c0-.368.01-.749.01-1.116 0-.41-.01-1.894-.031-2.249-.031-.39-.088-1.029-.681-1.029-.346 0-.605.184-.831.335a88.94 88.94 0 0 0 .084 4.025l-.063.065c-.866 0-1.03 0-1.808.032l-.067-.064a111.3 111.3 0 0 0 .023-2.077c0-1.766-.067-2.447-.152-3.39l.064-.074c.812-.106.996-.141 1.829-.315l.109.076-.02.595c.498-.293 1.069-.64 1.729-.64.39 0 1.007.088 1.341.65.271.443.282.942.292 1.98v.845c.022 1.061.022 1.362.075 2.315l-.074.068M35.063 46.956c0-.422 0-2.174-1.513-2.769-.477-.186-1.039-.208-1.319-.208-1.884 0-2.945 1.007-2.945 2.996 0 .694.109 1.398.51 1.982.279.42.81 1.005 2.359 1.005 2.292.002 2.908-1.381 2.908-3.006m-1.87-.01c0 .887-.121 1.872-1.017 1.872a.878.878 0 0 1-.605-.247c-.186-.187-.392-.555-.392-1.604 0-.315 0-1.007.216-1.386.165-.292.443-.487.792-.487a.91.91 0 0 1 .693.336c.257.315.313.93.313 1.516zM44.264 49.824c-.758 0-.995 0-1.808.032l-.066-.064c.012-.325.021-1.938.032-2.308 0-.206.014-.409.014-.614 0-.931-.099-1.517-.716-1.517-.323 0-.562.152-.747.27l.01 1.096v.399c.013 1.311.022 1.611.086 2.642l-.064.064c-.747 0-.975 0-1.795.042l-.066-.072c.023-.879.033-1.116.033-2.685 0-.933-.022-1.7-.692-1.7-.271 0-.521.142-.748.304.013 1.881.022 2.379.098 4.048l-.064.064c-.899 0-1.137.012-1.831.032l-.051-.063c0-.617.009-1.247.009-1.863 0-2.144-.064-2.739-.15-3.605l.066-.074c.755-.105.994-.15 1.836-.314l.101.098v.608c.497-.348.963-.673 1.676-.673.867 0 1.138.455 1.288.706.434-.306 1.029-.706 1.917-.706.173 0 .918 0 1.339.617.316.455.304 1.126.295 1.852v.81c0 1.225.009 1.504.062 2.512l-.064.062M50.16 48.235c-.411.214-.899.463-1.689.463-.649 0-1.093-.207-1.352-.596-.163-.228-.194-.443-.237-.659l3.495-.066.065-.074c-.011-.529-.022-1.07-.173-1.612-.379-1.276-1.212-1.537-1.581-1.624a2.808 2.808 0 0 0-.768-.099c-1.701 0-2.825 1.116-2.825 2.988 0 .511.088 1.042.262 1.419.625 1.461 2.1 1.589 2.876 1.589.9 0 1.289-.161 1.862-.39l.066-.085.073-1.223-.074-.031m-3.278-1.938c.032-.336.107-.79.519-1.049.13-.087.28-.12.434-.12.355 0 .572.186.691.379.153.238.163.497.163.747l-1.807.043zM57.08 49.425c-.127.075-.258.15-.389.216-.412.208-1.06.358-1.754.358-2.422 0-3.666-1.819-3.666-3.951 0-2 1.232-4.015 3.729-4.015 1.096 0 1.603.262 2.036.477l.053.085a2.926 2.926 0 0 0-.087.575l-.072.054c-.315-.217-.865-.595-1.927-.595-2.155 0-2.988 1.838-2.988 3.418 0 1.884 1.212 3.344 3.043 3.344.4 0 .802-.074 1.2-.238.411-.172.596-.323.843-.528l.089.054a2.808 2.808 0 0 0-.055.639l-.055.107M58.088 45.104l.084.044c.488-.25.824-.411 1.539-.411.755 0 .995.366 1.06.499.074.172.086.421.098.713v.142l-.952.141c-.604.097-1.374.226-1.861.659-.366.323-.561.811-.561 1.31 0 1.08.756 1.763 1.838 1.763.552 0 1.049-.183 1.536-.54l.01.379.077.063.572-.03.066-.075c-.066-1.008-.088-1.312-.066-2.771v-.671c0-1.06 0-1.297-.313-1.643-.249-.282-.673-.512-1.439-.512-.713 0-1.169.186-1.603.357l-.053.074-.032.509m2.781 1.528v2.175c-.347.291-.714.584-1.418.584-.887 0-1.279-.66-1.279-1.223 0-.574.425-.889.513-.951.303-.228.647-.314 1.6-.497l.584-.088zM63.551 49.836l-.639.021-.053-.063c.011-.596.024-.868.024-1.335 0-.562-.014-1.136-.024-1.697-.013-1.233-.021-1.504-.098-2.348l.057-.075.658-.109.064.065-.044.562c.455-.281 1.082-.694 1.959-.694.205 0 .845 0 1.301.512.388.42.388.949.397 1.773l.022 1.104c.012 1.137.022 1.31.064 2.217l-.064.067-.65.021-.051-.074c.008-.509.02-.791.02-1.225 0-.433-.02-1.947-.044-2.519-.009-.252-.03-.64-.258-.911-.185-.217-.532-.369-.92-.369-.811 0-1.449.489-1.753.727.012 1.829.021 2.252.098 4.284l-.066.066M68.703 45.104l.088.044c.486-.25.819-.411 1.535-.411.757 0 .996.366 1.061.499.073.172.084.421.098.713v.142l-.954.141c-.605.097-1.373.226-1.86.659-.367.323-.562.811-.562 1.31 0 1.08.758 1.763 1.84 1.763.553 0 1.047-.183 1.536-.54l.011.379.074.063.575-.03.064-.075c-.064-1.008-.088-1.312-.064-2.771v-.671c0-1.06 0-1.297-.315-1.643-.25-.282-.671-.512-1.44-.512-.712 0-1.169.186-1.6.357l-.055.074-.032.509m2.782 1.528v2.175c-.347.291-.713.584-1.418.584-.889 0-1.276-.66-1.276-1.223 0-.574.42-.889.507-.951.304-.228.65-.314 1.603-.497l.584-.088zM77.187 49.794l.066.063c.258-.021.312-.021.572-.021l.064-.055c-.084-1.742-.084-3.703-.084-5.552 0-.975.01-1.947.021-2.935l-.065-.063a7.626 7.626 0 0 1-.663.13l-.073.066c.073.649.073.831.099 2.822-.206-.01-.347-.01-.486-.01-.79 0-1.918.063-2.673.79-.466.443-.833 1.19-.833 2.119 0 1.473.877 2.76 2.433 2.76.92 0 1.396-.422 1.626-.618v.503m-.014-1.138c-.152.163-.618.66-1.494.66-1.201 0-1.851-.985-1.851-2.207 0-.608.163-1.603 1.19-2.068.499-.218 1.049-.248 1.536-.248.272 0 .392.01.575.021 0 .973.032 2.52.043 3.483v.359zM79.32 45.104l.083.044c.488-.25.824-.411 1.538-.411.758 0 .996.366 1.06.499.077.172.084.421.098.713v.142l-.951.141c-.606.097-1.376.226-1.86.659-.37.323-.564.811-.564 1.31 0 1.08.757 1.763 1.84 1.763.553 0 1.049-.183 1.536-.54l.012.379.073.063.573-.03.067-.075c-.067-1.008-.087-1.312-.067-2.771v-.671c0-1.06 0-1.297-.314-1.643-.247-.282-.669-.512-1.437-.512-.715 0-1.169.186-1.603.357l-.053.074-.031.509m2.781 1.528v2.175c-.346.291-.716.584-1.419.584-.888 0-1.278-.66-1.278-1.223 0-.574.422-.889.512-.951.303-.228.65-.314 1.6-.497l.585-.088zM22.458 47.302c-.012-.529-.01-1.146-.162-1.524-.131-.322-.727-1.154-2.137-.627-.014.009-.043.017-.057.036-.02.028.014.052.014.052.372.163.586.464.586 1.014l-1.805.042s-.072-.393.176-.902c.2-.413.701-.998 1.713-1.199.403-.065.48-.021.527-.032.005-.002.053-.021.007-.048a.275.275 0 0 0-.112-.044c-.179-.057-.575-.146-1.272-.146-1.697 0-2.824 1.162-2.824 3.033 0 .511.085 1.042.258 1.419.629 1.461 2.1 1.589 2.879 1.589.898 0 1.29-.161 1.861-.39l.064-.085.077-1.223-.077-.031c-.411.214-.898.463-1.688.463-.648 0-1.092-.207-1.351-.596-.164-.228-.196-.443-.24-.659l3.497-.065.066-.077"/>
  <path class="st0" d="M8.421 32.015c-.287-.095-.878-.267-1.494-.519-1.622-.669-3.132-1.635-3.092-3.245.035-1.539 1.441-2.498 3.99-2.997 2.793-.546 6.881-.961 8.949-2.016 2.038-.914 1.843-3.275.617-4.382-.114-.107-.199-.186-.263-.16-.087.037-.066.108-.03.225.107.322.254.926-.036 1.433-1.003 1.757-6.594 1.749-11.461 2.685-4.021.777-5.689 2.691-5.597 4.788.097 2.181 2.18 3.821 5.072 4.272 1.155.179 2.727.261 3.284.178.146-.021.189-.071.185-.146-.005-.058-.028-.084-.124-.116"/>
  <path class="st1" d="M2.72 22.64c.928-.333 2.175-.637 4.259-.966.295-.049.589-.101.759-.131.078-.016.112-.056.123-.092.025-.088-.02-.142-.169-.179-.176-.044-.467-.09-.697-.149-2.27-.536-2.594-1.203-2.608-1.883-.007-.387.169-.787.65-1.121.632-.437 1.703-.679 2.323-.81 4.355-.916 10.917-1.057 10.917-6.946 0-2.353-1.458-3.849-2.726-4.646-.944-.593-1.797-.771-1.797-.771v2.313s1.368.927 1.368 2.708c0 1.999-.804 4.18-5.364 5.125-2.866.597-4.931 1.009-6.389 1.629C1.903 17.342.99 18.48.874 19.536c-.104.951.132 2.233 1.846 3.104M17.04 24.325c-.896.419-1.994.781-3.745 1.127-.443.089-.754.136-.941.172-.152.03-.188.099-.162.173.021.057.068.077.2.107.21.048.545.108.951.225 1 .306 1.647.725 2.012 1.137.361.412.539.914.539 1.508 0 .695-.219 1.297-.657 1.807-.596.65-1.584 1.186-2.97 1.604-.68.205-1.609.389-2.695.489v1.843c2.749-.153 5.449-.823 6.96-1.808 1.73-1.122 2.6-2.622 2.6-4.494 0-1.11-.304-2.067-.928-2.855-.398-.506-.794-.792-1.164-1.035"/>
  <path class="st0" d="M5.09 14.917c.928-.281 3.387-.801 3.387-.801.062-.013.122-.024.128-.086.008-.05-.01-.103-.08-.123-.078-.025-.932-.2-1.754-.741-1.101-.724-1.954-1.776-1.903-3.311.073-2.048 1.76-3.34 3.705-3.941 1.762-.542 3.369-.782 4.375-1.429 1.907-1.224 1.708-3.255.637-4.276-.146-.141-.243-.243-.321-.202-.071.037-.061.122-.021.228.097.248.314.861.032 1.417-.529 1.032-3.431 1.399-5.619 1.865-2.917.624-4.482 1.569-5.636 2.993C1.33 7.363.897 8.605.897 9.855c0 2.814 2.157 4.293 4.193 5.062"/>
</svg>
