<svg id="Layer_1" xmlns="http://www.w3.org/2000/svg" width="151" height="66.2" viewBox="0 0 114.069 50">
  <style>
    .st0{fill:#3378ff}
  </style>
  <path class="st0" d="M31.682 16.687c0 .49-.245.735-.734.735-.482 0-.723-.245-.723-.735V2.271c0-.482.241-.723.723-.723.49 0 .734.241.734.723v14.416zM47.059 16.269c0 .339-.111.616-.333.83-.222.215-.514.322-.875.322-.467 0-.821-.215-1.062-.645L37.218 3.31v13.399c0 .475-.223.712-.667.712-.467 0-.7-.238-.7-.712V2.802c0-.407.113-.717.339-.932.226-.214.516-.322.87-.322.497 0 .858.211 1.084.633l7.547 13.433V2.271c0-.482.222-.723.667-.723.467 0 .701.241.701.723v13.998zM62.186 17.58c-2.048 0-3.668-.73-4.858-2.191-1.19-1.461-1.785-3.427-1.785-5.898 0-2.41.642-4.363 1.926-5.858s2.939-2.243 4.965-2.243c1.243 0 2.307.228 3.192.684.885.456 1.328.883 1.328 1.282a.679.679 0 0 1-.215.503c-.143.139-.29.209-.44.209a.623.623 0 0 1-.243-.045 3.822 3.822 0 0 1-.469-.293c-.912-.648-1.962-.972-3.152-.972-1.626 0-2.939.616-3.937 1.847S57 7.464 57 9.49c0 2.094.477 3.739 1.429 4.937.953 1.198 2.212 1.797 3.779 1.797.64 0 1.26-.104 1.858-.311s1.245-.59 1.938-1.147c.211-.173.403-.259.576-.259s.312.071.418.214.158.294.158.452c0 .369-.512.863-1.537 1.481s-2.167.926-3.433.926zM70.445 11.896c0 1.258.362 2.294 1.084 3.108.723.813 1.642 1.22 2.757 1.22.475 0 .957-.078 1.446-.232a5.019 5.019 0 0 0 1.265-.582c.241-.158.418-.238.531-.238.181 0 .333.08.458.238a.808.808 0 0 1 .187.508c0 .339-.405.7-1.215 1.084s-1.708.577-2.694.577c-1.62 0-2.904-.546-3.853-1.639-.949-1.092-1.424-2.549-1.424-4.372 0-1.808.467-3.301 1.401-4.48.934-1.179 2.203-1.768 3.808-1.768 1.416 0 2.529.477 3.338 1.429s1.215 2.228 1.215 3.824c0 .429-.096.757-.288.982-.192.226-.458.339-.797.339h-7.219zm6.869-1.344c0-1.145-.281-2.075-.842-2.791-.561-.716-1.335-1.073-2.322-1.073-1.032 0-1.879.352-2.542 1.056-.663.704-1.036 1.64-1.118 2.808h6.824zM82.873 16.732c0 .459-.241.689-.723.689-.475 0-.712-.23-.712-.689V.689c0-.46.237-.689.711-.689.482 0 .723.229.723.689v16.043zM87.73 16.732c0 .459-.241.689-.723.689-.474 0-.711-.23-.711-.689V.689c0-.46.237-.689.711-.689.482 0 .723.229.723.689v16.043zM1.458 44.452c0 .489-.245.735-.734.735-.483 0-.724-.246-.724-.735V30.036c0-.482.241-.723.723-.723.489 0 .734.241.734.723v14.416zM14.473 44.475c0 .475-.233.712-.701.712-.49 0-.734-.238-.734-.712v-6.801c0-1.047-.237-1.845-.712-2.395-.474-.55-1.171-.824-2.09-.824-1.04 0-1.889.369-2.548 1.107-.659.737-.988 1.739-.988 3.004v5.908c0 .475-.241.712-.723.712-.475 0-.712-.238-.712-.712V33.968c0-.482.237-.723.712-.723.482 0 .723.241.723.723v1.22c.361-.648.872-1.16 1.531-1.537s1.388-.565 2.186-.565c1.318 0 2.324.375 3.017 1.125s1.04 1.772 1.04 3.068v7.196zM21.387 43.48c.723-1.288 1.394-2.742 2.011-4.361a52.68 52.68 0 0 0 1.694-5.343c.09-.369.298-.554.622-.554.542 0 .813.211.813.632 0 .316-.209 1.127-.627 2.43a41.791 41.791 0 0 1-1.497 3.948c-.58 1.33-1.126 2.447-1.638 3.351s-.825 1.396-.938 1.479a.686.686 0 0 1-.418.125h-.135c-.226 0-.401-.078-.525-.232-.125-.154-.363-.556-.717-1.204-.354-.647-.793-1.622-1.316-2.925s-.989-2.691-1.396-4.164-.61-2.386-.61-2.74c0-.218.077-.389.231-.514a.903.903 0 0 1 .582-.187c.354 0 .569.196.644.587a37.841 37.841 0 0 0 1.282 4.88 37.149 37.149 0 0 0 1.938 4.792zM29.6 39.662c0 1.258.362 2.294 1.085 3.108.723.813 1.642 1.22 2.756 1.22.475 0 .957-.078 1.446-.232.49-.155.911-.348 1.265-.582.241-.158.418-.238.531-.238.181 0 .333.08.458.238a.808.808 0 0 1 .187.507c0 .339-.405.701-1.215 1.085s-1.708.577-2.694.577c-1.619 0-2.903-.547-3.853-1.639-.949-1.092-1.423-2.549-1.423-4.372 0-1.808.467-3.301 1.401-4.48.934-1.179 2.203-1.769 3.807-1.769 1.416 0 2.529.477 3.338 1.43.81.953 1.215 2.228 1.215 3.825 0 .429-.096.756-.288.982-.192.226-.458.339-.796.339H29.6zm6.869-1.344c0-1.145-.28-2.076-.842-2.791-.561-.716-1.335-1.073-2.321-1.073-1.032 0-1.879.352-2.542 1.056-.663.704-1.036 1.64-1.119 2.808h6.824zM43.87 45.345c-.61 0-1.166-.064-1.667-.193-.501-.128-.993-.329-1.475-.604s-.772-.48-.87-.616a.752.752 0 0 1 .051-.954c.132-.147.28-.221.446-.221.188 0 .373.072.553.215.384.294.846.536 1.384.729a4.682 4.682 0 0 0 1.576.289c.866 0 1.542-.178 2.028-.532s.729-.832.729-1.434c0-.55-.192-.972-.576-1.266-.384-.293-.9-.512-1.548-.655-1.054-.218-1.817-.399-2.288-.542a3.928 3.928 0 0 1-1.214-.594 2.743 2.743 0 0 1-.808-.96c-.2-.388-.299-.879-.299-1.474 0-1.017.394-1.846 1.181-2.486s1.791-.961 3.011-.961c.896 0 1.732.179 2.508.537s1.164.718 1.164 1.079c0 .181-.07.357-.209.53s-.292.261-.458.261c-.158 0-.343-.075-.554-.226-.791-.542-1.616-.813-2.474-.813-.881 0-1.557.186-2.028.559-.471.373-.706.85-.706 1.429 0 .445.117.808.35 1.09.233.282.542.497.926.644.384.147 1.081.33 2.09.548 1.34.287 2.237.686 2.688 1.198.452.512.678 1.178.678 1.999 0 .979-.375 1.795-1.124 2.446-.747.652-1.77.978-3.065.978zM52.783 34.635v7.366c0 .663.113 1.16.339 1.492.226.331.568.497 1.028.497.181 0 .335-.018.463-.051.128-.034.343-.122.644-.265a.669.669 0 0 1 .26-.057c.15 0 .284.067.401.203s.175.291.175.464c0 .271-.2.515-.599.734-.399.218-.863.328-1.39.328-.979 0-1.684-.268-2.113-.803s-.644-1.344-.644-2.428v-7.479h-1.299c-.475 0-.712-.215-.712-.645 0-.444.237-.666.712-.666h1.299v-2.711c0-.467.237-.7.712-.7.482 0 .723.233.723.7v2.711h1.966c.475 0 .712.222.712.666 0 .429-.237.645-.712.645h-1.965zM58.749 30.397c-.278 0-.508-.098-.689-.293s-.271-.422-.271-.678c0-.264.094-.491.282-.683.188-.192.414-.289.678-.289s.492.093.684.277.288.416.288.694c0 .286-.092.52-.277.701s-.417.271-.695.271zm.723 14.078c0 .475-.249.712-.746.712-.459 0-.689-.238-.689-.712v-10.53c0-.467.237-.7.711-.7.482 0 .723.233.723.7v10.53zM72.08 44.057c0 1.974-.448 3.458-1.344 4.452-.897.994-2.207 1.491-3.932 1.491-.829 0-1.668-.181-2.52-.542-.851-.361-1.277-.72-1.277-1.074 0-.233.064-.423.192-.57.128-.147.263-.221.407-.221.143 0 .357.087.644.261.512.286.958.487 1.339.604s.8.175 1.26.175c1.266 0 2.214-.352 2.847-1.056s.949-1.761.949-3.169V43.29c-.331.633-.804 1.133-1.417 1.502s-1.316.554-2.107.554c-1.491 0-2.681-.548-3.57-1.644-.889-1.096-1.333-2.596-1.333-4.502 0-1.898.458-3.392 1.373-4.48s2.148-1.633 3.7-1.633c.715 0 1.365.157 1.949.469a3.633 3.633 0 0 1 1.406 1.338v-.949c0-.467.245-.7.734-.7.467 0 .701.233.701.7v10.112zm-1.435-5.977c0-1.069-.316-1.941-.949-2.615-.633-.674-1.435-1.011-2.406-1.011-1.1 0-1.981.416-2.644 1.248-.663.833-.994 1.999-.994 3.497 0 1.491.32 2.662.96 3.513.64.852 1.533 1.278 2.678 1.278 1.001 0 1.811-.345 2.429-1.034.618-.689.926-1.564.926-2.626v-2.25zM84.688 44.475c0 .475-.241.712-.723.712-.475 0-.712-.238-.712-.712v-1.118c-.392.663-.885 1.16-1.48 1.491-.595.332-1.292.497-2.09.497-1.521 0-2.711-.562-3.57-1.684-.858-1.122-1.288-2.609-1.288-4.462 0-1.823.438-3.297 1.316-4.423s2.115-1.689 3.711-1.689c.761 0 1.423.153 1.988.458s1.036.762 1.412 1.372v-.972c0-.467.237-.7.712-.7.482 0 .723.233.723.7v10.53zm-1.435-6.395c0-1.069-.316-1.941-.949-2.615-.633-.674-1.435-1.011-2.407-1.011-1.145 0-2.037.447-2.677 1.344s-.96 2.031-.96 3.401c0 1.484.305 2.653.915 3.508.61.854 1.518 1.283 2.723 1.283.987 0 1.793-.337 2.418-1.012s.938-1.542.938-2.604V38.08zM90.19 34.635v7.366c0 .663.113 1.16.339 1.492.226.331.569.497 1.028.497.181 0 .335-.018.463-.051.128-.034.343-.122.644-.265a.669.669 0 0 1 .26-.057c.151 0 .285.067.401.203s.175.291.175.464c0 .271-.2.515-.599.734-.399.218-.862.328-1.39.328-.979 0-1.683-.268-2.113-.803-.429-.535-.644-1.344-.644-2.428v-7.479h-1.299c-.475 0-.712-.215-.712-.645 0-.444.237-.666.712-.666h1.299v-2.711c0-.467.237-.7.711-.7.482 0 .723.233.723.7v2.711h1.966c.475 0 .712.222.712.666 0 .429-.237.645-.712.645H90.19zM100.184 45.345c-1.514 0-2.753-.552-3.717-1.655-.964-1.104-1.446-2.593-1.446-4.468 0-1.951.482-3.461 1.446-4.531.964-1.07 2.203-1.604 3.717-1.604 1.529 0 2.776.542 3.74 1.627s1.446 2.588 1.446 4.508c0 1.868-.484 3.355-1.452 4.462-.968 1.107-2.213 1.661-3.734 1.661zm0-10.891c-1.054 0-1.939.395-2.655 1.186s-1.073 1.985-1.073 3.582c0 1.582.375 2.772 1.124 3.57s1.618 1.198 2.604 1.198c.995 0 1.868-.399 2.621-1.198.753-.798 1.13-1.988 1.13-3.57 0-1.566-.352-2.753-1.056-3.56-.705-.806-1.603-1.208-2.695-1.208zM109.561 34.748c.301-.55.687-.964 1.158-1.243.471-.279 1.03-.419 1.678-.419.565 0 .985.078 1.26.232s.413.348.413.582a.987.987 0 0 1-.13.514.415.415 0 0 1-.378.221c-.098 0-.215-.022-.351-.067a2.929 2.929 0 0 0-.836-.113c-.851 0-1.533.301-2.045.904s-.768 1.396-.768 2.383v6.733c0 .475-.241.712-.723.712-.475 0-.712-.238-.712-.712v-10.53c0-.467.237-.7.712-.7.482 0 .723.233.723.7v.803z"/>
</svg>
