<svg id="Layer_1" xmlns="http://www.w3.org/2000/svg" width="215.46" height="50" viewBox="0 0 215.46 50">
  <style>
    .st3{fill:#6e6e6e}.st4{fill:#414141}
  </style>
  <path fill="none" d="M.605 1.678h214.854v44.654H.605z"/>
  <linearGradient id="SVGID_1_" gradientUnits="userSpaceOnUse" x1="47.33" y1="11.999" x2="71.278" y2="11.999">
    <stop offset="0" stop-color="#ed1c24"/>
    <stop offset=".112" stop-color="#e41b22"/>
    <stop offset=".297" stop-color="#ca161d"/>
    <stop offset=".535" stop-color="#a01014"/>
    <stop offset=".811" stop-color="#670709"/>
    <stop offset="1" stop-color="#3c0000"/>
  </linearGradient>
  <path d="M67.771 3.516A11.915 11.915 0 0 0 59.289.004a11.919 11.919 0 0 0-8.481 3.512 11.918 11.918 0 0 0-3.515 8.482c0 3.204 1.25 6.216 3.515 8.481a11.91 11.91 0 0 0 8.481 3.515 11.91 11.91 0 0 0 8.482-3.515c2.267-2.265 3.513-5.277 3.513-8.481s-1.245-6.215-3.513-8.482zm-3.556 12.069a5.711 5.711 0 0 1-4.065 1.685 5.706 5.706 0 0 1-4.063-1.685 5.699 5.699 0 0 1-1.683-4.063c0-1.536.597-2.979 1.682-4.065a5.721 5.721 0 0 1 4.064-1.683 5.722 5.722 0 0 1 5.022 2.959 7.104 7.104 0 0 1-.127 5.792 5.683 5.683 0 0 1-.83 1.06zM60.15 5.443a6.045 6.045 0 0 0-4.3 1.779 6.053 6.053 0 0 0-1.781 4.3 6.04 6.04 0 0 0 1.783 4.3 6.033 6.033 0 0 0 4.298 1.781 6.039 6.039 0 0 0 3.557-1.154c-.017.014-.029.032-.042.045a7.023 7.023 0 0 1-5.003 2.072 7.02 7.02 0 0 1-5.001-2.072 7.031 7.031 0 0 1-2.072-5.003 7.03 7.03 0 0 1 2.072-5.001 7.032 7.032 0 0 1 5.001-2.07 7.03 7.03 0 0 1 5.003 2.07c.073.072.133.151.204.225a6.04 6.04 0 0 0-3.719-1.272zm-6.962 11.525a7.698 7.698 0 0 0 5.474 2.267 7.7 7.7 0 0 0 5.476-2.267c3.017-3.019 3.017-7.931 0-10.948a7.781 7.781 0 0 0-1.307-1.051 8.725 8.725 0 0 1 2.624 1.804c3.4 3.4 3.4 8.932 0 12.331-1.646 1.648-3.836 2.555-6.165 2.555s-4.517-.907-6.166-2.555c-2.43-2.43-3.121-5.95-2.077-9.002-.083.454-.125.92-.125 1.391 0 2.068.804 4.011 2.266 5.475zm13.64 2.57a10.583 10.583 0 0 1-7.053 3.109 9.644 9.644 0 0 0 6.387-2.835c3.791-3.789 3.789-9.956 0-13.747a9.662 9.662 0 0 0-6.873-2.846 9.67 9.67 0 0 0-6.874 2.846c-3.789 3.791-3.789 9.958 0 13.747a9.648 9.648 0 0 0 6.389 2.835 10.586 10.586 0 0 1-7.053-3.109 10.6 10.6 0 0 1-3.123-7.54c0-2.849 1.11-5.526 3.125-7.537a10.58 10.58 0 0 1 7.536-3.123c2.849 0 5.526 1.109 7.539 3.123a10.576 10.576 0 0 1 3.123 7.537c0 2.847-1.108 5.524-3.123 7.54z" fill="url(#SVGID_1_)"/>
  <linearGradient id="SVGID_2_" gradientUnits="userSpaceOnUse" x1="605.841" y1="74.547" x2="629.794" y2="74.547" gradientTransform="rotate(134.999 351.284 -72.49)">
    <stop offset="0" stop-color="#ed1c24"/>
    <stop offset=".112" stop-color="#e41b22"/>
    <stop offset=".297" stop-color="#ca161d"/>
    <stop offset=".535" stop-color="#a01014"/>
    <stop offset=".811" stop-color="#670709"/>
    <stop offset="1" stop-color="#3c0000"/>
  </linearGradient>
  <path d="M58.858 23.991a11.947 11.947 0 0 0 8.482-3.515 11.932 11.932 0 0 0 3.513-8.482 11.92 11.92 0 0 0-3.513-8.482A11.891 11.891 0 0 0 58.858 0a11.915 11.915 0 0 0-8.482 3.509 11.957 11.957 0 0 0-3.517 8.484 11.973 11.973 0 0 0 3.513 8.484 11.978 11.978 0 0 0 8.486 3.514zm-6.02-11.054a5.703 5.703 0 0 1 1.684-4.061 5.713 5.713 0 0 1 4.064-1.688 5.747 5.747 0 0 1 4.065 1.688 5.725 5.725 0 0 1 1.685 4.06 5.721 5.721 0 0 1-1.688 4.066 5.69 5.69 0 0 1-4.06 1.683 5.68 5.68 0 0 1-1.583-.225 7.095 7.095 0 0 1-4.001-4.186 5.848 5.848 0 0 1-.166-1.337zm10.048 4.301a6.06 6.06 0 0 0 1.783-4.302 6.03 6.03 0 0 0-1.783-4.297 6.026 6.026 0 0 0-4.298-1.782 6.03 6.03 0 0 0-4.302 1.781 6.029 6.029 0 0 0-1.695 3.33.613.613 0 0 1-.003-.062 7.027 7.027 0 0 1 2.068-5.003 7.036 7.036 0 0 1 5.001-2.07 7.037 7.037 0 0 1 5.008 2.07 7.051 7.051 0 0 1 2.068 5.003c0 1.89-.738 3.666-2.07 5.003a7.046 7.046 0 0 1-5.006 2.074c-.099 0-.198-.012-.299-.015a6.023 6.023 0 0 0 3.528-1.73zM59.657 4.165a7.678 7.678 0 0 0-5.471 2.269 7.683 7.683 0 0 0-2.27 5.472c.003 4.27 3.478 7.741 7.742 7.743a7.644 7.644 0 0 0 1.667-.182 8.65 8.65 0 0 1-3.131.582c-4.807 0-8.718-3.912-8.72-8.722a8.66 8.66 0 0 1 2.554-6.167 8.645 8.645 0 0 1 6.164-2.549 8.718 8.718 0 0 1 7.835 4.896 7.637 7.637 0 0 0-.895-1.073 7.7 7.7 0 0 0-5.475-2.269zm-11.461 7.828a10.602 10.602 0 0 1 2.789-7.189 9.674 9.674 0 0 0-2.511 6.523c.002 5.36 4.359 9.722 9.719 9.72a9.683 9.683 0 0 0 6.878-2.847 9.692 9.692 0 0 0 2.844-6.873c-.002-5.358-4.359-9.718-9.72-9.721a9.664 9.664 0 0 0-6.523 2.513 10.604 10.604 0 0 1 7.188-2.792 10.649 10.649 0 0 1 7.539 3.126 10.608 10.608 0 0 1 3.123 7.539 10.604 10.604 0 0 1-3.123 7.538 10.582 10.582 0 0 1-7.539 3.125 10.579 10.579 0 0 1-7.538-3.123 10.575 10.575 0 0 1-3.126-7.539z" fill="url(#SVGID_2_)"/>
  <g>
    <path class="st4" d="M20.583 13.421L12.845 1.678H8.093v20.724h4.751V10.631l7.739 11.771h4.752V1.678h-2.464a2.287 2.287 0 0 0-2.288 2.287v9.456zM40.616 13.421L32.879 1.678h-4.752v20.724h4.752V10.631l7.737 11.771h4.753V1.678h-2.463a2.288 2.288 0 0 0-2.29 2.287v9.456zM109.698 6.208v16.193h4.778V6.208h4.534v-4.53h-14.643v2.243a2.289 2.289 0 0 0 2.289 2.287h3.042zM125.695 22.401h-4.752V1.678h2.465a2.285 2.285 0 0 1 2.287 2.287v18.436zM.605 3.965a2.286 2.286 0 0 1 2.289-2.287h2.465v20.724H.605V3.965zM168.391 22.401h-4.751l-7.74-11.77v11.771h-4.752V1.678h4.752l7.739 11.743V1.678h2.463a2.287 2.287 0 0 1 2.288 2.287v18.436zM138.352 1.318c-5.997 0-10.832 4.863-10.832 10.832a10.813 10.813 0 0 0 10.832 10.832c5.968 0 10.832-4.835 10.832-10.832 0-5.969-4.864-10.832-10.832-10.832zm0 17.133c-3.316 0-6.08-2.765-6.08-6.302 0-3.51 2.763-6.299 6.08-6.299s6.052 2.79 6.052 6.299c0 3.537-2.736 6.302-6.052 6.302zM185.394 5.835c2.262 0 4.248 1.296 5.298 3.255l4.053-2.344a10.731 10.731 0 0 0-9.351-5.435c-5.987 0-10.812 4.853-10.812 10.814a10.795 10.795 0 0 0 10.812 10.812c4.001 0 7.506-2.18 9.351-5.407l-4.053-2.373c-1.05 1.959-3.036 3.256-5.298 3.256-3.31 0-6.066-2.758-6.066-6.288 0-3.504 2.756-6.29 6.066-6.29zM207.625 1.67h-4.964l-7.86 20.688h5.048l1.102-2.923h8.358l1.077 2.923h5.075L207.625 1.67zm-4.992 13.268l2.509-6.649 2.482 6.649h-4.991z"/>
    <circle class="st4" cx="172.664" cy="20.247" r="2.289"/>
    <path class="st4" d="M94.748 1.678l-7.875 20.724h5.057l1.105-2.93h8.374l1.076 2.93h5.085L99.723 1.678h-4.975zm-.027 13.29l2.514-6.66 2.487 6.66h-5.001zM86.329 1.678l-5.524 14.313-5.582-14.313h-5.058l8.152 20.723h4.975l8.125-20.723z"/>
  </g>
  <g>
    <path class="st3" d="M52.239 41.615h1.321v4.717h1.394v-4.717h1.321v-1.32h-4.036zM25.556 43.719l-2.254-3.424h-1.385v6.037h1.385v-3.427l2.254 3.427h1.386v-6.037h-1.386zM37.446 40.19a3.157 3.157 0 1 0 .002 6.314 3.157 3.157 0 0 0-.002-6.314zm0 4.992c-.967 0-1.771-.804-1.771-1.834 0-1.022.805-1.836 1.771-1.836.966 0 1.764.814 1.764 1.836 0 1.03-.798 1.834-1.764 1.834zM19.264 40.295h1.386v6.037h-1.386zM48.553 40.295l-2.295 6.037h1.475l.321-.851h2.44l.314.851h1.481l-2.287-6.037h-1.449zm-.007 3.871l.731-1.939.725 1.939h-1.456zM163.204 37.354a3.144 3.144 0 0 0 2.729-1.579l-1.186-.691c-.302.57-.883.949-1.543.949-.965 0-1.772-.806-1.772-1.835 0-1.026.807-1.84 1.772-1.84.661 0 1.241.38 1.543.954l1.186-.685a3.127 3.127 0 0 0-2.729-1.585 3.154 3.154 0 0 0-3.157 3.156 3.152 3.152 0 0 0 3.157 3.156zM45.477 40.295l-1.61 4.17-1.627-4.17h-1.474l2.376 6.037h1.45l2.366-6.037zM180.492 36.328h2.437l.316.856h1.481l-2.287-6.039h-1.45l-2.295 6.039h1.475l.323-.856zm1.224-3.251l.723 1.941h-1.457l.734-1.941zM20.445 36.328h2.44l.314.856h1.483l-2.288-6.039h-1.45l-2.296 6.039h1.475l.322-.856zm1.225-3.251l.725 1.941h-1.458l.733-1.941zM31.864 43.719l-2.254-3.424h-1.386v6.037h1.386v-3.427l2.254 3.427h1.385v-6.037h-1.385zM168.029 36.328h2.44l.314.856h1.479l-2.284-6.039h-1.453l-2.294 6.039h1.473l.325-.856zm1.224-3.251l.727 1.941h-1.459l.732-1.941zM30.491 34.162a3.018 3.018 0 0 0-3.012-3.017h-2.093v6.039h2.093a3.015 3.015 0 0 0 3.012-3.022zm-3.083 1.7h-.638v-3.397h.638a1.7 1.7 0 0 1 0 3.397zM46.701 37.354a3.158 3.158 0 0 0 3.157-3.157 3.16 3.16 0 0 0-3.157-3.156 3.155 3.155 0 0 0-3.158 3.156 3.153 3.153 0 0 0 3.158 3.157zm0-4.994c.967 0 1.764.814 1.764 1.836 0 1.029-.797 1.835-1.764 1.835s-1.771-.806-1.771-1.835c.001-1.022.804-1.836 1.771-1.836zM.605 46.332H1.99v-2.356h2.119v-1.315H1.99v-1.046h2.328v-1.32H.605zM68.374 34.162a3.018 3.018 0 0 0-3.014-3.017h-2.094v6.039h2.094a3.016 3.016 0 0 0 3.014-3.022zm-3.722 1.7v-3.397h.636a1.7 1.7 0 0 1 1.7 1.697c0 .942-.758 1.7-1.7 1.7h-.636zM8.144 40.19a3.156 3.156 0 0 0-3.156 3.157 3.157 3.157 0 0 0 6.313 0 3.164 3.164 0 0 0-3.157-3.157zm0 4.992c-.967 0-1.771-.804-1.771-1.834 0-1.022.805-1.836 1.771-1.836.966 0 1.764.814 1.764 1.836 0 1.03-.798 1.834-1.764 1.834zM3.158 37.354c1.168 0 2.19-.637 2.731-1.579l-1.184-.691c-.306.57-.886.949-1.547.949-.966 0-1.771-.806-1.771-1.835 0-1.022.805-1.836 1.771-1.836.661 0 1.241.377 1.547.95l1.184-.685a3.131 3.131 0 0 0-2.731-1.585A3.154 3.154 0 0 0 0 34.197a3.154 3.154 0 0 0 3.158 3.157zM32.495 36.328h2.441l.314.856h1.481l-2.287-6.039h-1.45l-2.296 6.039h1.474l.323-.856zm1.224-3.251l.725 1.941h-1.458l.733-1.941zM40.546 34.822h2.119v-1.31h-2.119v-1.047h2.329v-1.32h-3.712v6.039h1.383zM153.655 33.751l2.252 3.433h1.384v-6.039h-1.384v3.42l-2.252-3.42h-1.387v6.039h1.387zM53.269 37.312a2.426 2.426 0 0 0 2.432-2.423v-3.744h-1.384v3.744c0 .629-.491 1.113-1.047 1.113s-1.038-.484-1.038-1.113v-3.744h-1.386v3.744a2.423 2.423 0 0 0 2.423 2.423zM16.565 34.565l-2.256-3.42h-1.386v6.039h1.386v-3.433l2.256 3.433h1.384v-6.039h-1.384zM16.124 42.136a1.842 1.842 0 0 0-1.835-1.841h-1.991v6.037h1.386v-1.697l1.346 1.697h1.724l-1.926-2.44a1.828 1.828 0 0 0 1.296-1.756zm-1.836.525h-.605v-1.046h.605c.249 0 .451.192.451.521 0 .332-.202.525-.451.525zM148.072 37.354a3.158 3.158 0 0 0 3.157-3.157 3.16 3.16 0 0 0-3.157-3.156 3.153 3.153 0 0 0-3.156 3.156 3.152 3.152 0 0 0 3.156 3.157zm0-4.997c.967 0 1.763.814 1.763 1.84 0 1.029-.795 1.835-1.763 1.835-.967 0-1.772-.806-1.772-1.835-.001-1.026.805-1.84 1.772-1.84zM142.489 31.145h1.387v6.039h-1.387zM109.692 34.822h2.12v-1.31h-2.12v-1.047h2.327v-1.32h-3.711v6.039h1.384zM8.482 31.145l-2.294 6.039h1.474l.321-.856h2.441l.314.856h1.48l-2.285-6.039H8.482zm-.006 3.873l.731-1.941.727 1.941H8.476zM116.01 40.19a3.156 3.156 0 0 0-3.156 3.157 3.152 3.152 0 0 0 3.156 3.157 3.158 3.158 0 0 0 3.157-3.157 3.162 3.162 0 0 0-3.157-3.157zm0 4.992c-.967 0-1.774-.804-1.774-1.834 0-1.022.807-1.836 1.774-1.836.965 0 1.763.814 1.763 1.836-.001 1.03-.798 1.834-1.763 1.834zM156.279 40.19a3.157 3.157 0 1 0 0 0zm0 4.992c-.965 0-1.772-.804-1.772-1.834 0-1.022.807-1.836 1.772-1.836.967 0 1.762.814 1.762 1.836 0 1.03-.795 1.834-1.762 1.834zM167.386 40.295l-2.293 6.037h1.47l.323-.851h2.44l.313.851h1.485l-2.287-6.037h-1.451zm-.01 3.871l.733-1.939.727 1.939h-1.46zM164.311 40.295l-1.611 4.17-1.63-4.17h-1.47l2.373 6.037h1.449l2.369-6.037zM171.071 41.615h1.322v4.717h1.394v-4.717h1.32v-1.32h-4.036zM141.638 31.145h-4.036v1.32h1.32v4.719h1.394v-4.719h1.322zM175.963 40.295h1.382v6.037h-1.382zM138.178 40.295h1.384v6.037h-1.384zM133.915 31.145l-2.297 6.039h1.475l.323-.856h2.44l.316.856h1.482l-2.289-6.039h-1.45zm-.006 3.873l.729-1.941.727 1.941h-1.456zM150.779 43.715l-2.255-3.42h-1.387v6.037h1.387v-3.431l2.255 3.431h1.385v-6.037h-1.385zM144.47 43.715l-2.256-3.42h-1.383v6.037h1.383v-3.431l2.256 3.431h1.387v-6.037h-1.387zM209.036 34.565l-2.255-3.42h-1.385v6.039h1.385v-3.433l2.255 3.433h1.384v-6.039h-1.384zM202.728 34.565l-2.257-3.42h-1.384v6.039h1.384v-3.433l2.257 3.433h1.385v-6.039h-1.385zM215.417 32.465v-1.32h-3.714v6.039h3.714v-1.322h-2.33v-1.04h2.121v-1.31h-2.121v-1.047zM194.223 37.184h3.714v-1.322h-2.326v-1.04h2.117v-1.31h-2.117v-1.047h2.326v-1.32h-3.714zM176.609 34.565l-2.255-3.42h-1.384v6.039h1.384v-3.433l2.255 3.433h1.388v-6.039h-1.388zM190.535 34.162a3.015 3.015 0 0 0-3.01-3.017h-2.097v6.039h2.097a3.013 3.013 0 0 0 3.01-3.022zm-3.72 1.7v-3.397h.636a1.7 1.7 0 1 1 0 3.397h-.636zM191.571 31.145h1.387v6.039h-1.387zM181.542 40.19a3.157 3.157 0 1 0 3.157 3.157 3.164 3.164 0 0 0-3.157-3.157zm0 4.992c-.965 0-1.772-.804-1.772-1.834 0-1.022.807-1.836 1.772-1.836.967 0 1.762.814 1.762 1.836 0 1.03-.796 1.834-1.762 1.834zM189.294 43.715l-2.252-3.42h-1.387v6.037h1.387v-3.431l2.252 3.431h1.388v-6.037h-1.388zM123.64 34.565l-2.257-3.42H120v6.039h1.383v-3.433l2.257 3.433h1.384v-6.039h-1.384zM85.033 31.041a3.155 3.155 0 0 0-3.158 3.156 3.158 3.158 0 0 0 6.315 0 3.161 3.161 0 0 0-3.157-3.156zm0 4.991c-.967 0-1.772-.806-1.772-1.835 0-1.022.806-1.836 1.772-1.836s1.762.814 1.762 1.836c0 1.029-.795 1.835-1.762 1.835zM79.453 31.145h1.384v6.039h-1.384zM101.007 27.554h.545V50h-.545zM92.87 34.565l-2.257-3.42h-1.386v6.039h1.386v-3.433l2.257 3.433h1.383v-6.039H92.87zM74.561 32.465h1.323v4.719h1.392v-4.719h1.321v-1.32h-4.036zM57.128 40.295h1.386v6.037h-1.386zM62.709 40.19a3.157 3.157 0 1 0 3.157 3.157 3.163 3.163 0 0 0-3.157-3.157zm0 4.992c-.965 0-1.771-.804-1.771-1.834 0-1.022.805-1.836 1.771-1.836.967 0 1.764.814 1.764 1.836.001 1.03-.796 1.834-1.764 1.834zM70.876 31.145l-2.295 6.039h1.473l.321-.856h2.442l.314.856h1.481l-2.287-6.039h-1.449zm-.008 3.873l.733-1.941.725 1.941h-1.458zM70.506 43.719l-2.257-3.424h-1.384v6.037h1.384v-3.427l2.257 3.427h1.384v-6.037h-1.384zM115.842 37.354a3.159 3.159 0 0 0 3.16-3.157 3.16 3.16 0 0 0-3.16-3.156 3.152 3.152 0 0 0-3.151 3.156 3.15 3.15 0 0 0 3.151 3.157zm0-4.997c.967 0 1.768.814 1.768 1.84 0 1.029-.801 1.835-1.768 1.835-.965 0-1.769-.806-1.769-1.835 0-1.026.803-1.84 1.769-1.84zM130.093 42.136a1.842 1.842 0 0 0-1.836-1.841h-1.988v6.037h1.384v-1.697l1.346 1.697h1.724l-1.926-2.44a1.827 1.827 0 0 0 1.296-1.756zm-1.837.525h-.604v-1.046h.604c.25 0 .452.192.452.521 0 .332-.201.525-.452.525zM128.399 31.145h-2.092v6.039h2.092a3.016 3.016 0 0 0 3.014-3.022 3.018 3.018 0 0 0-3.014-3.017zm-.072 4.717h-.637v-3.397h.637a1.699 1.699 0 1 1 0 3.397zM134.295 40.295h-1.384v6.037h3.714v-1.316h-2.33zM110.295 40.295h-1.988v6.037h1.384v-2.356h.604a1.84 1.84 0 1 0 0-3.681zm0 2.366h-.604v-1.046h.604c.25 0 .453.192.453.521 0 .332-.202.525-.453.525zM123.626 44.038c0 .629-.495 1.112-1.049 1.112-.557 0-1.041-.482-1.041-1.112v-3.743h-1.382v3.743a2.428 2.428 0 0 0 4.855 0v-3.743h-1.382v3.743zM58.344 33.751l2.255 3.433h1.386v-6.039h-1.386v3.42l-2.255-3.42h-1.386v6.039h1.386z"/>
    <g>
      <path class="st3" d="M136.204 40.295v1.581c.597 0 .903-.277.903-.762v-.819h-.903z"/>
    </g>
  </g>
</svg>
