<?xml version="1.0" encoding="utf-8"?>
<!-- Generator: Adobe Illustrator 24.0.3, SVG Export Plug-In . SVG Version: 6.00 Build 0)  -->
<svg version="1.1" id="Layer_1" xmlns="http://www.w3.org/2000/svg" xmlns:xlink="http://www.w3.org/1999/xlink" x="0px" y="0px"
	 viewBox="0 0 350 55" style="enable-background:new 0 0 350 55;" xml:space="preserve">
<style type="text/css">
	.st0{fill:#424142;}
	.st1{fill:#FAAF1B;}
	.st2{fill:#29AAE2;}
	.st3{clip-path:url(#SVGID_2_);fill:#29AAE2;}
	.st4{fill:#D92F27;}
	.st5{clip-path:url(#SVGID_4_);fill:#424142;}
</style>
<g>
	<rect x="130" y="6.4" class="st0" width="1.2" height="40.8"/>
	<polyline class="st1" points="21,41.6 22.4,47.2 26.7,43.1 25.2,40.4 21,41.6 	"/>
	<polyline class="st1" points="44.5,25.9 49.2,21.4 43.4,19.7 41.5,23 44.5,25.9 	"/>
	<polyline class="st1" points="12.1,27.6 7.4,32.2 13.2,33.8 15.1,30.5 12.1,27.6 	"/>
	<polyline class="st1" points="35.6,12 34.2,6.4 29.9,10.5 31.4,13.2 35.6,12 	"/>
	<polyline class="st2" points="12.6,18.6 5,20.8 12.1,27.6 15.8,24.1 12.6,18.6 	"/>
	<polyline class="st2" points="43,17 44.9,9.3 35.6,12 36.8,17 43,17 	"/>
	<g>
		<g>
			<defs>
				<rect id="SVGID_1_" x="5" y="4" width="338.6" height="45.5"/>
			</defs>
			<clipPath id="SVGID_2_">
				<use xlink:href="#SVGID_1_"  style="overflow:visible;"/>
			</clipPath>
			<polyline class="st3" points="29.2,44.2 34.8,49.6 37,40.7 32.1,39.3 29.2,44.2 			"/>
		</g>
	</g>
	<polyline class="st1" points="13.5,11.1 14.9,17 18.5,17 19.6,12.9 13.5,11.1 	"/>
	<polyline class="st2" points="27.4,9.4 21.8,4 19.6,12.9 24.5,14.3 27.4,9.4 	"/>
	<polyline class="st2" points="44,35 51.6,32.8 44.5,25.9 40.8,29.4 44,35 	"/>
	<polyline class="st2" points="13.6,36.6 11.7,44.2 21,41.6 19.8,36.6 13.6,36.6 	"/>
	<polyline class="st1" points="41.7,36.6 38.1,36.6 37,40.7 43.1,42.4 41.7,36.6 	"/>
	<polyline class="st4" points="19.6,12.9 18.5,17 23,17 24.5,14.3 19.6,12.9 	"/>
	<polyline class="st4" points="41.5,23 41.4,23 39.3,26.8 40.8,29.4 44.5,25.9 41.5,23 	"/>
	<polyline class="st4" points="33.6,36.6 32.1,39.3 37,40.7 38.1,36.6 33.6,36.6 	"/>
	<polyline class="st4" points="15.8,24.1 12.1,27.6 15.1,30.5 17.3,26.8 15.8,24.1 	"/>
	<polyline class="st4" points="23,36.6 19.8,36.6 21,41.6 25.2,40.4 23,36.6 	"/>
	<polyline class="st4" points="35.6,12 31.4,13.2 33.6,17 36.8,17 35.6,12 	"/>
	<path class="st0" d="M63.9,17.8c-2.9-0.5-4.6-2-4.6-4.5c0-2.7,2.5-4.4,5.4-4.4c2.7,0,4.4,1.2,5.6,2.4l-1.8,1.9c-0.8-1-2.1-2-3.9-2
		s-2.7,1-2.7,1.9c0,1,0.7,1.8,2.5,2.1l1.5,0.3c3.4,0.5,4.9,2.3,4.9,4.7c0,2.5-2.2,4.4-5.8,4.4c-2.8,0-4.8-1.3-6.1-2.9l1.8-1.8
		c0.9,1.2,2.2,2.4,4.6,2.4c1.9,0,2.9-0.9,2.9-2c0-1-0.6-1.9-2.5-2.2L63.9,17.8"/>
	<path class="st0" d="M72.8,13.8h2.5v10.7h-2.5V13.8z M74,9c0.9,0,1.6,0.7,1.6,1.5c0,0.9-0.7,1.6-1.6,1.6s-1.6-0.7-1.6-1.6
		C72.5,9.7,73.2,9,74,9"/>
	<path class="st0" d="M80.1,24.4h-2.5V13.8h2.4v0.9c0.5-0.6,1.5-1.1,2.8-1.1c2.6,0,4.2,1.7,4.2,4.7v6.2h-2.5v-6.2
		c0-1.5-0.7-2.5-2.1-2.5c-1.5,0-2.4,1.1-2.4,2.8V24.4"/>
	<path class="st0" d="M93.6,22.6c1.9,0,2.9-1.7,2.9-3.4c0-1.8-1-3.3-2.9-3.3s-2.8,1.5-2.8,3.3C90.8,20.9,91.7,22.6,93.6,22.6
		L93.6,22.6z M93.5,13.5c1.5,0,2.4,0.5,3,1.2v-1H99v10.7h-2.5v-0.8c-0.6,0.5-1.6,1-3,1c-3.1,0-5.2-2.4-5.2-5.6S90.4,13.5,93.5,13.5"
		/>
	<path class="st0" d="M101.3,13.8h2.5v10.7h-2.5V13.8z M102.6,9c0.9,0,1.6,0.7,1.6,1.5c0,0.9-0.7,1.6-1.6,1.6
		c-0.9,0-1.6-0.7-1.6-1.6C101,9.7,101.7,9,102.6,9"/>
	<polyline class="st0" points="69.2,38.4 62,38.4 62,45 59.4,45 59.4,29.7 62,29.7 62,36 69.2,36 69.2,29.7 71.8,29.7 71.8,45 
		69.2,45 69.2,38.4 	"/>
	<path class="st0" d="M76.1,38.4h4.6c0-0.9-0.6-2.1-2.2-2.1C77,36.3,76.3,37.4,76.1,38.4L76.1,38.4z M75.9,40.4
		c0.1,1.6,1.2,2.6,2.8,2.6c1.3,0,2.1-0.6,2.7-1.5l1.7,1.6c-0.9,1.2-2.2,2.2-4.4,2.2c-3.2,0-5.4-2.3-5.4-5.5c0-3.1,1.9-5.7,5-5.7
		c3.4,0,4.9,2.8,4.9,5.5c0,0.4,0,0.9,0,0.9H75.9"/>
	<path class="st0" d="M89.9,43.1c1.9,0,2.9-1.7,2.9-3.4c0-1.8-1-3.3-2.9-3.3s-2.8,1.5-2.8,3.3C87.1,41.4,88,43.1,89.9,43.1
		L89.9,43.1z M89.8,34.1c1.5,0,2.4,0.5,3,1.2v-1h2.4V45h-2.5v-0.8c-0.6,0.5-1.6,1-3,1c-3.1,0-5.2-2.4-5.2-5.6
		C84.6,36.4,86.7,34.1,89.8,34.1"/>
	<rect x="97.6" y="29.7" class="st0" width="2.5" height="15.3"/>
	<path class="st0" d="M102.8,41.2v-4.7h-1.6v-2.2h1.6v-3h2.5v3h2.5v2.2h-2.5v4.3c0,1.5,0.3,1.9,1.7,1.9c0.2,0,0.8,0,0.8,0V45
		c0,0-0.5,0-1.3,0C103.7,45,102.8,43.9,102.8,41.2"/>
	<path class="st0" d="M112,45h-2.5V29.7h2.5v5.3c0.5-0.5,1.5-1,2.7-1c2.5,0,4.3,1.7,4.3,4.7V45h-2.5v-6.2c0-1.5-0.7-2.5-2.1-2.5
		c-1.5,0-2.4,1.1-2.4,2.8V45"/>
	<polyline class="st0" points="144,10.6 146.4,10.6 146.4,22.4 153,22.4 153,24.6 144,24.6 144,10.6 	"/>
	<path class="st0" d="M156.7,20.6c0,1.3,0.7,2.1,1.8,2.1c1.3,0,2-1,2-2.5v-5.5h2.3v9.8h-2.2v-0.8c-0.6,0.7-1.5,1-2.5,1
		c-2.2,0-3.7-1.5-3.7-4.3v-5.7h2.3V20.6"/>
	<path class="st0" d="M167.6,24.6h-2.3v-9.8h2.2v0.8c0.5-0.6,1.4-1,2.5-1c2.4,0,3.9,1.6,3.9,4.3v5.7h-2.3v-5.7
		c0-1.4-0.7-2.3-1.9-2.3c-1.4,0-2.2,1-2.2,2.6L167.6,24.6"/>
	<path class="st0" d="M178.3,18.5h4.2c0-0.9-0.5-1.9-2-1.9C179.1,16.6,178.4,17.6,178.3,18.5L178.3,18.5z M178.1,20.4
		c0.1,1.5,1.1,2.4,2.6,2.4c1.2,0,2-0.6,2.5-1.4l1.5,1.4c-0.8,1.1-2.1,2-4.1,2c-2.9,0-4.9-2.1-4.9-5.1c0-2.8,1.7-5.2,4.6-5.2
		c3.2,0,4.5,2.5,4.5,5c0,0.3,0,0.8,0,0.8H178.1"/>
	<path class="st0" d="M189.1,24.6h-2.3v-9.8h2.2v0.8c0.5-0.6,1.4-1,2.5-1c2.4,0,3.9,1.6,3.9,4.3v5.7h-2.3v-5.7
		c0-1.4-0.7-2.3-1.9-2.3c-1.4,0-2.2,1-2.2,2.6L189.1,24.6"/>
	<path class="st0" d="M203.1,10.6v2.1c0,0-0.3,0-0.5,0c-1.4,0-2.1,0.6-2.1,2v0.1h2.4v2h-2.4v7.8h-2.2v-7.8h-1.4v-2h1.4v-0.5
		c0-2.5,1.4-3.7,3.9-3.7C202.7,10.6,203.1,10.6,203.1,10.6"/>
	<path class="st0" d="M206.2,18.5h4.2c0-0.9-0.5-1.9-2-1.9C207.1,16.6,206.4,17.6,206.2,18.5L206.2,18.5z M206.1,20.4
		c0.1,1.5,1.1,2.4,2.6,2.4c1.2,0,2-0.6,2.5-1.4l1.5,1.4c-0.8,1.1-2.1,2-4.1,2c-2.9,0-4.9-2.1-4.9-5.1c0-2.8,1.7-5.2,4.6-5.2
		c3.2,0,4.5,2.5,4.5,5c0,0.3,0,0.8,0,0.8H206.1"/>
	<rect x="214.9" y="10.6" class="st0" width="2.3" height="14"/>
	<path class="st0" d="M224.2,16.6c-1.7,0-2.6,1.5-2.6,3.1c0,1.6,0.9,3.1,2.6,3.1c1.8,0,2.6-1.5,2.6-3.1
		C226.8,18,225.9,16.6,224.2,16.6L224.2,16.6z M224,14.5c1.3,0,2.2,0.5,2.7,1v-4.9h2.3v14h-2.2v-0.9c-0.6,0.6-1.4,1.1-2.8,1.1
		c-2.8,0-4.8-2.2-4.8-5.1C219.2,16.7,221.2,14.5,224,14.5"/>
	<rect x="231.6" y="18.3" class="st0" width="7.3" height="2.1"/>
	<polyline class="st0" points="250.1,10.6 250.1,12.7 245.8,12.7 245.8,24.6 243.4,24.6 243.4,12.7 239.3,12.7 239.3,10.6 
		250.1,10.6 	"/>
	<path class="st0" d="M254.8,22.9c1.8,0,2.6-1.5,2.6-3.2s-0.9-3.1-2.6-3.1s-2.6,1.4-2.6,3.1C252.2,21.3,253,22.9,254.8,22.9
		L254.8,22.9z M254.6,14.5c1.4,0,2.2,0.5,2.8,1.1v-0.9h2.2v9.8h-2.3v-0.7c-0.6,0.5-1.5,0.9-2.7,0.9c-2.8,0-4.8-2.2-4.8-5.1
		S251.8,14.5,254.6,14.5"/>
	<path class="st0" d="M264.4,24.6h-2.3v-9.8h2.2v0.8c0.5-0.6,1.4-1,2.5-1c2.4,0,3.9,1.6,3.9,4.3v5.7h-2.3v-5.7
		c0-1.4-0.7-2.3-1.9-2.3c-1.4,0-2.2,1-2.2,2.6L264.4,24.6"/>
	<path class="st0" d="M275,18.5h4.2c0-0.9-0.5-1.9-2-1.9C275.9,16.6,275.2,17.6,275,18.5L275,18.5z M274.9,20.4
		c0.1,1.5,1.1,2.4,2.6,2.4c1.2,0,2-0.6,2.5-1.4l1.5,1.4c-0.8,1.1-2.1,2-4.1,2c-2.9,0-4.9-2.1-4.9-5.1c0-2.8,1.7-5.2,4.6-5.2
		c3.2,0,4.5,2.5,4.5,5c0,0.3,0,0.8,0,0.8H274.9"/>
	<path class="st0" d="M285.9,24.6h-2.3v-9.8h2.2v0.8c0.5-0.6,1.4-1,2.5-1c2.4,0,3.9,1.6,3.9,4.3v5.7H290v-5.7c0-1.4-0.7-2.3-1.9-2.3
		c-1.4,0-2.2,1-2.2,2.6L285.9,24.6"/>
	<path class="st0" d="M299.5,22.8c1.7,0,2.6-1.5,2.6-3.1s-0.9-3.1-2.6-3.1c-1.8,0-2.6,1.5-2.6,3.1C296.9,21.3,297.7,22.8,299.5,22.8
		L299.5,22.8z M299.7,24.8c-1.4,0-2.2-0.5-2.8-1.1v0.9h-2.2v-14h2.3v4.9c0.6-0.5,1.5-1,2.7-1c2.8,0,4.8,2.2,4.8,5.1
		C304.4,22.6,302.5,24.8,299.7,24.8"/>
	<path class="st0" d="M311,22.9c1.8,0,2.6-1.5,2.6-3.2s-0.9-3.1-2.6-3.1c-1.8,0-2.6,1.4-2.6,3.1C308.4,21.3,309.2,22.9,311,22.9
		L311,22.9z M310.9,14.5c1.4,0,2.2,0.5,2.8,1.1v-0.9h2.2v9.8h-2.3v-0.7c-0.6,0.5-1.5,0.9-2.7,0.9c-2.8,0-4.8-2.2-4.8-5.1
		S308,14.5,310.9,14.5"/>
	<path class="st0" d="M320.5,20.6c0,1.3,0.7,2.1,1.8,2.1c1.3,0,2-1,2-2.5v-5.5h2.3v9.8h-2.2v-0.8c-0.6,0.7-1.5,1-2.5,1
		c-2.2,0-3.7-1.5-3.7-4.3v-5.7h2.3V20.6"/>
	<g>
		<g>
			<defs>
				<rect id="SVGID_3_" x="5" y="4" width="338.6" height="45.5"/>
			</defs>
			<clipPath id="SVGID_4_">
				<use xlink:href="#SVGID_3_"  style="overflow:visible;"/>
			</clipPath>
			<path class="st5" d="M335.3,18.7c0-1.3-0.6-2.1-1.8-2.1c-1.3,0-2,1-2,2.4v5.6h-2.3v-9.8h2.2v0.9c0.4-0.5,1.3-1.1,2.5-1.1
				c1.3,0,2.2,0.6,2.7,1.3c0.8-0.9,1.8-1.3,3.1-1.3c2.6,0,3.9,1.6,3.9,4.3v5.7h-2.3v-5.9c0-1.3-0.6-2.1-1.8-2.1c-1.3,0-2,1-2,2.4
				v5.6h-2.3L335.3,18.7"/>
		</g>
	</g>
	<path class="st0" d="M146.4,33.2v4.9h2.7c2,0,3.3-0.7,3.3-2.5c0-1.7-1.2-2.4-3.3-2.4L146.4,33.2L146.4,33.2z M148.3,40.3h-1.9v4.8
		H144v-14h5.3c3.3,0,5.3,1.7,5.3,4.6c0,2.4-1.4,4-3.6,4.5l4,5h-2.9L148.3,40.3"/>
	<path class="st0" d="M158.2,39h4.2c0-0.9-0.5-1.9-2-1.9C159.1,37.1,158.4,38.1,158.2,39L158.2,39z M158.1,40.9
		c0.1,1.5,1.1,2.4,2.6,2.4c1.2,0,2-0.6,2.5-1.4l1.5,1.4c-0.8,1.1-2.1,2-4.1,2c-2.9,0-4.9-2.1-4.9-5.1c0-2.8,1.7-5.2,4.6-5.2
		c3.2,0,4.5,2.5,4.5,5c0,0.3,0,0.8,0,0.8L158.1,40.9"/>
	<path class="st0" d="M169.4,41.1c-1.8-0.4-3-1.4-3-3.1c0-1.8,1.5-2.9,3.6-2.9c1.7,0,2.8,0.7,3.7,1.6l-1.5,1.6
		c-0.4-0.6-1.2-1.2-2.3-1.2c-0.8,0-1.3,0.4-1.3,0.9c0,0.5,0.4,0.8,1,0.9l1.5,0.4c1.8,0.4,3,1.3,3,3.1c0,1.7-1.3,3-3.9,3
		c-2,0-3.3-0.9-4.1-1.9l1.4-1.5c0.7,0.9,1.6,1.4,2.8,1.4c1.2,0,1.5-0.5,1.5-1c0-0.4-0.3-0.7-1.2-1L169.4,41.1"/>
	<path class="st0" d="M177.9,39h4.2c0-0.9-0.5-1.9-2-1.9C178.7,37.1,178,38.1,177.9,39L177.9,39z M177.7,40.9
		c0.1,1.5,1.1,2.4,2.6,2.4c1.2,0,2-0.6,2.5-1.4l1.5,1.4c-0.8,1.1-2.1,2-4.1,2c-2.9,0-4.9-2.1-4.9-5.1c0-2.8,1.7-5.2,4.6-5.2
		c3.2,0,4.5,2.5,4.5,5c0,0.3,0,0.8,0,0.8L177.7,40.9"/>
	<path class="st0" d="M191,43.4c1.8,0,2.6-1.5,2.6-3.2s-0.9-3.1-2.6-3.1s-2.6,1.4-2.6,3.1S189.2,43.4,191,43.4L191,43.4z M190.8,35
		c1.4,0,2.2,0.5,2.8,1.1v-0.9h2.2v9.8h-2.3v-0.7c-0.6,0.5-1.5,0.9-2.7,0.9c-2.8,0-4.8-2.2-4.8-5.1C186.1,37.2,188,35,190.8,35"/>
	<path class="st0" d="M204.1,37.3c0,0-0.2,0-0.4,0c-2.3,0-3,1.3-3,3.9v3.8h-2.3v-9.8h2.2v1.1c0.8-0.9,1.7-1.2,3-1.2
		c0.1,0,0.2,0,0.4,0V37.3"/>
	<path class="st0" d="M207.4,40.2c0,1.8,1.1,3.1,2.7,3.1c1.2,0,1.9-0.6,2.5-1.5l1.6,1.5c-0.8,1.1-2.1,2.1-4.2,2.1
		c-2.7,0-4.9-2.2-4.9-5.1s2.2-5.1,4.9-5.1c1.8,0,3,0.7,4,2l-1.6,1.5c-0.6-0.8-1.3-1.4-2.3-1.4C208.5,37.1,207.4,38.4,207.4,40.2"/>
	<path class="st0" d="M218,45.1h-2.3v-14h2.3V36c0.5-0.5,1.4-0.9,2.4-0.9c2.3,0,3.9,1.6,3.9,4.3v5.7h-2.3v-5.7
		c0-1.4-0.7-2.3-1.9-2.3c-1.4,0-2.2,1-2.2,2.6L218,45.1"/>
	<rect x="231.5" y="31.1" class="st0" width="2.4" height="14"/>
	<path class="st0" d="M238.4,45.1h-2.3v-9.8h2.2v0.8c0.5-0.6,1.4-1,2.5-1c2.4,0,3.9,1.6,3.9,4.3v5.7h-2.3v-5.7
		c0-1.4-0.7-2.3-1.9-2.3c-1.4,0-2.2,1-2.2,2.6L238.4,45.1"/>
	<path class="st0" d="M249.7,41.1c-1.8-0.4-3-1.4-3-3.1c0-1.8,1.5-2.9,3.6-2.9c1.7,0,2.8,0.7,3.7,1.6l-1.5,1.6
		c-0.4-0.6-1.2-1.2-2.3-1.2c-0.8,0-1.3,0.4-1.3,0.9c0,0.5,0.4,0.8,1,0.9l1.5,0.4c1.8,0.4,3,1.3,3,3.1c0,1.7-1.3,3-3.9,3
		c-2,0-3.3-0.9-4.1-1.9l1.4-1.5c0.7,0.9,1.6,1.4,2.8,1.4s1.5-0.5,1.5-1c0-0.4-0.3-0.7-1.2-1L249.7,41.1"/>
	<path class="st0" d="M256.6,41.6v-4.3h-1.4v-2h1.4v-2.7h2.3v2.7h2.3v2h-2.3v4c0,1.4,0.3,1.8,1.6,1.8c0.2,0,0.7,0,0.7,0v2
		c0,0-0.4,0-1.2,0C257.5,45.1,256.6,44.1,256.6,41.6"/>
	<path class="st0" d="M263,35.3h2.3v9.8H263V35.3z M264.1,30.9c0.8,0,1.4,0.6,1.4,1.4c0,0.8-0.6,1.4-1.4,1.4c-0.8,0-1.4-0.6-1.4-1.4
		C262.7,31.5,263.3,30.9,264.1,30.9"/>
	<path class="st0" d="M268,41.6v-4.3h-1.4v-2h1.4v-2.7h2.3v2.7h2.3v2h-2.3v4c0,1.4,0.3,1.8,1.6,1.8c0.2,0,0.7,0,0.7,0v2
		c0,0-0.4,0-1.2,0C268.9,45.1,268,44.1,268,41.6"/>
	<path class="st0" d="M276.5,41.1c0,1.3,0.7,2.1,1.8,2.1c1.3,0,2-1,2-2.5v-5.5h2.3v9.8h-2.2v-0.8c-0.6,0.7-1.5,1-2.5,1
		c-2.2,0-3.7-1.5-3.7-4.3v-5.7h2.3L276.5,41.1"/>
	<path class="st0" d="M285.5,41.6v-4.3h-1.4v-2h1.4v-2.7h2.3v2.7h2.3v2h-2.3v4c0,1.4,0.3,1.8,1.6,1.8c0.2,0,0.7,0,0.7,0v2
		c0,0-0.4,0-1.2,0C286.3,45.1,285.5,44.1,285.5,41.6"/>
	<path class="st0" d="M293.6,39h4.2c0-0.9-0.5-1.9-2-1.9C294.5,37.1,293.8,38.1,293.6,39L293.6,39z M293.5,40.9
		c0.1,1.5,1.1,2.4,2.6,2.4c1.2,0,2-0.6,2.5-1.4l1.5,1.4c-0.8,1.1-2.1,2-4.1,2c-2.9,0-4.9-2.1-4.9-5.1c0-2.8,1.7-5.2,4.6-5.2
		c3.2,0,4.5,2.5,4.5,5c0,0.3,0,0.8,0,0.8L293.5,40.9"/>
</g>
</svg>
