<?xml version="1.0" encoding="UTF-8"?>
<svg xmlns="http://www.w3.org/2000/svg" version="1.1" viewBox="0 0 2723 1522">
  <defs>
    <style>
      .cls-1 {
        stroke-dasharray: 0 0 13.5 13.5;
      }

      .cls-1, .cls-2, .cls-3, .cls-4, .cls-5, .cls-6, .cls-7, .cls-8, .cls-9, .cls-10, .cls-11, .cls-12, .cls-13, .cls-14 {
        stroke-miterlimit: 10;
      }

      .cls-1, .cls-2, .cls-3, .cls-4, .cls-5, .cls-6, .cls-8, .cls-9, .cls-10, .cls-11, .cls-12, .cls-13, .cls-14 {
        fill: none;
      }

      .cls-1, .cls-6, .cls-8, .cls-10, .cls-11, .cls-12, .cls-14 {
        stroke-width: 2px;
      }

      .cls-1, .cls-6, .cls-12 {
        stroke: #d4145a;
      }

      .cls-15, .cls-16, .cls-17, .cls-18, .cls-19 {
        stroke-width: 0px;
      }

      .cls-15, .cls-20 {
        fill: #8cc63f;
      }

      .cls-21 {
        opacity: .5;
      }

      .cls-2, .cls-3, .cls-4, .cls-5, .cls-9 {
        stroke-width: 3px;
      }

      .cls-2, .cls-8 {
        stroke: #29abe2;
      }

      .cls-22 {
        opacity: .2;
      }

      .cls-3, .cls-14 {
        stroke: red;
      }

      .cls-23, .cls-16 {
        fill: #f7931e;
      }

      .cls-23, .cls-24, .cls-20, .cls-25, .cls-26 {
        font-family: SegoeScript, 'Segoe Script';
        font-size: 24px;
      }

      .cls-27 {
        opacity: .7;
      }

      .cls-28 {
        opacity: .4;
      }

      .cls-4, .cls-11 {
        stroke: #8cc63f;
      }

      .cls-24 {
        fill: #d4145a;
      }

      .cls-5 {
        stroke: #666;
      }

      .cls-29 {
        opacity: .8;
      }

      .cls-30 {
        font-size: 60px;
      }

      .cls-30, .cls-31, .cls-32 {
        fill: #000;
        font-family: ArialMT, Arial;
      }

      .cls-17, .cls-26 {
        fill: red;
      }

      .cls-6 {
        stroke-dasharray: 0 0 12.3 12.3;
      }

      .cls-18 {
        fill: #39b54a;
      }

      .cls-31 {
        font-size: 36px;
      }

      .cls-7 {
        fill: #fff;
        stroke: #000;
        stroke-width: 4px;
      }

      .cls-25, .cls-19 {
        fill: #29abe2;
      }

      .cls-9, .cls-10 {
        stroke: #f7931e;
      }

      .cls-32 {
        font-size: 48px;
      }

      .cls-13 {
        stroke: #39b54a;
        stroke-width: 6px;
      }
    </style>
  </defs>
  <g id="Layer_1" data-name="Layer 1">
    <polyline class="cls-7" points="37 869.7 37 1142.9 369 1142.9"/>
    <line class="cls-5" x1="77.5" y1="1081.2" x2="77.5" y2="1138.2"/>
    <line class="cls-5" x1="57.5" y1="1107.2" x2="57.5" y2="1138.2"/>
    <line class="cls-5" x1="99.5" y1="984.2" x2="99.5" y2="1138.2"/>
    <line class="cls-5" x1="114.5" y1="1100.2" x2="114.5" y2="1138.2"/>
    <line class="cls-5" x1="139.5" y1="1138.2" x2="139.5" y2="887.2"/>
    <line class="cls-5" x1="166.5" y1="1138.2" x2="166.5" y2="1027.2"/>
    <line class="cls-5" x1="148.5" y1="1138.2" x2="148.5" y2="1097.2"/>
    <line class="cls-5" x1="181.5" y1="1138.2" x2="181.5" y2="929.2"/>
    <line class="cls-5" x1="193.5" y1="1138.2" x2="193.5" y2="1006.2"/>
    <line class="cls-5" x1="210.5" y1="1138.2" x2="210.5" y2="1072.2"/>
    <line class="cls-5" x1="228.5" y1="1138.2" x2="228.5" y2="873.2"/>
    <line class="cls-5" x1="245.5" y1="1138.2" x2="245.5" y2="978.2"/>
    <line class="cls-5" x1="261.5" y1="1138.2" x2="261.5" y2="1054.2"/>
    <line class="cls-5" x1="274.5" y1="1138.2" x2="274.5" y2="1109.2"/>
    <line class="cls-5" x1="283.5" y1="1138.2" x2="283.5" y2="1072.2"/>
    <line class="cls-5" x1="300.5" y1="1138.2" x2="300.5" y2="998.2"/>
    <line class="cls-5" x1="321.5" y1="1138.2" x2="321.5" y2="1093.2"/>
    <line class="cls-5" x1="309.5" y1="1138.2" x2="309.5" y2="1119.2"/>
    <line class="cls-5" x1="218.5" y1="1138.2" x2="218.5" y2="1123.2"/>
    <line class="cls-5" x1="333.5" y1="1138.2" x2="333.5" y2="1037.2"/>
    <line class="cls-5" x1="346.5" y1="1138.2" x2="346.5" y2="954.2"/>
    <g>
      <polyline class="cls-12" points="93 875.5 93 869.5 87 869.5"/>
      <line class="cls-1" x1="73.5" y1="869.5" x2="53.2" y2="869.5"/>
      <polyline class="cls-12" points="46.5 869.5 40.5 869.5 40.5 875.5"/>
      <line class="cls-6" x1="40.5" y1="887.8" x2="40.5" y2="1128.3"/>
      <polyline class="cls-12" points="40.5 1134.5 40.5 1140.5 46.5 1140.5"/>
      <line class="cls-1" x1="60" y1="1140.5" x2="80.2" y2="1140.5"/>
      <polyline class="cls-12" points="87 1140.5 93 1140.5 93 1134.5"/>
      <line class="cls-6" x1="93" y1="1122.2" x2="93" y2="881.7"/>
    </g>
    <g>
      <polyline class="cls-12" points="147.9 875.7 147.9 869.7 141.9 869.7"/>
      <line class="cls-1" x1="128.4" y1="869.7" x2="108.2" y2="869.7"/>
      <polyline class="cls-12" points="101.4 869.7 95.4 869.7 95.4 875.7"/>
      <line class="cls-6" x1="95.4" y1="888" x2="95.4" y2="1128.5"/>
      <polyline class="cls-12" points="95.4 1134.7 95.4 1140.7 101.4 1140.7"/>
      <line class="cls-1" x1="114.9" y1="1140.7" x2="135.2" y2="1140.7"/>
      <polyline class="cls-12" points="141.9 1140.7 147.9 1140.7 147.9 1134.7"/>
      <line class="cls-6" x1="147.9" y1="1122.4" x2="147.9" y2="881.9"/>
    </g>
    <g>
      <polyline class="cls-12" points="202.9 875.7 202.9 869.7 196.9 869.7"/>
      <line class="cls-1" x1="183.4" y1="869.7" x2="163.2" y2="869.7"/>
      <polyline class="cls-12" points="156.4 869.7 150.4 869.7 150.4 875.7"/>
      <line class="cls-6" x1="150.4" y1="888" x2="150.4" y2="1128.5"/>
      <polyline class="cls-12" points="150.4 1134.7 150.4 1140.7 156.4 1140.7"/>
      <line class="cls-1" x1="169.9" y1="1140.7" x2="190.2" y2="1140.7"/>
      <polyline class="cls-12" points="196.9 1140.7 202.9 1140.7 202.9 1134.7"/>
      <line class="cls-6" x1="202.9" y1="1122.4" x2="202.9" y2="881.9"/>
    </g>
    <g>
      <polyline class="cls-12" points="257.9 875.7 257.9 869.7 251.9 869.7"/>
      <line class="cls-1" x1="238.4" y1="869.7" x2="218.2" y2="869.7"/>
      <polyline class="cls-12" points="211.4 869.7 205.4 869.7 205.4 875.7"/>
      <line class="cls-6" x1="205.4" y1="888" x2="205.4" y2="1128.5"/>
      <polyline class="cls-12" points="205.4 1134.7 205.4 1140.7 211.4 1140.7"/>
      <line class="cls-1" x1="224.9" y1="1140.7" x2="245.2" y2="1140.7"/>
      <polyline class="cls-12" points="251.9 1140.7 257.9 1140.7 257.9 1134.7"/>
      <line class="cls-6" x1="257.9" y1="1122.4" x2="257.9" y2="881.9"/>
    </g>
    <g>
      <polyline class="cls-12" points="312.9 875.7 312.9 869.7 306.9 869.7"/>
      <line class="cls-1" x1="293.4" y1="869.7" x2="273.2" y2="869.7"/>
      <polyline class="cls-12" points="266.4 869.7 260.4 869.7 260.4 875.7"/>
      <line class="cls-6" x1="260.4" y1="888" x2="260.4" y2="1128.5"/>
      <polyline class="cls-12" points="260.4 1134.7 260.4 1140.7 266.4 1140.7"/>
      <line class="cls-1" x1="279.9" y1="1140.7" x2="300.2" y2="1140.7"/>
      <polyline class="cls-12" points="306.9 1140.7 312.9 1140.7 312.9 1134.7"/>
      <line class="cls-6" x1="312.9" y1="1122.4" x2="312.9" y2="881.9"/>
    </g>
    <g>
      <polyline class="cls-12" points="367.9 875.7 367.9 869.7 361.9 869.7"/>
      <line class="cls-1" x1="348.4" y1="869.7" x2="328.2" y2="869.7"/>
      <polyline class="cls-12" points="321.4 869.7 315.4 869.7 315.4 875.7"/>
      <line class="cls-6" x1="315.4" y1="888" x2="315.4" y2="1128.5"/>
      <polyline class="cls-12" points="315.4 1134.7 315.4 1140.7 321.4 1140.7"/>
      <line class="cls-1" x1="334.9" y1="1140.7" x2="355.2" y2="1140.7"/>
      <polyline class="cls-12" points="361.9 1140.7 367.9 1140.7 367.9 1134.7"/>
      <line class="cls-6" x1="367.9" y1="1122.4" x2="367.9" y2="881.9"/>
    </g>
    <text class="cls-24" transform="translate(57.8 896.7)"><tspan x="0" y="0">1</tspan></text>
    <text class="cls-24" transform="translate(110.2 896.7)"><tspan x="0" y="0">2</tspan></text>
    <text class="cls-24" transform="translate(166.2 896.7)"><tspan x="0" y="0">3</tspan></text>
    <text class="cls-24" transform="translate(224.2 896.7)"><tspan x="0" y="0">4</tspan></text>
    <text class="cls-24" transform="translate(277.2 898.7)"><tspan x="0" y="0">5</tspan></text>
    <text class="cls-24" transform="translate(333.2 898.7)"><tspan x="0" y="0">6</tspan></text>
    <g>
      <line class="cls-13" x1="407" y1="1009" x2="478.2" y2="1009"/>
      <polygon class="cls-18" points="499 1009 469.7 1021 476.7 1009 469.7 997.1 499 1009"/>
    </g>
    <g>
      <polyline class="cls-7" points="578.6 738.5 578.6 1011.8 910.6 1011.8"/>
      <line class="cls-5" x1="597.5" y1="944" x2="597.5" y2="1001"/>
      <line class="cls-5" x1="630.5" y1="954.5" x2="630.5" y2="1001"/>
      <line class="cls-5" x1="623.5" y1="978.5" x2="623.5" y2="1001"/>
      <line class="cls-5" x1="590.5" y1="908.5" x2="590.5" y2="1001"/>
      <line class="cls-5" x1="603.5" y1="984.5" x2="603.5" y2="1001"/>
      <line class="cls-5" x1="615.5" y1="841.5" x2="615.5" y2="1001"/>
      <line class="cls-5" x1="609.5" y1="965.5" x2="609.5" y2="1001"/>
    </g>
    <g>
      <polyline class="cls-7" points="641.6 771.7 641.6 1045 973.6 1045"/>
      <line class="cls-5" x1="660.5" y1="1022.5" x2="660.5" y2="1034.2"/>
      <line class="cls-5" x1="693.5" y1="902.5" x2="693.5" y2="1034.2"/>
      <line class="cls-5" x1="686.5" y1="1025.5" x2="686.5" y2="1034.2"/>
      <line class="cls-5" x1="653.5" y1="998.5" x2="653.5" y2="1034.2"/>
      <line class="cls-5" x1="666.5" y1="972.5" x2="666.5" y2="1034.2"/>
      <line class="cls-5" x1="678.5" y1="1016.5" x2="678.5" y2="1034.2"/>
      <line class="cls-5" x1="672.5" y1="998.7" x2="672.5" y2="1034.2"/>
    </g>
    <g>
      <polyline class="cls-7" points="705.6 804.7 705.6 1078 1037.6 1078"/>
      <line class="cls-5" x1="724.5" y1="1030.5" x2="724.5" y2="1067.2"/>
      <line class="cls-5" x1="757.5" y1="1043.5" x2="757.5" y2="1067.2"/>
      <line class="cls-5" x1="750.5" y1="1001.5" x2="750.5" y2="1067.2"/>
      <line class="cls-5" x1="717.5" y1="1008.5" x2="717.5" y2="1067.2"/>
      <line class="cls-5" x1="730.5" y1="896.5" x2="730.5" y2="1067.2"/>
      <line class="cls-5" x1="742.5" y1="941.5" x2="742.5" y2="1067.2"/>
      <line class="cls-5" x1="736.5" y1="916.5" x2="736.5" y2="1067.2"/>
    </g>
    <g>
      <polyline class="cls-7" points="769.6 838.7 769.6 1112 1101.6 1112"/>
      <line class="cls-5" x1="788.5" y1="974.5" x2="788.5" y2="1101.2"/>
      <line class="cls-5" x1="821.5" y1="1034.5" x2="821.5" y2="1101.2"/>
      <line class="cls-5" x1="814.5" y1="1054.5" x2="814.5" y2="1101.2"/>
      <line class="cls-5" x1="781.5" y1="1040.5" x2="781.5" y2="1101.2"/>
      <line class="cls-5" x1="794.5" y1="1078.5" x2="794.5" y2="1101.2"/>
      <line class="cls-5" x1="806.5" y1="1008.5" x2="806.5" y2="1101.2"/>
      <line class="cls-5" x1="800.5" y1="1077.5" x2="800.5" y2="1101.2"/>
    </g>
    <g>
      <polyline class="cls-7" points="832.7 871.9 832.7 1145.1 1164.7 1145.1"/>
      <line class="cls-5" x1="851.5" y1="1089.5" x2="851.6" y2="1134.4"/>
      <line class="cls-5" x1="884.5" y1="1061.5" x2="884.6" y2="1134.4"/>
      <line class="cls-5" x1="877.5" y1="1120.5" x2="877.6" y2="1134.4"/>
      <line class="cls-5" x1="844.5" y1="962.5" x2="844.6" y2="1134.4"/>
      <line class="cls-5" x1="857.5" y1="1068.5" x2="857.6" y2="1134.4"/>
      <line class="cls-5" x1="869.5" y1="1010.5" x2="869.6" y2="1134.4"/>
      <line class="cls-5" x1="863.5" y1="1107.5" x2="863.6" y2="1134.4"/>
    </g>
    <polyline class="cls-7" points="895.7 906.9 895.7 1180.1 1227.7 1180.1"/>
    <line class="cls-5" x1="914.6" y1="1113.5" x2="914.6" y2="1170.5"/>
    <line class="cls-5" x1="947.5" y1="1131.6" x2="947.6" y2="1170.5"/>
    <line class="cls-5" x1="940.6" y1="1148" x2="940.6" y2="1170.5"/>
    <line class="cls-5" x1="907.5" y1="1153.6" x2="907.6" y2="1170.5"/>
    <line class="cls-5" x1="920.5" y1="1141.6" x2="920.6" y2="1170.5"/>
    <line class="cls-5" x1="932.5" y1="1113.6" x2="932.6" y2="1170.5"/>
    <line class="cls-5" x1="926.5" y1="1090.6" x2="926.6" y2="1170.5"/>
    <line class="cls-5" x1="1094.8" y1="1130.5" x2="1094.8" y2="1170.5"/>
    <line class="cls-5" x1="1086.8" y1="978.5" x2="1086.8" y2="1170.5"/>
    <line class="cls-5" x1="1077.8" y1="1123.5" x2="1077.8" y2="1170.5"/>
    <line class="cls-5" x1="1070.8" y1="1154.5" x2="1070.8" y2="1170.5"/>
    <line class="cls-5" x1="1061.8" y1="1138.5" x2="1061.8" y2="1170.5"/>
    <line class="cls-5" x1="1054.8" y1="1122.5" x2="1054.8" y2="1170.5"/>
    <line class="cls-5" x1="1046.8" y1="1008.5" x2="1046.8" y2="1170.5"/>
    <line class="cls-5" x1="1037.5" y1="1130.5" x2="1037.8" y2="1170.5"/>
    <line class="cls-5" x1="1030.8" y1="1040.5" x2="1030.8" y2="1170.5"/>
    <line class="cls-5" x1="1023.8" y1="1107.5" x2="1023.8" y2="1170.5"/>
    <line class="cls-5" x1="1013.8" y1="910.5" x2="1013.8" y2="1170.5"/>
    <line class="cls-5" x1="1005.8" y1="1160.5" x2="1005.8" y2="1170.5"/>
    <line class="cls-5" x1="998.8" y1="1151.5" x2="998.8" y2="1170.5"/>
    <line class="cls-5" x1="989.8" y1="1000.5" x2="989.8" y2="1170.5"/>
    <line class="cls-5" x1="980.5" y1="1118.5" x2="980.8" y2="1170.5"/>
    <line class="cls-5" x1="966.5" y1="1034.5" x2="966.8" y2="1170.5"/>
    <line class="cls-5" x1="961.5" y1="1151.5" x2="961.8" y2="1170.5"/>
    <line class="cls-5" x1="955.5" y1="959.5" x2="955.8" y2="1170.5"/>
    <line class="cls-5" x1="1200.8" y1="1046.5" x2="1200.8" y2="1170.5"/>
    <line class="cls-5" x1="1184.8" y1="1160.5" x2="1184.8" y2="1170.5"/>
    <line class="cls-5" x1="1175.8" y1="1078.5" x2="1175.8" y2="1170.5"/>
    <line class="cls-5" x1="1169.8" y1="1146.5" x2="1169.8" y2="1170.5"/>
    <line class="cls-5" x1="1159.8" y1="1055.5" x2="1159.8" y2="1170.5"/>
    <line class="cls-5" x1="1151.8" y1="1112.5" x2="1151.8" y2="1170.5"/>
    <line class="cls-5" x1="1142.8" y1="1062.5" x2="1142.8" y2="1170.5"/>
    <line class="cls-5" x1="1135.8" y1="1011.5" x2="1135.8" y2="1170.5"/>
    <line class="cls-5" x1="1127.8" y1="1128.5" x2="1127.8" y2="1170.5"/>
    <line class="cls-5" x1="1118.7" y1="1090.6" x2="1118.8" y2="1170.5"/>
    <line class="cls-5" x1="1110.8" y1="1107.5" x2="1110.8" y2="1170.5"/>
    <g class="cls-22">
      <g>
        <line class="cls-13" x1="1213" y1="875.1" x2="1284.2" y2="875.1"/>
        <polygon class="cls-18" points="1305 875.1 1275.7 887.1 1282.7 875.1 1275.7 863.2 1305 875.1"/>
      </g>
    </g>
    <g class="cls-28">
      <g>
        <line class="cls-13" x1="1223" y1="908.4" x2="1294.2" y2="908.4"/>
        <polygon class="cls-18" points="1315 908.4 1285.7 920.3 1292.7 908.4 1285.7 896.4 1315 908.4"/>
      </g>
    </g>
    <g class="cls-21">
      <g>
        <line class="cls-13" x1="1233" y1="941.4" x2="1304.2" y2="941.4"/>
        <polygon class="cls-18" points="1325 941.4 1295.7 953.3 1302.7 941.4 1295.7 929.4 1325 941.4"/>
      </g>
    </g>
    <g class="cls-27">
      <g>
        <line class="cls-13" x1="1243" y1="975.4" x2="1314.2" y2="975.4"/>
        <polygon class="cls-18" points="1335 975.4 1305.7 987.3 1312.7 975.4 1305.7 963.4 1335 975.4"/>
      </g>
    </g>
    <g class="cls-29">
      <g>
        <line class="cls-13" x1="1253" y1="1008.5" x2="1324.2" y2="1008.5"/>
        <polygon class="cls-18" points="1345 1008.5 1315.7 1020.5 1322.7 1008.5 1315.7 996.6 1345 1008.5"/>
      </g>
    </g>
    <g>
      <line class="cls-13" x1="1263" y1="1043.5" x2="1334.2" y2="1043.5"/>
      <polygon class="cls-18" points="1355 1043.5 1325.7 1055.5 1332.7 1043.5 1325.7 1031.6 1355 1043.5"/>
    </g>
    <g>
      <polyline class="cls-7" points="1412.8 909.9 1412.8 1183.1 1744.8 1183.1"/>
      <line class="cls-4" x1="1431.7" y1="1115.4" x2="1431.7" y2="1173.5"/>
      <line class="cls-4" x1="1603.9" y1="981.5" x2="1603.9" y2="1173.5"/>
      <line class="cls-4" x1="1547.9" y1="1040.5" x2="1547.9" y2="1173.5"/>
      <line class="cls-4" x1="1515.9" y1="1152.5" x2="1515.9" y2="1173.5"/>
      <line class="cls-4" x1="1478.6" y1="1152.5" x2="1478.5" y2="1173.5"/>
      <line class="cls-4" x1="1701.9" y1="1163.5" x2="1701.9" y2="1173.5"/>
      <line class="cls-4" x1="1686.9" y1="1149.5" x2="1686.9" y2="1173.5"/>
      <g>
        <line class="cls-2" x1="1449.6" y1="1115.5" x2="1449.6" y2="1173.5"/>
        <line class="cls-2" x1="1443.6" y1="1092.5" x2="1443.6" y2="1173.5"/>
        <line class="cls-2" x1="1522.9" y1="1161.5" x2="1522.9" y2="1173.5"/>
        <line class="cls-2" x1="1717.9" y1="1049.5" x2="1717.9" y2="1173.5"/>
        <line class="cls-2" x1="1659.9" y1="1065.5" x2="1659.9" y2="1173.5"/>
        <line class="cls-2" x1="1652.9" y1="1014.5" x2="1652.9" y2="1173.5"/>
      </g>
      <g>
        <line class="cls-9" x1="1464.6" y1="1133.5" x2="1464.6" y2="1173.5"/>
        <line class="cls-9" x1="1424.6" y1="1155.5" x2="1424.6" y2="1173.5"/>
        <line class="cls-9" x1="1437.6" y1="1143.5" x2="1437.6" y2="1173.5"/>
        <line class="cls-9" x1="1611.9" y1="1133.5" x2="1611.9" y2="1173.5"/>
        <line class="cls-9" x1="1571.9" y1="1125.5" x2="1571.9" y2="1173.5"/>
        <line class="cls-9" x1="1530.9" y1="911.5" x2="1530.9" y2="1173.5"/>
        <line class="cls-9" x1="1692.9" y1="1081.5" x2="1692.9" y2="1173.5"/>
        <line class="cls-9" x1="1668.9" y1="1115.5" x2="1668.9" y2="1173.5"/>
        <line class="cls-9" x1="1644.9" y1="1131.5" x2="1644.9" y2="1173.5"/>
        <line class="cls-9" x1="1635.8" y1="1093.6" x2="1635.9" y2="1173.5"/>
      </g>
      <g>
        <line class="cls-3" x1="1676.9" y1="1058.5" x2="1676.9" y2="1173.5"/>
        <g>
          <line class="cls-3" x1="1457.7" y1="1149.9" x2="1457.5" y2="1173.5"/>
          <line class="cls-3" x1="1594.9" y1="1126.5" x2="1594.9" y2="1173.5"/>
          <line class="cls-3" x1="1587.9" y1="1157.5" x2="1587.9" y2="1173.5"/>
          <line class="cls-3" x1="1578.9" y1="1141.5" x2="1578.9" y2="1173.5"/>
          <line class="cls-3" x1="1563.9" y1="1011.5" x2="1563.9" y2="1173.5"/>
          <line class="cls-3" x1="1554.6" y1="1131.5" x2="1554.6" y2="1173.5"/>
          <line class="cls-3" x1="1540.9" y1="1108.5" x2="1540.9" y2="1173.5"/>
          <line class="cls-3" x1="1506.9" y1="1001.5" x2="1506.9" y2="1173.5"/>
          <line class="cls-3" x1="1497.6" y1="1118.5" x2="1497.6" y2="1173.5"/>
          <line class="cls-3" x1="1483.6" y1="1035.5" x2="1483.6" y2="1173.5"/>
          <line class="cls-3" x1="1472.6" y1="960.5" x2="1472.6" y2="1173.5"/>
          <line class="cls-3" x1="1627.9" y1="1110.5" x2="1627.9" y2="1173.5"/>
        </g>
      </g>
    </g>
    <polyline class="cls-7" points="1924.8 759.3 1924.8 1032.5 2256.8 1032.5"/>
    <g>
      <line class="cls-3" x1="2188.8" y1="907.9" x2="2188.8" y2="1022.8"/>
      <g>
        <line class="cls-3" x1="1969.6" y1="999.2" x2="1969.4" y2="1022.9"/>
        <line class="cls-3" x1="2106.8" y1="975.9" x2="2106.8" y2="1022.8"/>
        <line class="cls-3" x1="2099.8" y1="1006.9" x2="2099.8" y2="1022.8"/>
        <line class="cls-3" x1="2090.8" y1="990.9" x2="2090.8" y2="1022.8"/>
        <line class="cls-3" x1="2075.8" y1="860.9" x2="2075.8" y2="1022.8"/>
        <line class="cls-3" x1="2066.5" y1="980.9" x2="2066.5" y2="1022.9"/>
        <line class="cls-3" x1="2052.8" y1="957.9" x2="2052.8" y2="1022.9"/>
        <line class="cls-3" x1="2018.8" y1="850.9" x2="2018.8" y2="1022.9"/>
        <line class="cls-3" x1="2009.5" y1="967.9" x2="2009.5" y2="1022.9"/>
        <line class="cls-3" x1="1995.5" y1="884.9" x2="1995.5" y2="1022.9"/>
        <line class="cls-3" x1="1984.5" y1="809.9" x2="1984.5" y2="1022.9"/>
        <line class="cls-3" x1="2139.8" y1="959.9" x2="2139.8" y2="1022.8"/>
      </g>
    </g>
    <polyline class="cls-7" points="1924.8 1063.3 1924.8 1336.5 2256.8 1336.5"/>
    <line class="cls-4" x1="1943.6" y1="1268.7" x2="1943.6" y2="1326.9"/>
    <line class="cls-4" x1="2115.8" y1="1134.9" x2="2115.8" y2="1326.8"/>
    <line class="cls-4" x1="2059.8" y1="1193.9" x2="2059.8" y2="1326.9"/>
    <line class="cls-4" x1="2027.8" y1="1305.9" x2="2027.8" y2="1326.9"/>
    <line class="cls-4" x1="1990.5" y1="1305.9" x2="1990.4" y2="1326.9"/>
    <line class="cls-4" x1="2213.8" y1="1316.9" x2="2213.8" y2="1326.8"/>
    <line class="cls-4" x1="2198.8" y1="1302.9" x2="2198.8" y2="1326.8"/>
    <polyline class="cls-7" points="2302.8 762.3 2302.8 1035.5 2634.8 1035.5"/>
    <g>
      <line class="cls-9" x1="2354.5" y1="985.9" x2="2354.5" y2="1025.9"/>
      <line class="cls-9" x1="2314.5" y1="1007.9" x2="2314.5" y2="1025.9"/>
      <line class="cls-9" x1="2327.5" y1="995.9" x2="2327.5" y2="1025.9"/>
      <line class="cls-9" x1="2501.8" y1="985.9" x2="2501.8" y2="1025.8"/>
      <line class="cls-9" x1="2461.8" y1="977.9" x2="2461.8" y2="1025.8"/>
      <line class="cls-9" x1="2420.8" y1="763.9" x2="2420.8" y2="1025.9"/>
      <line class="cls-9" x1="2582.8" y1="933.9" x2="2582.8" y2="1025.8"/>
      <line class="cls-9" x1="2558.8" y1="967.9" x2="2558.8" y2="1025.8"/>
      <line class="cls-9" x1="2534.8" y1="983.9" x2="2534.8" y2="1025.8"/>
      <line class="cls-9" x1="2525.7" y1="945.9" x2="2525.8" y2="1025.8"/>
    </g>
    <polyline class="cls-7" points="2308.8 1067.3 2308.8 1340.5 2640.8 1340.5"/>
    <g>
      <line class="cls-2" x1="2345.5" y1="1272.9" x2="2345.5" y2="1330.9"/>
      <line class="cls-2" x1="2339.5" y1="1249.9" x2="2339.5" y2="1330.9"/>
      <line class="cls-2" x1="2418.8" y1="1318.9" x2="2418.8" y2="1330.9"/>
      <line class="cls-2" x1="2613.8" y1="1206.9" x2="2613.8" y2="1330.8"/>
      <line class="cls-2" x1="2555.8" y1="1222.9" x2="2555.8" y2="1330.8"/>
      <line class="cls-2" x1="2548.8" y1="1171.9" x2="2548.8" y2="1330.8"/>
    </g>
    <g>
      <line class="cls-13" x1="1775" y1="1046.5" x2="1846.2" y2="1046.5"/>
      <polygon class="cls-18" points="1867 1046.5 1837.7 1058.5 1844.7 1046.5 1837.7 1034.6 1867 1046.5"/>
    </g>
    <text class="cls-24" transform="translate(543.2 1012.2)"><tspan x="0" y="0">1</tspan></text>
    <text class="cls-24" transform="translate(588.2 1045.2)"><tspan x="0" y="0">2</tspan></text>
    <text class="cls-24" transform="translate(651.2 1078.2)"><tspan x="0" y="0">3</tspan></text>
    <text class="cls-24" transform="translate(715.2 1113.2)"><tspan x="0" y="0">4</tspan></text>
    <text class="cls-24" transform="translate(779.7 1145.2)"><tspan x="0" y="0">5</tspan></text>
    <text class="cls-24" transform="translate(843.2 1180.2)"><tspan x="0" y="0">6</tspan></text>
    <text class="cls-32" transform="translate(36.9 1199.1) scale(.6)"><tspan x="0" y="0">MS1</tspan></text>
    <text class="cls-32" transform="translate(579 1215.1) scale(.6)"><tspan x="0" y="0">MS2</tspan></text>
    <text class="cls-31" transform="translate(393 986.1) scale(.6)"><tspan x="0" y="0">Fragmentation</tspan></text>
    <text class="cls-32" transform="translate(1413 1231.1) scale(.6)"><tspan x="0" y="0">Chimeric Spectrum</tspan></text>
    <text class="cls-31" transform="translate(1749.7 1019.2) scale(.6)"><tspan x="0" y="0">Deconvolution</tspan></text>
  </g>
  <g id="Layer_2" data-name="Layer 2">
    <polyline class="cls-7" points="705.3 140 705.3 413.3 1037.3 413.3"/>
    <line class="cls-5" x1="745.8" y1="351.5" x2="745.8" y2="408.5"/>
    <line class="cls-5" x1="725.8" y1="377.5" x2="725.8" y2="408.5"/>
    <line class="cls-5" x1="767.8" y1="254.5" x2="767.8" y2="408.5"/>
    <line class="cls-5" x1="782.8" y1="370.5" x2="782.8" y2="408.5"/>
    <line class="cls-5" x1="807.8" y1="408.5" x2="807.8" y2="157.5"/>
    <line class="cls-5" x1="834.8" y1="408.5" x2="834.8" y2="297.5"/>
    <line class="cls-5" x1="816.8" y1="408.5" x2="816.8" y2="367.5"/>
    <line class="cls-5" x1="849.8" y1="408.5" x2="849.8" y2="199.5"/>
    <line class="cls-5" x1="861.8" y1="408.5" x2="861.8" y2="276.5"/>
    <line class="cls-5" x1="878.8" y1="408.5" x2="878.8" y2="342.5"/>
    <line class="cls-5" x1="896.8" y1="408.5" x2="896.8" y2="143.5"/>
    <line class="cls-5" x1="913.8" y1="408.5" x2="913.8" y2="248.5"/>
    <line class="cls-5" x1="929.8" y1="408.5" x2="929.8" y2="324.5"/>
    <line class="cls-5" x1="942.8" y1="408.5" x2="942.8" y2="379.5"/>
    <line class="cls-5" x1="951.8" y1="408.5" x2="951.8" y2="342.5"/>
    <line class="cls-5" x1="968.8" y1="408.5" x2="968.8" y2="268.5"/>
    <line class="cls-5" x1="989.8" y1="408.5" x2="989.8" y2="363.5"/>
    <line class="cls-5" x1="977.8" y1="408.5" x2="977.8" y2="389.5"/>
    <line class="cls-5" x1="886.8" y1="408.5" x2="886.8" y2="393.5"/>
    <line class="cls-5" x1="1001.8" y1="408.5" x2="1001.8" y2="307.5"/>
    <line class="cls-5" x1="1014.8" y1="408.5" x2="1014.8" y2="224.5"/>
    <g>
      <g>
        <line class="cls-14" x1="896.3" y1="110" x2="896.3" y2="125.3"/>
        <path class="cls-17" d="M896.3,124.8c1.4-1.4,4.1-2,6-2.1-2.5,1.9-4.8,4.3-6,7.3-1.2-3-3.5-5.3-6-7.3,2,.2,4.5.7,6,2.1Z"/>
      </g>
      <text class="cls-26" transform="translate(887.5 103.8)"><tspan x="0" y="0">1</tspan></text>
    </g>
    <text class="cls-26" transform="translate(1469.8 230.8)"><tspan x="0" y="0">y</tspan></text>
    <text class="cls-26" transform="translate(1484.3 238.8) scale(.6)"><tspan x="0" y="0">8</tspan></text>
    <g>
      <g>
        <line class="cls-10" x1="808.3" y1="126" x2="808.3" y2="141.3"/>
        <path class="cls-16" d="M808.3,140.8c1.4-1.4,4.1-2,6-2.1-2.5,1.9-4.8,4.3-6,7.3-1.2-3-3.5-5.3-6-7.3,2,.2,4.5.7,6,2.1Z"/>
      </g>
      <text class="cls-23" transform="translate(799.5 119.8)"><tspan x="0" y="0">2</tspan></text>
    </g>
    <g>
      <g>
        <line class="cls-11" x1="850.3" y1="173" x2="850.3" y2="188.3"/>
        <path class="cls-15" d="M850.3,187.8c1.4-1.4,4.1-2,6-2.1-2.5,1.9-4.8,4.3-6,7.3-1.2-3-3.5-5.3-6-7.3,2,.2,4.5.7,6,2.1Z"/>
      </g>
      <text class="cls-20" transform="translate(841.5 166.8)"><tspan x="0" y="0">3</tspan></text>
    </g>
    <g>
      <g>
        <line class="cls-8" x1="1015.3" y1="193" x2="1015.3" y2="208.3"/>
        <path class="cls-19" d="M1015.3,207.8c1.4-1.4,4.1-2,6-2.1-2.5,1.9-4.8,4.3-6,7.3-1.2-3-3.5-5.3-6-7.3,2,.2,4.5.7,6,2.1Z"/>
      </g>
      <text class="cls-25" transform="translate(1006.5 186.8)"><tspan x="0" y="0">4</tspan></text>
    </g>
    <g>
      <line class="cls-13" x1="1065.3" y1="298" x2="1136.5" y2="298"/>
      <polygon class="cls-18" points="1157.3 298 1128 310 1135 298 1128 286.1 1157.3 298"/>
    </g>
    <polyline class="cls-7" points="1226.6 27.8 1226.6 301 1558.6 301"/>
    <polyline class="cls-7" points="1648.5 28.1 1648.5 301.3 1980.5 301.3"/>
    <polyline class="cls-7" points="1226.5 361.1 1226.5 634.3 1558.5 634.3"/>
    <polyline class="cls-7" points="1648.5 363.1 1648.5 636.3 1980.5 636.3"/>
    <line class="cls-3" x1="1478.8" y1="244.5" x2="1478.8" y2="294"/>
    <line class="cls-3" x1="1439.7" y1="91.1" x2="1439.7" y2="294"/>
    <line class="cls-3" x1="1385.7" y1="149.1" x2="1385.7" y2="294"/>
    <line class="cls-3" x1="1313.7" y1="263.1" x2="1313.7" y2="294"/>
    <line class="cls-3" x1="1252.7" y1="161.1" x2="1252.7" y2="294"/>
    <line class="cls-3" x1="1536.7" y1="277.1" x2="1536.7" y2="294"/>
    <line class="cls-3" x1="1337.7" y1="233.1" x2="1337.7" y2="294"/>
    <line class="cls-9" x1="1747.5" y1="269.5" x2="1747.5" y2="294.4"/>
    <line class="cls-9" x1="1967.6" y1="253.8" x2="1967.6" y2="294.4"/>
    <line class="cls-9" x1="1919.6" y1="167.8" x2="1919.6" y2="294.4"/>
    <line class="cls-9" x1="1876.6" y1="102.8" x2="1876.6" y2="294.4"/>
    <line class="cls-9" x1="1829.6" y1="207.8" x2="1829.6" y2="294.4"/>
    <line class="cls-9" x1="1788.6" y1="173.8" x2="1788.6" y2="294.4"/>
    <line class="cls-9" x1="1717.6" y1="195.8" x2="1717.6" y2="294.4"/>
    <line class="cls-9" x1="1677.6" y1="232.8" x2="1677.6" y2="294.4"/>
    <line class="cls-9" x1="1809.6" y1="278.8" x2="1809.6" y2="294.4"/>
    <line class="cls-9" x1="1697.6" y1="279.8" x2="1697.6" y2="294.4"/>
    <line class="cls-4" x1="1356.6" y1="601.2" x2="1356.6" y2="626.2"/>
    <line class="cls-4" x1="1330.9" y1="476.5" x2="1330.9" y2="626.2"/>
    <line class="cls-4" x1="1297.9" y1="419.5" x2="1297.9" y2="626.2"/>
    <line class="cls-4" x1="1269.9" y1="561.5" x2="1269.9" y2="626.2"/>
    <line class="cls-4" x1="1249.9" y1="613.5" x2="1249.9" y2="626.2"/>
    <line class="cls-4" x1="1392.9" y1="532.5" x2="1392.9" y2="626.2"/>
    <line class="cls-4" x1="1428.9" y1="483.5" x2="1428.9" y2="626.2"/>
    <line class="cls-4" x1="1476.9" y1="565.5" x2="1476.9" y2="626.2"/>
    <line class="cls-4" x1="1452.9" y1="606.5" x2="1452.9" y2="626.2"/>
    <line class="cls-4" x1="1509.9" y1="424.5" x2="1509.9" y2="626.2"/>
    <line class="cls-2" x1="1962.2" y1="599.2" x2="1962.2" y2="624.2"/>
    <line class="cls-2" x1="1928" y1="496.5" x2="1928" y2="624.2"/>
    <line class="cls-2" x1="1898" y1="567.5" x2="1898" y2="624.2"/>
    <line class="cls-2" x1="1877" y1="426.5" x2="1877" y2="624.2"/>
    <line class="cls-2" x1="1844" y1="517.5" x2="1844" y2="624.2"/>
    <line class="cls-2" x1="1803" y1="565.5" x2="1803" y2="624.2"/>
    <line class="cls-2" x1="1770" y1="379.5" x2="1770" y2="624.2"/>
    <line class="cls-2" x1="1736" y1="490.5" x2="1736" y2="624.2"/>
    <line class="cls-2" x1="1708" y1="568.5" x2="1708" y2="624.2"/>
    <line class="cls-2" x1="1687" y1="422.5" x2="1687" y2="624.2"/>
    <text class="cls-26" transform="translate(1432.5 75.8)"><tspan x="0" y="0">y</tspan></text>
    <text class="cls-26" transform="translate(1447.1 83.8) scale(.6)"><tspan x="0" y="0">7</tspan></text>
    <text class="cls-26" transform="translate(1377.5 133.8)"><tspan x="0" y="0">y</tspan></text>
    <text class="cls-26" transform="translate(1392.1 141.8) scale(.6)"><tspan x="0" y="0">6</tspan></text>
    <text class="cls-26" transform="translate(1303.5 248.8)"><tspan x="0" y="0">b</tspan></text>
    <text class="cls-26" transform="translate(1316.4 256.8) scale(.6)"><tspan x="0" y="0">6</tspan></text>
    <text class="cls-26" transform="translate(1244.5 143.8)"><tspan x="0" y="0">b</tspan></text>
    <text class="cls-26" transform="translate(1257.4 151.8) scale(.6)"><tspan x="0" y="0">5</tspan></text>
    <text class="cls-23" transform="translate(1911.5 151.8)"><tspan x="0" y="0">y</tspan></text>
    <text class="cls-23" transform="translate(1926.1 159.8) scale(.6)"><tspan x="0" y="0">6</tspan></text>
    <text class="cls-23" transform="translate(1868.3 83.8)"><tspan x="0" y="0">y</tspan></text>
    <text class="cls-23" transform="translate(1882.9 91.8) scale(.6)"><tspan x="0" y="0">5</tspan></text>
    <text class="cls-23" transform="translate(1780.3 159.8)"><tspan x="0" y="0">y</tspan></text>
    <text class="cls-23" transform="translate(1794.9 167.8) scale(.6)"><tspan x="0" y="0">4</tspan></text>
    <text class="cls-23" transform="translate(1822.3 192.8)"><tspan x="0" y="0">b</tspan></text>
    <text class="cls-23" transform="translate(1835.2 200.8) scale(.6)"><tspan x="0" y="0">5</tspan></text>
    <text class="cls-23" transform="translate(1710.3 181.8)"><tspan x="0" y="0">b</tspan></text>
    <text class="cls-23" transform="translate(1723.2 189.8) scale(.6)"><tspan x="0" y="0">4</tspan></text>
    <text class="cls-23" transform="translate(1687.3 263.8)"><tspan x="0" y="0">b</tspan></text>
    <text class="cls-23" transform="translate(1700.2 271.8) scale(.6)"><tspan x="0" y="0">3</tspan></text>
    <text class="cls-20" transform="translate(1500.3 408.8)"><tspan x="0" y="0">y</tspan></text>
    <text class="cls-20" transform="translate(1514.9 416.8) scale(.6)"><tspan x="0" y="0">7</tspan></text>
    <text class="cls-20" transform="translate(1444 584.8)"><tspan x="0" y="0">y</tspan></text>
    <text class="cls-20" transform="translate(1458.6 592.8) scale(.6)"><tspan x="0" y="0">6</tspan></text>
    <text class="cls-20" transform="translate(1416 463.8)"><tspan x="0" y="0">y</tspan></text>
    <text class="cls-20" transform="translate(1430.6 471.8) scale(.6)"><tspan x="0" y="0">5</tspan></text>
    <text class="cls-20" transform="translate(1381 517.8)"><tspan x="0" y="0">b</tspan></text>
    <text class="cls-20" transform="translate(1393.9 525.8) scale(.6)"><tspan x="0" y="0">6</tspan></text>
    <text class="cls-20" transform="translate(1322 459.8)"><tspan x="0" y="0">y</tspan></text>
    <text class="cls-20" transform="translate(1336.6 467.8) scale(.6)"><tspan x="0" y="0">4</tspan></text>
    <text class="cls-20" transform="translate(1290 400.8)"><tspan x="0" y="0">b</tspan></text>
    <text class="cls-20" transform="translate(1302.9 408.8) scale(.6)"><tspan x="0" y="0">5</tspan></text>
    <text class="cls-20" transform="translate(1259 539.8)"><tspan x="0" y="0">b</tspan></text>
    <text class="cls-20" transform="translate(1271.9 547.8) scale(.6)"><tspan x="0" y="0">4</tspan></text>
    <text class="cls-25" transform="translate(1920 476.8)"><tspan x="0" y="0">y</tspan></text>
    <text class="cls-25" transform="translate(1934.6 484.8) scale(.6)"><tspan x="0" y="0">10</tspan></text>
    <text class="cls-25" transform="translate(1889.9 551.8)"><tspan x="0" y="0">y</tspan></text>
    <text class="cls-25" transform="translate(1904.5 559.8) scale(.6)"><tspan x="0" y="0">9</tspan></text>
    <text class="cls-25" transform="translate(1863.9 408.8)"><tspan x="0" y="0">y</tspan></text>
    <text class="cls-25" transform="translate(1878.5 416.8) scale(.6)"><tspan x="0" y="0">8</tspan></text>
    <text class="cls-25" transform="translate(1829.9 499.8)"><tspan x="0" y="0">y</tspan></text>
    <text class="cls-25" transform="translate(1844.5 507.8) scale(.6)"><tspan x="0" y="0">7</tspan></text>
    <text class="cls-25" transform="translate(1759.9 367.8)"><tspan x="0" y="0">y</tspan></text>
    <text class="cls-25" transform="translate(1774.5 375.8) scale(.6)"><tspan x="0" y="0">6</tspan></text>
    <text class="cls-25" transform="translate(1717.9 476.8)"><tspan x="0" y="0">b</tspan></text>
    <text class="cls-25" transform="translate(1730.8 484.8) scale(.6)"><tspan x="0" y="0">6</tspan></text>
    <text class="cls-25" transform="translate(1674.9 408.8)"><tspan x="0" y="0">b</tspan></text>
    <text class="cls-25" transform="translate(1687.8 416.8) scale(.6)"><tspan x="0" y="0">5</tspan></text>
    <text class="cls-32" transform="translate(705.6 449.9) scale(.6)"><tspan x="0" y="0">MS1</tspan></text>
    <text class="cls-32" transform="translate(1226.3 672.4) scale(.6)"><tspan x="0" y="0">MS2</tspan></text>
    <text class="cls-31" transform="translate(1050.3 275.4) scale(.6)"><tspan x="0" y="0">Fragmentation</tspan></text>
    <text class="cls-32" transform="translate(1226.3 672.4) scale(.6)"><tspan x="0" y="0">MS2</tspan></text>
    <text class="cls-30" transform="translate(1183.7 754) scale(.6)"><tspan x="0" y="0">Data-dependent acquisition (DDA)</tspan></text>
    <text class="cls-30" transform="translate(1187.5 1428.8) scale(.6)"><tspan x="0" y="0">Data-independent acquisition (DIA)</tspan></text>
  </g>
</svg>