<?xml version="1.0" encoding="UTF-8"?>
<svg id="Layer_1" data-name="Layer 1" xmlns="http://www.w3.org/2000/svg" version="1.1" viewBox="0 0 1625 486">
  <defs>
    <style>
      .cls-1 {
        stroke: #29abe2;
      }

      .cls-1, .cls-2, .cls-3, .cls-4, .cls-5, .cls-6, .cls-7, .cls-8 {
        fill: none;
      }

      .cls-1, .cls-4, .cls-5, .cls-6, .cls-7 {
        stroke-miterlimit: 10;
      }

      .cls-9 {
        fill: #000;
        font-family: MyriadPro-Regular, 'Myriad Pro';
        font-size: 36px;
      }

      .cls-10, .cls-11, .cls-12, .cls-13, .cls-8 {
        stroke: #000;
      }

      .cls-10, .cls-14 {
        fill: red;
      }

      .cls-11, .cls-15 {
        fill: #39b54a;
      }

      .cls-2, .cls-5 {
        stroke: #231f20;
        stroke-width: 3px;
      }

      .cls-12, .cls-16 {
        fill: #29abe2;
      }

      .cls-3 {
        stroke-width: 7px;
      }

      .cls-3, .cls-4 {
        stroke: #39b54a;
      }

      .cls-13, .cls-17 {
        fill: #666;
      }

      .cls-17, .cls-14, .cls-15, .cls-16 {
        stroke-width: 0px;
      }

      .cls-6 {
        stroke: #4d4d4d;
      }

      .cls-7 {
        stroke: red;
      }
    </style>
  </defs>
  <rect class="cls-13" x="156.5" y="138.5" width="38" height="207"/>
  <rect class="cls-10" x="194.5" y="207.5" width="38" height="138"/>
  <rect class="cls-12" x="232.5" y="235.5" width="38" height="110"/>
  <rect class="cls-11" x="270.5" y="285.5" width="38" height="60"/>
  <rect class="cls-13" x="359.2" y="162.5" width="38" height="183"/>
  <rect class="cls-10" x="397.2" y="179.5" width="38" height="166"/>
  <rect class="cls-12" x="435.2" y="258.5" width="38" height="87"/>
  <rect class="cls-11" x="473.2" y="315.5" width="38" height="30"/>
  <rect class="cls-13" x="561.8" y="117.5" width="38" height="228"/>
  <rect class="cls-10" x="599.8" y="290.5" width="38" height="55"/>
  <rect class="cls-12" x="637.8" y="149.5" width="38" height="196"/>
  <rect class="cls-11" x="675.8" y="321.5" width="38" height="24"/>
  <rect class="cls-13" x="764.5" y="195.5" width="38" height="150"/>
  <rect class="cls-10" x="802.5" y="270.5" width="38" height="75"/>
  <rect class="cls-12" x="840.5" y="330.5" width="38" height="15"/>
  <rect class="cls-11" x="878.5" y="87.5" width="38" height="258"/>
  <line class="cls-2" x1="108.8" y1="52.4" x2="108.8" y2="346.4"/>
  <line class="cls-2" x1="109.3" y1="345.4" x2="962.5" y2="345.4"/>
  <line class="cls-8" x1="175.5" y1="152" x2="175.5" y2="126"/>
  <line class="cls-8" x1="213.5" y1="217" x2="213.5" y2="197.5"/>
  <line class="cls-8" x1="251.2" y1="251" x2="251.5" y2="220.5"/>
  <line class="cls-8" x1="289.2" y1="292.5" x2="289.2" y2="277.3"/>
  <line class="cls-8" x1="378.2" y1="178.8" x2="378.2" y2="145.5"/>
  <line class="cls-8" x1="416.6" y1="187.7" x2="416.5" y2="170.5"/>
  <line class="cls-8" x1="454.5" y1="270.5" x2="454.6" y2="247.4"/>
  <line class="cls-8" x1="492.5" y1="321.5" x2="492.6" y2="310.4"/>
  <line class="cls-8" x1="618.5" y1="309.5" x2="618.7" y2="270.9"/>
  <line class="cls-8" x1="580.5" y1="130.5" x2="580.9" y2="104.4"/>
  <line class="cls-8" x1="656.5" y1="166.5" x2="656.9" y2="132.4"/>
  <line class="cls-8" x1="694.5" y1="328" x2="694.5" y2="316"/>
  <line class="cls-8" x1="783.7" y1="211.9" x2="783.7" y2="178.5"/>
  <line class="cls-8" x1="821.9" y1="274.5" x2="821.9" y2="265.9"/>
  <line class="cls-8" x1="858.7" y1="339.5" x2="858.7" y2="321.5"/>
  <line class="cls-8" x1="897.9" y1="115.5" x2="897.9" y2="59"/>
  <line class="cls-8" x1="169" y1="125.5" x2="183" y2="125.5"/>
  <line class="cls-8" x1="169" y1="152.5" x2="183" y2="152.5"/>
  <line class="cls-8" x1="207" y1="197.5" x2="221" y2="197.5"/>
  <line class="cls-8" x1="207" y1="216.5" x2="221" y2="216.5"/>
  <line class="cls-8" x1="245" y1="220.5" x2="259" y2="220.5"/>
  <line class="cls-8" x1="244" y1="251.5" x2="258" y2="251.5"/>
  <line class="cls-8" x1="282" y1="277.5" x2="296" y2="277.5"/>
  <line class="cls-8" x1="282" y1="292.5" x2="296" y2="292.5"/>
  <line class="cls-8" x1="371" y1="145.5" x2="385" y2="145.5"/>
  <line class="cls-8" x1="371" y1="178.5" x2="385" y2="178.5"/>
  <line class="cls-8" x1="410" y1="170.5" x2="424" y2="170.5"/>
  <line class="cls-8" x1="410" y1="187.5" x2="424" y2="187.5"/>
  <line class="cls-8" x1="447" y1="247.5" x2="461" y2="247.5"/>
  <line class="cls-8" x1="447" y1="270.5" x2="461" y2="270.5"/>
  <line class="cls-8" x1="485" y1="310.5" x2="499" y2="310.5"/>
  <line class="cls-8" x1="485" y1="321.5" x2="499" y2="321.5"/>
  <line class="cls-8" x1="573" y1="130.5" x2="587" y2="130.5"/>
  <line class="cls-8" x1="574" y1="104.5" x2="588" y2="104.5"/>
  <line class="cls-8" x1="611" y1="309.5" x2="625" y2="309.5"/>
  <line class="cls-8" x1="611" y1="270.5" x2="625" y2="270.5"/>
  <line class="cls-8" x1="649" y1="166.5" x2="663" y2="166.5"/>
  <line class="cls-8" x1="650" y1="132.5" x2="664" y2="132.5"/>
  <line class="cls-8" x1="687" y1="328.5" x2="701" y2="328.5"/>
  <line class="cls-8" x1="687" y1="315.5" x2="701" y2="315.5"/>
  <line class="cls-8" x1="777" y1="211.5" x2="791" y2="211.5"/>
  <line class="cls-8" x1="777" y1="178.5" x2="791" y2="178.5"/>
  <line class="cls-8" x1="815" y1="274.5" x2="829" y2="274.5"/>
  <line class="cls-8" x1="815" y1="265.5" x2="829" y2="265.5"/>
  <line class="cls-8" x1="852" y1="339.5" x2="866" y2="339.5"/>
  <line class="cls-8" x1="852" y1="321.5" x2="866" y2="321.5"/>
  <line class="cls-8" x1="891" y1="115.5" x2="905" y2="115.5"/>
  <line class="cls-8" x1="891" y1="58.5" x2="905" y2="58.5"/>
  <text class="cls-9" transform="translate(24.4 58.7)"><tspan x="0" y="0">Peak</tspan><tspan x="0" y="43.2">Area</tspan></text>
  <text class="cls-9" transform="translate(162.8 381.4)"><tspan x="0" y="0">Protein A</tspan></text>
  <text class="cls-9" transform="translate(359.4 381.4)"><tspan x="0" y="0">Protein B</tspan></text>
  <text class="cls-9" transform="translate(562 381.4)"><tspan x="0" y="0">Protein C</tspan></text>
  <text class="cls-9" transform="translate(765 381.4)"><tspan x="0" y="0">Protein D</tspan></text>
  <g>
    <line class="cls-3" x1="992" y1="212.5" x2="1100.9" y2="212.5"/>
    <path class="cls-15" d="M1094.5,212.5l-7.8-12.9.4-.3,21,8.3c7.3,1.6,14.6,3.2,21.9,4.8-7.3,1.6-14.6,3.2-21.9,4.8l-21,8.3-.4-.2,7.8-12.9Z"/>
  </g>
  <text class="cls-9" transform="translate(1015.4 198)"><tspan x="0" y="0">PCA</tspan></text>
  <g>
    <line class="cls-5" x1="1210" y1="27.5" x2="1210" y2="401"/>
    <line class="cls-5" x1="1211" y1="401.5" x2="1604.5" y2="401.5"/>
    <text class="cls-9" transform="translate(1141.3 54.5)"><tspan x="0" y="0">PC1</tspan></text>
    <text class="cls-9" transform="translate(1541.5 445.9)"><tspan x="0" y="0">PC2</tspan></text>
    <path class="cls-17" d="M1307,338.7c6.4,0,6.4-10,0-10s-6.4,10,0,10h0Z"/>
    <path class="cls-17" d="M1297.2,304.2c6.4,0,6.4-10,0-10s-6.4,10,0,10h0Z"/>
    <path class="cls-17" d="M1348.5,320.1c6.4,0,6.4-10,0-10s-6.4,10,0,10h0Z"/>
    <path class="cls-17" d="M1313.1,316.6c6.4,0,6.4-10,0-10s-6.4,10,0,10h0Z"/>
    <path class="cls-17" d="M1329.9,298c6.4,0,6.4-10,0-10s-6.4,10,0,10h0Z"/>
    <path class="cls-17" d="M1332.6,336.9c6.4,0,6.4-10,0-10s-6.4,10,0,10h0Z"/>
    <path class="cls-17" d="M1367,295.4c6.4,0,6.4-10,0-10s-6.4,10,0,10h0Z"/>
    <path class="cls-17" d="M1325.5,271.5c6.4,0,6.4-10,0-10s-6.4,10,0,10h0Z"/>
    <path class="cls-17" d="M1355.5,272.4c6.4,0,6.4-10,0-10s-6.4,10,0,10h0Z"/>
    <path class="cls-17" d="M1384.7,323.7c6.4,0,6.4-10,0-10s-6.4,10,0,10h0Z"/>
    <path class="cls-14" d="M1279.8,214c6.4,0,6.4-10,0-10s-6.4,10,0,10h0Z"/>
    <path class="cls-14" d="M1286.9,175.1c6.4,0,6.4-10,0-10s-6.4,10,0,10h0Z"/>
    <path class="cls-14" d="M1295.7,198.9c6.4,0,6.4-10,0-10s-6.4,10,0,10h0Z"/>
    <path class="cls-14" d="M1319.6,238.7c6.4,0,6.4-10,0-10s-6.4,10,0,10h0Z"/>
    <path class="cls-14" d="M1348.7,197.2c6.4,0,6.4-10,0-10s-6.4,10,0,10h0Z"/>
    <path class="cls-14" d="M1316.9,214c6.4,0,6.4-10,0-10s-6.4,10,0,10h0Z"/>
    <path class="cls-14" d="M1320.5,170.7c6.4,0,6.4-10,0-10s-6.4,10,0,10h0Z"/>
    <path class="cls-14" d="M1277.2,190.1c6.4,0,6.4-10,0-10s-6.4,10,0,10h0Z"/>
    <path class="cls-14" d="M1289.6,145.1c6.4,0,6.4-10,0-10s-6.4,10,0,10h0Z"/>
    <path class="cls-14" d="M1349.6,160.1c6.4,0,6.4-10,0-10s-6.4,10,0,10h0Z"/>
    <path class="cls-16" d="M1474,252c6.4,0,6.4-10,0-10s-6.4,10,0,10h0Z"/>
    <path class="cls-16" d="M1430.7,271.4c6.4,0,6.4-10,0-10s-6.4,10,0,10h0Z"/>
    <path class="cls-16" d="M1456.3,305c6.4,0,6.4-10,0-10s-6.4,10,0,10h0Z"/>
    <path class="cls-16" d="M1482.8,283.8c6.4,0,6.4-10,0-10s-6.4,10,0,10h0Z"/>
    <path class="cls-16" d="M1457.2,276.7c6.4,0,6.4-10,0-10s-6.4,10,0,10h0Z"/>
    <path class="cls-16" d="M1496.1,259.1c6.4,0,6.4-10,0-10s-6.4,10,0,10h0Z"/>
    <path class="cls-16" d="M1497.8,293.5c6.4,0,6.4-10,0-10s-6.4,10,0,10h0Z"/>
    <path class="cls-16" d="M1486.3,312.1c6.4,0,6.4-10,0-10s-6.4,10,0,10h0Z"/>
    <path class="cls-16" d="M1515.5,277.6c6.4,0,6.4-10,0-10s-6.4,10,0,10h0Z"/>
    <path class="cls-16" d="M1520.8,243.2c6.4,0,6.4-10,0-10s-6.4,10,0,10h0Z"/>
    <path class="cls-15" d="M1455,99.2c6.4,0,6.4-10,0-10s-6.4,10,0,10h0Z"/>
    <path class="cls-15" d="M1432,148.7c6.4,0,6.4-10,0-10s-6.4,10,0,10h0Z"/>
    <path class="cls-15" d="M1410.8,184c6.4,0,6.4-10,0-10s-6.4,10,0,10h0Z"/>
    <path class="cls-15" d="M1453.2,180.5c6.4,0,6.4-10,0-10s-6.4,10,0,10h0Z"/>
    <path class="cls-15" d="M1496.5,167.2c6.4,0,6.4-10,0-10s-6.4,10,0,10h0Z"/>
    <path class="cls-15" d="M1476.2,142.5c6.4,0,6.4-10,0-10s-6.4,10,0,10h0Z"/>
    <path class="cls-15" d="M1453.2,127.5c6.4,0,6.4-10,0-10s-6.4,10,0,10h0Z"/>
    <path class="cls-15" d="M1487.7,105.4c6.4,0,6.4-10,0-10s-6.4,10,0,10h0Z"/>
    <path class="cls-15" d="M1515,148.7c6.4,0,6.4-10,0-10s-6.4,10,0,10h0Z"/>
    <path class="cls-15" d="M1500,128.4c6.4,0,6.4-10,0-10s-6.4,10,0,10h0Z"/>
    <path class="cls-7" d="M1263.4,159c-2,6.1-5.7,11.5-8.2,17.4-5.3,12.7-4.2,27.8,2.9,39.6,11.4,19,34.8,26.5,56.1,32.5,2.7.8,5.5,1.5,8.2.8,5.8-1.6,7.5-8.7,10.7-13.8,5.7-9,17.3-12.1,25.4-19.1,13-11.1,15.4-29.9,16.9-47,.4-4.9.9-10-.5-14.8-1.3-4.6-4.2-8.6-7.4-12.2-20.3-23.3-53.3-34.9-83.7-29.5-8.1,1.4-19,5.7-21.8,14.3-3.3,10.2,5,20.4,1.3,31.8Z"/>
    <path class="cls-4" d="M1413.8,146.1c-10.3,12.1-21.7,25.3-21.8,41.2,0,3.7.7,7.6,3.1,10.4,3.6,4.1,9.6,4.5,15.1,4.5,30.9-.2,61.7-7.2,89.6-20.5,9.6-4.6,19.1-10.1,25.7-18.4s9.9-20,5.8-29.9c-3-7.2-9.3-12.5-13.6-19-5.6-8.6-7.7-19.3-14.3-27.1-8-9.6-21.1-13.1-33.5-14.7-10.7-1.4-22.2-1.6-31.4,4-5.1,3.1-9.2,8.7-10.3,14.6-1.3,6.9,2.6,9,4,14.7,3.6,14.5-9.5,30-18.3,40.3Z"/>
    <path class="cls-6" d="M1310.1,262.6c-3.2,3.9-5.2,8.7-8.3,12.6-4.1,5.2-9.9,8.6-14.8,13.1-4.9,4.4-9,10.7-8,17.2.7,4.3,3.6,8,5.7,11.8,3.6,6.5,5.2,14,4.6,21.4-.3,3.5-1,7.4,1.1,10.3,1.2,1.7,3,2.7,4.9,3.5,12.1,5.4,26.3,5.9,38.7,1.3,11-4.1,20.7-12.1,32.4-13.7,10.5-1.5,22.7,2,31-4.6,8.9-7.1,7.3-21.5,1.1-31.1s-15.5-16.8-21.2-26.6c-4.2-7.2-6.7-16.1-13.7-20.6-5.4-3.5-12.4-3.5-18.8-3.1-10,.7-27.6.1-34.7,8.5Z"/>
    <path class="cls-1" d="M1419.7,258.7c-4.4,6-4.9,14.5-1.3,21,2.6,4.8,7.1,8.2,11,11.9,8.1,7.8,14.1,17.7,22.6,25.1,8.5,7.5,20.8,12.3,31,7.6,4-1.8,7.2-4.9,10.3-7.9,5.6-5.5,11.2-11,16.6-16.7,9-9.3,18.4-20.9,16.5-33.7-.5-3.3-1.8-6.7-1.3-10,.6-4.1,3.8-7.2,5.8-10.8,4.8-8.7.3-22.3-9.6-23.5-7.7-.9-14.2,5.2-20.7,9.5-7.1,4.7-15.4,7.3-23.9,7.8-7.3.4-15.2-3.5-22.1-2.3-9,1.5-29.5,14.7-34.9,22.1Z"/>
  </g>
</svg>