<?xml version="1.0" encoding="UTF-8"?>
<svg id="Layer_1" data-name="Layer 1" xmlns="http://www.w3.org/2000/svg" version="1.1" viewBox="0 0 85 100">
  <defs>
    <style>
      .cls-1 {
        fill: #414042;
        stroke-width: 0px;
      }
    </style>
  </defs>
  <path class="cls-1" d="M85,83v-3.6l-10.2,6.5c-.3-.6-.7-1.2-1.1-1.7l5.1-9.7c.2,0,.5,0,.8,0,.4,0,.7,0,1.1-.1h0c2.2-.5,3.6-2.5,3.6-4.6s0-.7-.1-1.1c-.2-.9-.7-1.7-1.4-2.3l1.4-3.6c.3,0,.5,0,.8,0v-23.7c-.4,0-.7,0-1,.2l-5.9-12.8c.5-.8.9-1.7.9-2.6,0-.4,0-.7-.1-1.1,0-.3-.2-.5-.3-.8l5.6-5.2c.3.3.6.6.9.8V4c-2.1,1.6-3.3,4.2-3.3,6.9s0,1.4.2,2.1c.1.5.3,1,.5,1.4l-6,5.5c-.6-.3-1.4-.5-2.1-.5s-.7,0-1.1.1c-2.1.5-3.6,2.4-3.6,4.5s0,.7.1,1.1c.5,2.1,2.4,3.5,4.5,3.5.4,0,.8,0,1.1-.1,0,0,.1,0,.2,0l5.5,12c-2.9,1.4-5.3,4-6.3,7.2l-5.1-1.2c0-.1,0-.3,0-.4,0-4.2-3.4-7.5-7.5-7.5s-2.1.2-3,.6l-3.7-3.5c.9-1.2,1.4-2.7,1.4-4.3s0-1.2-.2-1.7c-.4-1.6-1.2-2.9-2.4-3.8l1.3-3c.6.3,1.3.4,2,.4.4,0,.9,0,1.3-.2,2.5-.6,4.1-2.7,4.1-5.1,0-.4,0-.8-.1-1.2-.6-2.4-2.8-4-5.1-4-.4,0-.9,0-1.3.2-2.5.6-4.1,2.7-4.1,5.1,0,.4,0,.8.1,1.2.1.6.4,1.1.7,1.5l-1.5,3.6c-.7-.2-1.4-.3-2.1-.3s-1.2,0-1.7.2c-3.4.8-5.6,3.8-5.6,7.2s0,1.2.2,1.7c.8,3.4,3.8,5.6,7.2,5.6s1.2,0,1.7-.2c.7-.2,1.4-.5,2-.8l3.4,3.3c-1.2,1.3-2,3.1-2,5.1s.2,2.1.6,3l-5.3,5.4c-1.5-1.1-3.4-1.7-5.3-1.7-.7,0-1.4,0-2.2.3-4.2,1-7,4.7-7,8.9s0,1.4.3,2.2c1,4.2,4.7,7,8.9,7s1.4,0,2.2-.3c2.6-.6,4.7-2.4,5.9-4.6l2.5.9c.6,2.4,2.8,4.1,5.2,4.1s0,0,.1,0l3.9,10.6c-3.5,1.2-5.8,4.4-5.8,8s0,1.3.2,2c.9,3.8,4.4,6.4,8.2,6.4s1.4,0,2-.2c3.9-.9,6.5-4.4,6.5-8.2s0-.4,0-.6l9.4-6ZM60.5,60.4c-.4,0-.8,0-1.3.2-1.8.4-3.1,1.7-3.7,3.3l-1.8-.6c0-.5.1-.9.1-1.4,0-.7,0-1.4-.3-2.2-.3-1.1-.8-2.2-1.4-3.1l4.9-5.1c1.3,1.2,3.1,2,5.1,2,3,0,5.5-1.7,6.7-4.2l5.3,1.2c0,1.5.1,3,.7,4.5,1.1,3.2,3.5,5.6,6.4,6.9l-1.2,3.3c-.2,0-.3,0-.5,0-.4,0-.8,0-1.1.1h0c-1,.2-1.8.8-2.4,1.4l-10.3-1.9c0-.1,0-.2,0-.3-.6-2.4-2.8-4.1-5.2-4.1ZM71.3,82.3c-1.2-.6-2.5-1-3.8-1l-4-11.1c.8-.6,1.5-1.4,1.9-2.3l9.5,1.8c0,.1,0,.2,0,.3,0,.4,0,.7.1,1.1.2.8.6,1.6,1.2,2.1l-4.8,9.1Z"/>
</svg>